<svg width="24" height="24" viewBox="0 0 24 24" fill="none" xmlns="http://www.w3.org/2000/svg">
    <path d="M4.80002 4.7998C3.47454 4.7998 2.40002 5.87432 2.40002 7.1998V11.9998C2.40002 13.3253 3.47454 14.3998 4.80002 14.3998L4.80002 7.1998H16.8C16.8 5.87432 15.7255 4.7998 14.4 4.7998H4.80002Z" fill="#427070"/>
    <path fill-rule="evenodd" clip-rule="evenodd" d="M7.20002 11.9998C7.20002 10.6743 8.27454 9.5998 9.60002 9.5998H19.2C20.5255 9.5998 21.6 10.6743 21.6 11.9998V16.7998C21.6 18.1253 20.5255 19.1998 19.2 19.1998H9.60002C8.27454 19.1998 7.20002 18.1253 7.20002 16.7998V11.9998ZM14.4 16.7998C15.7255 16.7998 16.8 15.7253 16.8 14.3998C16.8 13.0743 15.7255 11.9998 14.4 11.9998C13.0745 11.9998 12 13.0743 12 14.3998C12 15.7253 13.0745 16.7998 14.4 16.7998Z" fill="#427070"/>
</svg>
