<svg width="151" height="150" viewBox="0 0 151 150" fill="none" xmlns="http://www.w3.org/2000/svg">
    <g clip-path="url(#clip0_177_4376)">
        <path d="M0.5 0H150.5V150H0.5V0Z" fill="white"/>
        <path d="M73.3027 19.043H77.8438L81.6523 19.4824L85.4609 20.3613L88.0977 21.2402L90.7344 22.4121L93.8105 24.0234L96.4473 25.7812L97.9121 26.9531L99.9629 28.7109L102.307 31.2012L103.918 33.252L105.383 35.4492L106.848 38.0859L108.02 40.5762L109.045 43.3594L109.924 46.582L110.363 49.2188L110.656 53.3203L110.51 56.9824L110.07 60.2051L109.191 64.0137L107.727 67.9688L105.822 71.6309L104.357 73.8281L102.893 75.7324L101.135 77.7832L99.2305 79.6875L97.1797 81.2988L95.2754 82.7637L93.0781 84.082L90.7344 85.2539L89.2695 85.8398L88.3906 85.9863H84.875L82.5312 85.2539L80.9199 84.2285L79.8945 83.0566L79.3086 81.5918V80.127L79.8945 78.6621L81.2129 77.1973L82.6777 76.0254L87.2188 72.9492L88.6836 71.7773L89.709 70.752L90.7344 68.7012L90.8809 67.9688V66.7969L90.4414 65.332L89.709 64.1602L88.9766 63.2812L86.9258 61.8164L84.7285 60.791L80.7734 59.4727L70.959 56.9824L69.4941 56.25L69.2012 55.8105L69.3477 54.7852L70.373 53.6133L71.6914 52.7344L76.0859 50.6836L77.5508 49.8047L78.2832 48.9258L78.1367 47.9004L77.6973 46.582L78.4297 45.2637L79.748 43.5059L81.2129 41.3086L82.5312 38.9648L83.2637 36.7676L83.4102 35.8887V34.2773L82.8242 31.9336L81.7988 30.1758L80.4805 28.8574L79.0156 27.9785L77.1113 27.3926L76.0859 27.2461H74.6211L72.2773 27.832L70.959 28.5645L69.7871 29.4434L68.6152 31.0547L67.8828 32.8125L67.7363 33.6914V36.3281L68.3223 38.2324L69.4941 40.5762L70.959 42.9199L72.5703 45.1172L74.6211 47.9004L75.0605 48.9258L74.3281 49.6582L71.6914 50.5371L67.2969 51.8555L65.0996 52.7344L63.4883 53.6133L62.6094 54.3457L61.7305 55.6641L61.584 56.25V57.2754L62.3164 58.7402L63.6348 59.7656L65.9785 60.791L73.1562 62.8418L75.3535 63.7207L76.8184 64.5996L77.5508 65.625V66.9434L76.6719 68.2617L75.3535 69.1406L72.7168 70.3125L65.9785 72.9492L62.6094 74.4141L60.4121 75.5859L58.9473 76.6113L57.7754 77.6367L56.8965 79.1016L56.3105 80.5664L55.8711 82.9102H55.4316L54.6992 82.1777L53.8203 81.1523L51.7695 79.541L50.4512 78.2227L50.1582 78.0762V77.7832H49.8652L48.8398 76.6113L47.375 74.8535L45.3242 71.7773L44.0059 69.4336L42.834 66.9434L41.9551 64.4531L41.0762 61.2305L40.6367 58.5938L40.3438 55.5176V52.1484L40.7832 48.0469L41.3691 45.2637L42.248 42.334L42.9805 40.4297L44.4453 37.3535L45.9102 34.8633L47.375 32.8125L48.9863 30.9082L50.4512 29.2969L51.623 28.2715L53.2344 26.8066L55.4316 25.1953L58.2148 23.4375L61.291 21.9727L64.3672 20.8008L67.4434 19.9219L70.5195 19.3359L73.3027 19.043Z" fill="white"/>
        <path d="M73.8887 16.1133H77.4043L80.7734 16.4062L84.7285 17.1387L88.2441 18.1641L91.9062 19.6289L94.6895 21.0938L97.6191 22.998L99.5234 24.4629L101.574 26.2207L103.186 27.832V28.125H103.479L106.115 31.3477L107.58 33.3984L109.045 35.8887L110.217 38.2324L111.096 40.2832L112.121 43.3594L113 47.168L113.439 50.9766V56.8359L113.146 59.4727L112.561 62.5488L111.535 66.2109L110.07 69.873L108.312 73.2422L106.848 75.4395L105.383 77.3438L103.771 79.1016L102.746 80.2734L100.988 82.0312L99.8164 83.0566L97.3262 84.9609L94.543 86.7188L91.1738 88.4766L87.3652 89.9414L83.9961 90.8203L80.627 91.4062L79.3086 91.5527H72.2773L68.7617 91.1133L64.9531 90.2344L61.1445 88.916L58.8008 87.8906L55.5781 86.1328L53.3809 84.668L50.8906 82.7637L49.1328 81.1523L47.082 79.1016L45.7637 77.4902L44.2988 75.5859L42.6875 73.0957L40.6367 69.1406L39.4648 66.0645L38.4395 62.5488L37.8535 59.3262L37.5605 56.6895V50.9766L38 47.168L38.7324 43.7988L40.1973 39.4043L41.9551 35.7422L43.7129 32.8125L46.3496 29.2969H46.6426L46.9355 28.7109L49.8652 25.7812L51.4766 24.4629L54.1133 22.5586L56.75 20.9473L60.2656 19.1895L64.3672 17.7246L68.4688 16.6992L71.5449 16.2598L73.8887 16.1133ZM73.3027 19.043L69.6406 19.4824L65.6855 20.3613L62.3164 21.5332L59.3867 22.8516L57.4824 23.877L54.4062 25.9277L52.0625 27.832L50.8906 28.8574L50.1582 29.5898L48.4004 31.4941L46.4961 33.9844L44.8848 36.6211L43.2734 39.6973L42.3945 41.8945L41.5156 44.6777L40.9297 47.168L40.4902 50.3906L40.3438 52.1484V55.5176L40.7832 59.7656L41.5156 62.9883L42.3945 65.7715L43.2734 67.9688L44.8848 71.0449L46.3496 73.3887L48.1074 75.7324L49.4258 77.1973L49.8652 77.7832H50.1582V78.0762L51.3301 79.1016L52.7949 80.4199L53.9668 81.2988L55.1387 82.7637L55.7246 83.0566L55.8711 82.9102L56.3105 80.5664L57.043 78.8086L57.9219 77.4902L59.2402 76.3184L61.4375 75L64.5137 73.5352L69.3477 71.6309L73.4492 70.0195L75.793 68.8477L76.9648 67.9688L77.5508 66.9434V65.625L76.8184 64.5996L75.0605 63.5742L72.1309 62.5488L65.9785 60.791L63.6348 59.7656L62.3164 58.7402L61.584 57.2754V56.25L62.0234 55.0781L62.9023 54.0527L64.5137 53.0273L66.8574 52.002L71.1055 50.6836L74.0352 49.8047L74.9141 49.2188L75.0605 48.7793L74.6211 47.9004L72.5703 45.1172L70.959 42.9199L69.2012 40.1367L68.1758 37.9395L67.7363 36.3281V33.6914L68.0293 32.5195L68.7617 30.7617L69.7871 29.4434L71.3984 28.2715L73.1562 27.5391L74.6211 27.2461H76.0859L78.1367 27.6855L79.4551 28.2715L80.7734 29.1504L81.7988 30.1758L82.8242 31.9336L83.4102 34.2773V35.8887L82.8242 38.2324L81.6523 40.5762L80.334 42.627L78.8691 44.6777L77.8438 46.1426L77.6973 46.875L78.2832 48.1934L78.1367 49.2188L76.9648 50.2441L73.3027 52.002L70.959 53.1738L69.7871 54.1992L69.2012 55.0781L69.3477 56.1035L70.5195 56.8359L74.9141 58.0078L80.7734 59.4727L84.7285 60.791L87.0723 61.9629L88.5371 62.9883L89.416 63.7207L90.2949 65.0391L90.7344 66.2109L90.8809 66.7969V67.9688L90.4414 69.4336L89.5625 70.8984L88.2441 72.2168L85.7539 73.9746L83.1172 75.7324L81.3594 77.0508L80.1875 78.2227L79.4551 79.541L79.3086 80.127V81.5918L79.8945 83.0566L81.0664 84.375L82.5312 85.2539L84.875 85.9863H88.3906L90.1484 85.5469L92.4922 84.375L94.1035 83.4961L95.8613 82.3242L97.9121 80.7129L99.8164 79.1016L101.721 77.1973L103.039 75.5859L104.504 73.6816L106.115 71.0449L107.727 67.9688L109.191 64.0137L110.07 60.2051L110.51 56.9824L110.656 53.3203L110.363 49.2188L109.777 45.9961L108.898 42.9199L108.02 40.5762L106.262 36.9141L104.65 34.2773L103.332 32.5195L101.721 30.6152L99.5234 28.2715L97.4727 26.5137L94.9824 24.7559L92.7852 23.4375L89.5625 21.8262L86.0469 20.5078L82.5312 19.6289L79.6016 19.1895L77.8438 19.043H73.3027Z" fill="#5D9E9E"/>
        <path d="M34.4844 93.1641H38L40.3438 93.457L42.1016 94.043L43.8594 95.0684L45.1777 96.3867L46.0566 97.8516L46.4961 99.6094V101.953L45.9102 103.857L44.7383 105.469L43.7129 106.494L42.1016 107.52L40.9297 108.105H40.4902L41.3691 109.717L43.127 112.646L44.8848 115.43L46.4961 117.773L47.668 118.799L48.9863 119.385L50.0117 119.531L50.1582 119.678V121.143H43.4199L41.9551 120.557L40.7832 119.385L39.6113 117.48L37.5605 113.818L35.5098 110.303L34.7773 108.984V108.691L34.0449 108.838H32.4336L32.5801 118.359L33.0195 119.092L33.752 119.385L35.6562 119.531L35.8027 119.678V120.996L35.6562 121.143H23.3516V119.678L23.498 119.531L25.6953 119.238L26.2812 118.945L26.5742 118.359L26.7207 117.188V98.1445L26.4277 96.3867L25.9883 95.6543L24.8164 95.0684L23.498 94.7754L23.3516 94.6289V93.3105L34.4844 93.1641Z" fill="#5D9E9E"/>
        <path d="M100.256 100.781H101.135L101.428 101.074V104.15H101.721L102.014 103.564L103.039 102.539L104.504 101.66L106.262 100.928L106.994 100.781H109.631L111.096 101.221L112.268 102.1L113.293 103.271L113.732 103.857L115.49 102.539L117.688 101.367L120.031 100.781H122.521L123.986 101.221L125.451 102.246L126.33 103.711L126.77 105.176L126.916 106.348L127.062 118.506L127.502 119.238L127.795 119.385L129.113 119.531L129.406 119.678V121.143H119.299L119.152 120.996V119.824L119.445 119.531L121.057 119.238L121.496 118.799L121.643 118.359V107.227L121.35 105.908L120.764 105.029L119.885 104.297L119.152 104.004H117.395L115.93 104.59L114.318 106.055V118.359L114.758 119.238L116.516 119.531L116.809 119.678V121.143H106.555V119.678L108.312 119.238L108.752 118.945L109.045 117.627V107.227L108.752 105.908L108.166 104.883L107.434 104.297L106.408 104.004H105.09L103.625 104.443L102.307 105.469L101.574 106.348V117.334L101.867 118.945L102.453 119.385L103.771 119.531L104.064 119.678L104.211 120.703L104.064 121.143H93.8105L93.6641 120.996V119.678L95.5684 119.238L96.0078 118.945L96.1543 118.506V105.176L95.7148 104.15L94.6895 103.711L93.6641 103.418V102.246L93.8105 102.1L97.3262 101.514L100.256 100.781Z" fill="#5D9E9E"/>
        <path d="M58.5078 100.781H61.877L64.0742 101.367L66.125 102.393L67.5898 103.564L68.6152 104.736L69.4941 106.201L70.2266 108.105L70.5195 109.57V112.939L69.9336 115.283L68.9082 117.334L67.7363 118.799L66.5645 119.824L64.8066 120.85L63.1953 121.436L61.7305 121.729H58.3613L56.3105 121.289L54.5527 120.557L52.6484 119.238L51.4766 117.92L50.5977 116.455L49.8652 114.697L49.5723 113.672L49.4258 112.5V109.863L49.8652 107.812L50.5977 106.055L51.4766 104.736L52.502 103.564L54.5527 102.1L56.457 101.221L58.5078 100.781Z" fill="#5D9E9E"/>
        <path d="M81.3594 100.781H82.8242L84.875 101.074L86.4863 101.66L87.6582 102.539L88.5371 103.857L88.9766 105.029L89.123 105.908L89.2695 117.773L89.5625 118.506L89.8555 118.652H91.4668L92.3457 118.506L92.6387 119.092L92.4922 119.824L91.6133 120.557L89.8555 121.289L87.2188 121.582L85.6074 121.289L84.7285 120.703L84.1426 119.531V119.092L82.9707 120.117L81.3594 121.143L79.0156 121.729H76.9648L75.207 121.289L73.7422 120.41L72.8633 119.385L72.2773 117.773V115.576L72.7168 114.258L73.3027 113.379L74.3281 112.354L76.0859 111.328L79.0156 110.156L81.7988 109.277L83.9961 108.838L83.8496 105.322L83.4102 104.15L82.8242 103.418L81.3594 102.832H79.8945L78.7227 103.271L78.1367 104.297L77.5508 106.641L76.9648 107.227L75.793 107.666H73.7422L73.1562 107.227V105.762L73.7422 104.297L74.7676 103.125L76.6719 101.953L78.5762 101.221L81.3594 100.781Z" fill="#5D9E9E"/>
        <path d="M59.5332 102.539H60.7051L61.7305 102.832L63.0488 103.857L63.7812 104.883L64.5137 107.08L64.8066 108.545L64.9531 112.5L64.6602 114.99L64.0742 116.895L63.3418 118.359L62.3164 119.385L60.8516 119.971H59.5332L58.2148 119.531L57.043 118.506L56.1641 117.041L55.5781 115.283L55.2852 113.525V109.277L55.8711 106.348L56.8965 104.297L57.7754 103.271L58.9473 102.686L59.5332 102.539Z" fill="#FEFCF5"/>
        <path d="M33.166 94.7754H35.9492L37.8535 95.3613L39.1719 96.3867L39.9043 97.2656L40.4902 98.584L40.6367 99.3164V101.807L40.1973 103.418L39.3184 104.883L38 106.055L36.3887 106.787L34.9238 107.08H32.4336V94.9219L33.166 94.7754Z" fill="#FEFCF5"/>
        <path d="M99.6699 100.635H101.281L101.721 101.221L101.867 102.686H102.746L103.039 102.1L104.064 101.514L105.529 100.781L106.262 100.635H110.51L111.975 101.221L113.293 102.832L113.732 103.125L114.318 102.979L114.758 102.832V102.539L115.637 102.1L117.248 101.221L118.566 100.781L119.445 100.635H122.961L124.279 101.074L125.451 101.807L126.477 103.125L127.062 105.029L127.209 106.641L127.355 118.652L128.234 119.238L129.406 119.385L129.553 119.531L129.699 120.85L129.553 121.436L119.299 121.582L118.859 121.143V120.117L119.299 119.385L120.324 119.238L121.057 118.652H121.35L121.496 116.748V107.812L121.203 106.787L121.057 105.615H120.764L120.031 104.736L119.445 104.443L117.688 104.297L116.076 104.883L115.49 105.029L115.197 105.615H114.904L114.611 106.494L114.465 107.959V117.627L114.904 118.945L115.344 119.092V119.385H116.809L117.102 119.678L117.395 120.996L116.662 121.436L107.434 121.582L106.408 121.289L106.115 120.703L106.408 119.531L108.166 118.799L108.605 118.359L108.898 117.041V108.105L108.166 105.176L107.58 104.883L106.848 104.443L106.262 104.297H104.797L103.332 105.029L102.453 105.762L101.867 106.641V117.041L102.014 118.359L102.6 119.092L104.211 119.531L104.504 120.264V121.143L103.771 121.729L103.479 121.582H93.6641L93.3711 121.143V119.531L94.8359 119.238L95.7148 118.652L96.0078 117.773V106.201L95.7148 104.883L95.4219 104.297L94.25 104.004L93.5176 103.711L93.2246 103.271V102.246L93.6641 101.807L97.3262 101.221L99.6699 100.635ZM100.256 100.781L96.5938 101.66L93.8105 102.1L93.6641 102.246V103.418L95.5684 104.004L96.0078 104.59L96.1543 105.176V118.506L95.8613 119.092L95.1289 119.385L93.6641 119.678V120.996L93.8105 121.143H104.064L104.211 120.117L104.064 119.678L103.771 119.531L102.453 119.385L101.867 118.945L101.574 117.334V106.348L102.746 105.029L104.064 104.297L105.09 104.004H106.408L107.727 104.443L108.605 105.469L108.898 106.201L109.045 107.227V117.627L108.752 118.945L107.873 119.385L106.555 119.678V121.143H116.809V119.678L116.516 119.531L114.758 119.238L114.318 118.359V106.055L115.344 105.029L116.516 104.297L117.395 104.004H119.152L120.324 104.59L121.203 105.615L121.496 106.348L121.643 107.227V118.359L121.203 119.092L120.471 119.385L119.445 119.531L119.152 119.824V120.996L119.299 121.143H129.406V119.678L129.113 119.531L127.795 119.385L127.209 118.945L127.062 118.506L126.916 106.348L126.477 104.004L125.598 102.393L124.279 101.367L123.254 100.928L122.521 100.781H120.031L117.688 101.367L115.49 102.539L113.732 103.857L112.561 102.393L111.389 101.367L110.363 100.928L109.631 100.781H106.994L105.09 101.367L103.479 102.246L102.014 103.564L101.721 104.15H101.428V101.074L101.135 100.781H100.256Z" fill="#F7FEFD"/>
        <path d="M74.3281 26.8066H75.9395L78.4297 27.2461L79.4551 27.6855L80.9199 28.7109L82.0918 29.7363L82.3848 30.4688L82.6777 30.6152L83.2637 31.6406L83.7031 32.959L83.8496 34.1309V36.1816L83.1172 38.9648L82.0918 40.7227L80.9199 42.7734L80.041 43.7988L79.1621 44.9707L78.1367 46.582L78.2832 47.168L78.7227 47.7539L78.5762 49.5117L77.4043 50.3906L77.2578 50.6836L74.3281 52.002L72.1309 53.0273L71.252 53.6133H70.8125V53.9062L70.2266 54.0527L69.9336 54.7852L69.7871 54.9316V55.8105L70.959 56.543L72.2773 56.8359L74.4746 57.4219L77.6973 58.3008L79.6016 58.7402L80.4805 59.0332L81.7988 59.3262L85.0215 60.3516L85.6074 60.498V60.791L86.1934 60.9375L88.0977 61.9629L89.123 62.8418L89.709 63.4277V63.7207L90.1484 63.8672L91.1738 65.918L91.3203 66.7969V68.2617L90.5879 70.3125L90.002 71.1914L88.6836 72.2168L87.8047 73.2422L86.9258 73.6816L85.4609 74.707L84.4355 75.293L82.9707 76.3184L81.3594 77.4902L80.9199 78.2227L80.334 78.6621L79.748 79.834V81.8848L80.4805 83.0566L81.5059 83.9355V84.2285L82.0918 84.5215L82.8242 84.9609L84.1426 85.2539L84.875 85.5469L87.2188 85.6934L89.5625 85.2539L91.7598 84.375L92.9316 83.6426H93.2246V83.3496L94.543 82.7637L95.4219 82.1777L96.1543 81.4453L96.8867 81.0059H97.1797L97.4727 80.4199L98.2051 80.127L98.3516 79.6875L98.9375 79.3945L99.9629 78.2227L101.135 77.1973L102.453 75.7324L103.039 75L103.332 75.1465L102.16 76.6113L100.549 78.3691L99.2305 79.6875L97.1797 81.2988L95.2754 82.7637L93.0781 84.082L90.7344 85.2539L89.2695 85.8398L88.3906 85.9863H84.875L82.5312 85.2539L80.9199 84.2285L79.8945 83.0566L79.3086 81.5918V80.127L79.8945 78.6621L81.2129 77.1973L82.6777 76.0254L87.2188 72.9492L88.6836 71.7773L89.709 70.752L90.7344 68.7012L90.8809 67.9688V66.7969L90.4414 65.332L89.709 64.1602L88.9766 63.2812L86.9258 61.8164L84.7285 60.791L80.7734 59.4727L70.959 56.9824L69.4941 56.25L69.2012 55.8105L69.3477 54.7852L70.373 53.6133L71.6914 52.7344L76.0859 50.6836L77.5508 49.8047L78.2832 48.9258L78.1367 47.9004L77.6973 46.582L78.4297 45.2637L79.748 43.5059L81.2129 41.3086L82.5312 38.9648L83.2637 36.7676L83.4102 35.8887V34.2773L82.8242 31.9336L81.7988 30.1758L80.4805 28.8574L79.0156 27.9785L77.1113 27.3926L76.0859 27.2461H74.6211L72.2773 27.832L70.959 28.5645L69.7871 29.4434L68.6152 31.0547L67.8828 32.8125L67.7363 33.6914V36.3281L68.3223 38.2324L69.4941 40.5762L70.959 42.9199L72.5703 45.1172L74.6211 47.9004L75.0605 48.9258L74.3281 49.6582L71.6914 50.5371L67.2969 51.8555L65.0996 52.7344L63.4883 53.6133L62.6094 54.3457L61.7305 55.6641L61.584 56.25V57.2754L62.3164 58.7402L63.6348 59.7656L65.9785 60.791V60.9375L64.9531 60.791L63.1953 60.0586L62.1699 59.3262L61.4375 58.3008L61.291 57.8613V56.1035L61.7305 54.7852L62.4629 54.0527L63.1953 53.1738L65.5391 52.002L67.0039 51.416L68.6152 50.8301L71.1055 50.2441L73.1562 49.6582L74.3281 49.2188V48.3398L73.3027 46.7285L72.5703 46.1426L72.1309 45.2637L70.666 43.2129V42.9199L70.0801 42.627L69.2012 40.8691L68.3223 39.4043L67.7363 38.2324L67.1504 36.0352L67.2969 33.6914L67.8828 31.3477L68.6152 30.3223L69.0547 29.5898L69.7871 28.8574H70.0801L70.2266 28.418L71.252 27.832L72.1309 27.2461L73.1562 26.9531L74.3281 26.8066Z" fill="#F7FEFD"/>
        <path d="M94.3965 20.9473L95.2754 21.0938L96.5938 21.9727L98.0586 22.8516L98.3516 22.998V23.291H98.6445L99.084 23.7305L100.988 25.1953L104.211 28.418L105.236 29.7363L106.115 30.7617V31.0547L106.555 31.2012L107.873 33.252V33.5449H108.166L108.752 34.4238L109.777 36.4746L110.803 38.6719L111.242 39.2578L111.682 40.8691L112.268 42.9199L112.561 43.5059L113.293 47.4609L113.586 48.1934L113.732 50.9766V56.8359L113.586 59.3262L113.293 60.0586L112.854 62.5488L112.561 63.8672L111.535 66.9434L111.242 68.4082L110.803 69.1406H110.51L110.217 70.3125L109.191 72.3633L108.752 73.3887L107.873 74.4141L106.701 76.0254L106.262 76.7578L105.529 77.6367L104.504 78.8086L103.771 79.541L103.186 80.4199L102.014 81.4453L101.867 81.7383L101.135 82.1777L100.402 82.9102L99.2305 83.9355H98.9375V84.2285L98.0586 84.5215V84.8145L95.8613 86.2793L94.25 87.1582L92.7852 88.0371L90.4414 89.0625L87.9512 90.0879L86.6328 90.5273L83.7031 91.2598L79.8945 91.6992L78.8691 91.9922H74.0352L71.9844 91.8457L71.3984 91.6992L68.6152 91.4062L65.6855 90.8203L63.7812 90.2344L59.3867 88.4766L56.75 87.1582V86.8652L55.8711 86.5723L54.9922 86.1328L53.0879 84.8145L51.916 83.9355L51.4766 83.7891L50.7441 83.0566L50.0117 82.4707L49.5723 82.0312V81.7383L48.9863 81.5918L48.2539 80.8594V80.5664L47.668 80.2734V79.834H47.375L46.3496 78.6621L45.4707 77.6367V77.3438H45.1777L44.8848 76.7578L44.5918 76.6113V76.3184H44.2988L43.8594 75.5859L42.6875 73.6816L42.541 72.8027L43.127 73.5352L44.5918 75.7324L46.0566 77.6367L47.8145 79.6875L50.3047 82.1777L52.7949 84.082L54.6992 85.4004L56.8965 86.7188L59.2402 87.8906L62.3164 89.209L65.5391 90.2344L68.7617 90.9668L72.2773 91.4062H79.3086L83.2637 90.8203L86.3398 90.0879L88.9766 89.209L92.0527 87.8906L94.8359 86.4258L97.9121 84.375L99.9629 82.7637L102.307 80.5664L103.479 79.3945L104.504 78.2227L105.969 76.4648L106.994 75L108.459 72.6562L110.07 69.5801L111.389 66.2109L112.561 62.1094L113.146 58.5938L113.293 56.8359V50.9766L112.854 47.168L111.975 43.3594L110.803 39.8438L109.191 36.3281L107.727 33.8379L106.262 31.7871L104.797 29.8828L103.479 28.418V28.125H103.186L102.16 26.9531L101.135 25.9277L99.5234 24.6094L98.0586 23.4375L95.8613 21.9727L94.3965 21.0938V20.9473Z" fill="#F7FEFD"/>
        <path d="M74.9141 31.3477H76.2324L77.5508 31.9336L78.5762 32.8125L79.1621 33.9844L79.3086 35.1562L78.8691 36.6211L78.2832 37.5L76.8184 38.3789L76.2324 38.5254H74.9141L73.4492 37.9395L72.7168 37.207L72.1309 36.4746L71.8379 35.4492V34.2773L72.2773 33.1055L72.8633 32.373L73.8887 31.6406L74.9141 31.3477Z" fill="#FDFCF5"/>
        <path d="M83.7031 110.449H83.9961V117.041L82.3848 118.359L81.6523 118.652H79.6016L78.7227 118.213L78.2832 117.773L77.9902 117.041L77.8438 115.576L78.1367 114.258L78.8691 113.086L79.6016 112.354L81.0664 111.328L83.7031 110.449Z" fill="#FEFCF5"/>
        <path d="M23.498 92.8711H37.707L40.9297 93.1641L41.2227 93.457L42.6875 93.8965L44.2988 95.0684L45.0312 95.8008L45.9102 96.8262L46.4961 98.1445L46.9355 100.049L46.7891 102.539L45.6172 104.883L44.0059 106.641L41.8086 108.105H41.3691L41.2227 108.691L41.6621 109.57L42.6875 111.182L43.2734 112.061L43.7129 112.939L44.2988 113.818V114.111H44.5918L45.1777 115.43L46.6426 117.334L47.5215 118.359L49.5723 119.238L50.4512 119.385L50.5977 120.996L50.0117 121.582H46.2031L42.541 121.289L41.2227 120.41L40.7832 119.971L40.1973 118.945L39.9043 118.359L39.4648 118.213L38.8789 116.748L38.1465 115.723L37.5605 114.404L36.6816 113.086L35.5098 110.742L35.6562 110.303L36.8281 112.354L38.7324 115.723L40.3438 118.506L41.3691 119.824L42.248 120.557L43.4199 120.996L50.1582 121.143L50.0117 119.678L48.5469 119.385L47.2285 118.652L46.2031 117.627L44.7383 115.43L42.9805 112.646L40.6367 108.691L40.4902 108.105L42.834 106.934L44.1523 105.908L45.3242 104.59L46.0566 103.125L46.3496 101.953V99.6094L45.9102 97.8516L44.8848 96.2402L43.8594 95.2148L41.8086 94.043L39.4648 93.457L38 93.3105H23.3516L23.498 94.6289L25.2559 95.0684L26.2812 95.8008L26.7207 96.9727L26.8672 98.1445V117.188L26.5742 118.652L25.9883 119.238L25.1094 119.385L25.2559 118.945L26.1348 118.799L26.2812 117.773L26.4277 113.232L26.5742 110.889L26.4277 110.303L26.5742 106.348L26.4277 105.469V101.367L26.2812 96.8262L25.9883 96.0938L24.9629 95.3613L23.498 95.2148L22.9121 94.6289V93.3105L23.498 92.8711Z" fill="#F7FEFD"/>
        <path d="M80.1875 100.635H84.582L86.1934 101.074L87.6582 102.1L88.5371 103.125L89.2695 105.029L89.416 106.494L89.5625 117.773L90.1484 118.359L90.8809 118.506L92.1992 118.066L92.9316 118.799L93.0781 119.824L91.9062 120.703L91.1738 121.143L89.5625 121.729L86.7793 121.875L85.0215 121.436L84.4355 120.85V120.557H84.1426L83.7031 120.117L81.6523 121.289L80.334 121.729L79.6016 121.875H76.3789L74.7676 121.436L73.1562 120.264L73.3027 119.824L74.6211 120.85L76.0859 121.436L76.9648 121.582H79.0156L81.3594 120.996L82.9707 119.971L83.8496 119.092H84.1426L84.7285 120.41L85.3145 120.996L86.0469 121.289L87.3652 121.436L89.8555 121.143L91.6133 120.41L92.4922 119.678L92.3457 118.652L91.4668 118.799H89.8555L89.2695 118.359L89.123 117.773L88.9766 105.908L88.5371 104.15L87.6582 102.686L86.4863 101.807L84.875 101.221L82.8242 100.928H81.3594L78.5762 101.367L76.6719 102.1L75.207 102.979L74.3281 103.711L73.4492 105.176L73.3027 105.762V107.227L73.7422 107.52H75.793L77.2578 106.934L77.6973 105.762L78.1367 104.004L78.7227 103.125L79.8945 102.686H81.3594L82.5312 103.125L81.9453 103.271L81.2129 103.125H79.748L79.0156 103.271L78.8691 103.711H78.5762L78.4297 104.883L78.1367 105.176L77.8438 106.934L77.2578 107.52L75.5 107.959H73.4492L73.0098 107.52V105.322L73.7422 103.857L75.0605 102.393L77.5508 101.221L80.1875 100.635Z" fill="#F7FEFD"/>
        <path d="M57.3359 100.635H62.4629L64.5137 101.074L66.125 101.953L66.8574 102.393L68.6152 104.15L69.6406 105.762L70.373 107.373L70.666 108.691L70.8125 111.035V112.646L70.5195 114.404L69.9336 116.309L69.2012 117.627L68.1758 118.945L66.125 120.557L64.2207 121.436L62.6094 121.875L61.4375 122.021H59.0938L56.3105 121.582L54.4062 120.85L53.2344 120.264L52.3555 119.238L51.916 118.945V118.652H51.623L50.5977 117.188L50.0117 116.016L49.1328 113.379V109.277L49.8652 106.787L50.1582 106.641L50.3047 106.055L51.1836 104.443L51.7695 103.857H52.0625V103.564L53.0879 102.686L53.6738 102.1L56.3105 100.928L57.3359 100.635ZM58.5078 100.781L56.1641 101.367L53.8203 102.539L52.0625 104.004L50.7441 105.762L50.0117 107.373L49.5723 108.838L49.4258 109.863V112.5L49.7188 114.258L50.4512 116.162L51.1836 117.48L52.502 119.092L54.1133 120.264L55.8711 121.143L57.4824 121.582L58.3613 121.729H61.7305L64.0742 121.143L66.125 120.117L67.5898 118.945L68.6152 117.773L69.4941 116.309L70.2266 114.404L70.5195 112.939V109.57L69.9336 107.227L68.9082 105.176L67.8828 103.857L66.5645 102.686L64.5137 101.514L62.6094 100.928L61.877 100.781H58.5078Z" fill="#F7FEFD"/>
        <path d="M56.3105 20.9473L56.457 21.2402L53.6738 22.998L51.3301 24.7559L49.2793 26.5137L46.7891 29.0039L46.6426 29.2969H46.3496L46.0566 29.8828L44.1523 32.373L42.248 35.4492L40.6367 38.6719L39.3184 42.334L38.4395 45.7031L37.8535 49.2188L37.707 50.9766V56.6895L38.1465 60.3516L38.8789 63.7207L40.1973 67.6758L40.0508 68.1152L39.7578 67.9688L38.4395 64.0137L38.1465 62.4023L37.707 60.2051L37.4141 59.1797L37.2676 56.25L37.1211 55.957V51.709L37.2676 51.416L37.4141 48.1934L37.8535 46.875L38.293 44.5312L38.5859 43.2129L39.3184 40.8691L39.7578 39.4043L40.3438 38.3789L40.6367 37.6465L41.5156 35.8887L42.3945 34.2773L43.4199 32.8125L44.4453 31.2012L45.7637 29.5898L46.9355 28.125L47.9609 27.2461L48.5469 26.5137H48.8398L49.1328 25.9277L50.0117 25.3418L51.4766 24.0234L53.2344 22.7051L54.6992 21.8262H54.9922V21.5332L55.7246 21.0938L56.3105 20.9473Z" fill="#F7FEFD"/>
        <path d="M49.2793 30.6152L49.4258 31.0547L48.1074 32.5195L47.5215 33.252L46.4961 34.8633L45.7637 36.1816H45.4707L45.3242 36.7676L44.8848 37.3535L44.4453 38.3789L43.5664 40.1367L42.834 42.1875L41.9551 44.5312L41.6621 46.1426L41.3691 47.3145L41.0762 49.0723L40.9297 51.2695V57.4219L41.5156 61.084L42.1016 63.4277L42.6875 65.4785L43.4199 66.9434L44.1523 68.8477L44.5918 69.2871L45.1777 70.752L46.3496 72.6562L46.7891 73.0957L47.082 73.9746L47.5215 74.1211L48.1074 75L48.8398 76.0254L49.5723 76.6113L49.8652 77.4902L48.8398 76.6113L47.375 74.8535L45.3242 71.7773L44.0059 69.4336L42.834 66.9434L41.9551 64.4531L41.0762 61.2305L40.6367 58.5938L40.3438 55.5176V52.1484L40.7832 48.0469L41.3691 45.2637L42.248 42.334L42.9805 40.4297L44.4453 37.3535L45.9102 34.8633L47.375 32.8125L48.9863 30.9082L49.2793 30.6152Z" fill="#F7FEFD"/>
        <path d="M65.9785 60.9375L67.4434 61.2305L73.1562 62.8418L75.3535 63.7207L76.8184 64.5996L77.5508 65.625V66.9434L76.6719 68.2617L75.3535 69.1406L72.7168 70.3125L65.9785 72.9492L62.6094 74.4141L60.4121 75.5859L58.9473 76.6113L57.7754 77.6367L56.8965 79.1016L56.3105 80.5664L55.8711 82.9102H55.4316L54.6992 82.1777L53.8203 81.1523L51.7695 79.541L50.4512 78.2227L50.1582 78.0762V77.7832H49.8652V77.4902H50.3047L52.0625 79.248V79.541L52.7949 79.834L54.5527 81.1523L54.9922 81.8848L55.4316 82.0312L55.8711 80.2734L56.3105 78.9551L56.75 78.3691H57.043L57.3359 77.6367L58.2148 76.4648L60.7051 75L61.291 74.707L61.7305 74.2676L64.9531 72.8027L66.418 72.3633L66.7109 72.0703L68.1758 71.6309L69.9336 70.8984L71.252 70.459L72.7168 69.7266L74.0352 69.2871L74.6211 68.8477L75.6465 68.5547L76.6719 67.8223L77.1113 66.7969V65.918H76.8184L76.5254 65.0391L75.5 64.3066L74.0352 63.7207L72.8633 63.2812L70.666 62.5488L69.2012 62.2559L66.2715 61.377L65.9785 60.9375Z" fill="#F7FDFC"/>
        <path d="M103.625 33.1055L104.211 33.6914L105.676 35.8887L107.727 39.8438L108.898 42.9199L109.777 45.9961L110.363 49.2188L110.656 53.3203L110.51 56.9824L110.07 60.2051L109.191 64.0137L107.727 67.9688L105.822 71.6309L104.357 73.8281L103.625 74.8535L103.479 74.4141L104.357 72.9492H104.65L104.943 72.2168L105.822 70.8984L106.555 69.2871L107.287 67.8223L107.727 66.5039L108.312 65.4785L109.191 61.9629L109.631 60.0586L109.924 58.5938L110.07 56.25V52.2949L109.924 49.0723L109.191 45.7031L109.045 44.6777L108.605 43.6523L108.02 41.748L106.701 38.6719L106.115 37.5L105.236 36.3281L104.211 34.2773L103.625 33.5449V33.1055Z" fill="#F7FEFD"/>
        <path d="M59.5332 102.539H60.7051L61.7305 102.832L63.0488 103.857L63.7812 104.883L64.5137 107.08L64.8066 108.545L64.9531 112.5L64.6602 114.99L64.0742 116.895L63.3418 118.359L62.3164 119.385L60.8516 119.971H59.5332L58.2148 119.531L57.043 118.506L56.1641 117.041L55.5781 115.283L55.2852 113.525V109.277L55.8711 106.348L56.8965 104.297L57.7754 103.271L58.9473 102.686L59.5332 102.539ZM59.3867 102.832L58.3613 103.271V103.564H58.0684V103.857L57.4824 104.15L56.75 105.029L56.1641 106.641L55.8711 108.545L55.4316 109.863V113.086L56.457 117.041L57.6289 118.652L58.6543 119.385L59.2402 119.678H60.998L61.7305 119.385L62.1699 118.945L62.7559 118.652L63.3418 117.627V117.334H63.6348L64.0742 116.162L64.5137 113.672V109.424L64.3672 107.812L64.0742 106.787L63.9277 105.615L63.0488 104.443L61.7305 103.125L60.8516 102.832H59.3867Z" fill="#F7FEFD"/>
        <path d="M72.2773 15.8203H79.3086L80.041 16.1133L82.0918 16.2598L84.1426 16.6992L87.3652 17.4316L88.3906 17.8711L90.002 18.6035L91.9062 19.3359L94.25 20.5078L94.3965 20.9473L93.5176 20.6543L91.1738 19.4824L87.8047 18.1641L84.1426 17.1387L80.7734 16.5527L77.4043 16.2598H73.8887L70.2266 16.5527L66.5645 17.2852L63.0488 18.3105L59.9727 19.4824L57.043 20.9473H56.75V20.6543L58.6543 19.6289H59.0938V19.3359L60.1191 18.8965L61.584 18.457L64.2207 17.4316L67.1504 16.5527L69.2012 16.2598L71.3984 16.1133L72.2773 15.8203Z" fill="#F7FEFD"/>
        <path d="M33.166 94.7754H35.9492L37.8535 95.3613L39.1719 96.3867L39.9043 97.2656L40.4902 98.584L40.6367 99.3164V101.807L40.1973 103.418L39.3184 104.883L38 106.055L36.3887 106.787L34.9238 107.08H32.4336V94.9219L33.166 94.7754ZM33.166 95.0684L32.7266 95.3613V106.641L32.873 106.787H35.2168L36.6816 106.348L38 105.615V105.322L38.5859 105.176L39.6113 103.857L39.7578 103.125L40.1973 102.979L40.3438 100.635L40.4902 100.049L40.1973 98.4375L39.9043 98.1445L39.4648 97.1191L38.7324 96.2402L38 95.9473L37.707 95.6543L36.6816 95.2148L35.8027 95.0684H33.166Z" fill="#F7FEFD"/>
        <path d="M71.6914 19.1895H73.3027L73.1562 19.4824L70.666 19.7754L67.5898 20.3613L66.125 20.6543L64.8066 21.0938L63.7812 21.2402V21.5332L62.3164 22.1191L60.998 22.5586L58.2148 24.0234L57.3359 24.6094L55.7246 25.4883L55.4316 25.6348L55.2852 26.0742L54.1133 26.6602L52.6484 27.9785L52.0625 28.2715L51.0371 29.4434L49.7188 30.6152L49.4258 30.4688L50.4512 29.2969L51.623 28.2715L53.2344 26.8066L55.4316 25.1953L58.2148 23.4375L61.291 21.9727L64.3672 20.8008L67.4434 19.9219L70.5195 19.3359L71.6914 19.1895Z" fill="#F7FEFD"/>
        <path d="M74.9141 31.3477H76.2324L77.5508 31.9336L78.5762 32.8125L79.1621 33.9844L79.3086 35.1562L78.8691 36.6211L78.2832 37.5L76.8184 38.3789L76.2324 38.5254H74.9141L73.4492 37.9395L72.7168 37.207L72.1309 36.4746L71.8379 35.4492V34.2773L72.2773 33.1055L72.8633 32.373L73.8887 31.6406L74.9141 31.3477ZM74.9141 31.6406L73.1562 32.666L72.4238 33.6914L72.2773 33.9844V35.8887L73.1562 37.5L74.1816 37.793L75.0605 38.2324L76.5254 38.0859L77.8438 37.5L78.1367 37.3535V36.7676H78.4297L78.8691 35.7422V34.2773L78.2832 33.252L77.6973 32.373L76.2324 31.6406H74.9141Z" fill="#F7FEFD"/>
        <path d="M82.5312 103.271L83.1172 103.564L83.7031 104.297L83.9961 105.322V108.838L80.9199 109.717L77.4043 110.889L75.0605 112.061L73.8887 112.939L73.0098 113.965L72.5703 114.844L72.4238 115.576V117.773L73.0098 119.385V119.824L72.5703 119.531L71.9844 117.92V115.723L72.4238 113.965L73.1562 112.939L73.8887 112.354H74.1816L74.3281 111.914L76.5254 110.742L79.1621 109.863L79.4551 109.57L81.2129 109.131L82.5312 108.838L83.5566 108.545L83.7031 107.959V105.615L83.1172 104.15L82.5312 103.564V103.271Z" fill="#F7FEFD"/>
        <path d="M83.7031 110.449H83.9961V117.041L82.3848 118.359L81.6523 118.652H79.6016L78.7227 118.213L78.2832 117.773L77.9902 117.041L77.8438 115.576L78.1367 114.258L78.8691 113.086L79.6016 112.354L81.0664 111.328L83.7031 110.449ZM83.4102 110.889L82.5312 111.182L80.9199 111.768V112.061L80.1875 112.207L79.4551 112.793L79.0156 113.379V113.672H78.7227L78.2832 115.137V116.748L78.8691 117.92L79.6016 118.359L81.2129 118.506L82.6777 117.773L83.1172 117.334L83.8496 116.895V112.5L83.7031 111.182L83.4102 110.889Z" fill="#F7FEFD"/>
        <path d="M77.8438 19.1895H79.6016L83.1172 19.7754L86.4863 20.6543L90.1484 22.1191L93.3711 23.7305L96.4473 25.7812L96.0078 25.9277L95.1289 25.4883V25.1953L94.3965 24.9023L93.0781 24.3164V24.0234L92.4922 23.877V23.584L91.9062 23.4375L89.5625 22.2656L86.0469 20.9473L81.6523 19.9219L80.334 19.7754L80.041 19.6289L77.9902 19.4824L77.8438 19.1895Z" fill="#F7FEFD"/>
        <path d="M23.2051 119.531L23.498 119.678L23.3516 121.143L35.6562 120.996V119.531L36.0957 119.678L36.2422 119.971V120.85L35.6562 121.582H23.498L23.0586 121.289L22.9121 120.41L23.2051 119.531Z" fill="#F7FEFD"/>
        <path d="M34.0449 108.691H34.7773L35.5098 110.01L35.3633 110.303L34.3379 109.131L32.873 109.424V118.213L33.459 118.799L34.7773 119.238L35.6562 119.385V119.531H33.752L33.0195 119.238L32.5801 118.799L32.4336 118.359V108.838L34.0449 108.691Z" fill="#F7FEFD"/>
        <path d="M96.5938 26.0742L97.1797 26.3672L98.791 27.6855L100.549 29.2969L102.16 31.0547L103.625 32.8125L103.479 33.1055L102.746 32.5195L102.014 31.6406V31.3477H101.721V31.0547H101.428L100.988 30.3223L99.8164 29.2969L98.791 28.125L98.3516 27.9785V27.6855H98.0586V27.3926L97.4727 27.0996L96.5938 26.3672V26.0742Z" fill="#F7FEFD"/>
        <path d="M40.1973 68.1152L40.4902 68.4082L42.1016 71.7773L42.541 72.5098V72.8027L41.9551 72.5098L41.0762 70.752L40.3438 69.1406L40.1973 68.1152Z" fill="#F7FEFD"/>
        <path d="M76.8174 73.4619C70.6762 78.0678 66.5382 79.3311 63.707 84.668C63.707 84.668 66.9297 86.499 69.5664 84.2285C70.6361 80.1959 76.5977 76.092 78.6484 74.4141C81.0654 72.4365 81.4316 71.9238 83.043 69.5801C84.1416 67.2363 84.2148 65.1123 80.4795 62.1826C77.793 60.0756 71.3242 59.7656 71.3242 59.7656C76.1582 60.2051 79.3076 62.9883 79.3076 62.9883C79.3076 62.9883 83.4092 65.7715 81.5781 68.5547C80.1002 70.8012 79.7471 71.2646 76.8174 73.4619Z" fill="#FDF8EB"/>
    </g>
    <defs>
        <clipPath id="clip0_177_4376">
            <rect width="150" height="150" fill="white" transform="translate(0.5)"/>
        </clipPath>
    </defs>
</svg>
