<svg width="200" height="200" viewBox="0 0 200 200" fill="none" xmlns="http://www.w3.org/2000/svg">
    <g clip-path="url(#clip0_1783_5879)">
        <path d="M37.5 43.75H120.508L125 44.1406L129.883 45.1172L134.57 46.6797L139.062 48.8281L142.773 51.3672L144.922 53.125L147.852 55.8594L150 58.3984L151.758 60.9375L153.32 63.4766L155.273 67.5781L156.445 71.0938L157.422 75L157.812 78.125V85.5469L157.031 90.0391L156.055 93.3594L154.297 97.4609L152.344 100.977L150 104.102L147.266 107.031L145.117 108.984L143.75 109.961H143.359L144.336 112.5L146.875 117.773L149.414 123.242L152.734 130.078L156.055 137.109L159.961 145.117L162.109 149.609L164.453 154.688L165.234 156.055V156.445H142.578L141.211 156.055L139.648 154.688L137.891 151.562L135.156 145.898L133.008 141.406L128.125 131.445L125.977 126.953L124.219 123.242L122.656 120.117L121.875 118.75L118.75 118.555L94.1406 118.75L92.1875 122.461L90.0391 126.953L87.8906 131.25L85.3516 136.719L83.0078 141.406L80.8594 145.898L78.5156 150.781L76.9531 153.711L76.1719 154.688L74.6094 155.859L72.8516 156.445H37.5V43.75Z" fill="#5D9E9E"/>
        <path d="M59.5703 64.8438H120.898L125 65.8203L128.125 67.3828L130.664 69.3359L132.227 70.8984L133.984 73.4375L135.156 75.9766L135.938 79.2969V83.5938L135.156 86.7188L133.594 89.8438L132.031 91.7969L130.078 93.75L127.344 95.5078L124.414 96.6797L121.484 97.2656L119.922 97.4609L83.3984 97.6562L81.8359 98.0469L80.8594 98.6328L79.4922 100.781L77.1484 105.664L74.6094 111.133L72.0703 116.406L69.5312 121.875L66.0156 129.297L62.8906 135.938L61.9141 137.695L61.7188 137.891H59.7656L59.5703 137.695V64.8438Z" fill="white"/>
        <path d="M108.203 136.328L111.328 136.523L113.672 137.109L115.625 137.891L117.969 139.648L119.336 141.016L120.898 143.75L121.68 145.898L122.07 147.852V150.586L121.484 153.516L119.922 157.227L117.773 160.742L115.82 163.477L113.672 166.211L111.719 168.359L110.352 169.922L109.18 171.094L108.398 170.703L107.617 170.117V169.727H107.227L105.859 168.164L104.102 166.211L101.953 163.477L99.4141 159.766L98.2422 157.812L96.875 154.688L96.0938 151.953L95.8984 150.781V148.242L96.4844 145.508L97.2656 143.555L98.6328 141.211L100.781 139.062L103.516 137.5L105.859 136.719L108.203 136.328Z" fill="#5D9E9E"/>
    </g>
    <defs>
        <clipPath id="clip0_1783_5879">
            <rect width="200" height="200" fill="white"/>
        </clipPath>
    </defs>
</svg>
