<svg width="16" height="15" viewBox="0 0 16 15" fill="none" xmlns="http://www.w3.org/2000/svg">
    <path d="M15.0801 15C13.344 15 11.6287 14.6217 9.93424 13.865C8.2398 13.1083 6.69813 12.0353 5.30925 10.6458C3.92036 9.25639 2.84758 7.71472 2.09091 6.02083C1.33424 4.32694 0.955634 2.61167 0.955078 0.875C0.955078 0.625 1.03841 0.416667 1.20508 0.25C1.37174 0.0833333 1.58008 0 1.83008 0H5.20508C5.39952 0 5.57313 0.066111 5.72591 0.198333C5.87869 0.330555 5.96897 0.486667 5.99674 0.666667L6.53841 3.58333C6.56619 3.80556 6.55924 3.99306 6.51758 4.14583C6.47591 4.29861 6.39952 4.43056 6.28841 4.54167L4.26758 6.58333C4.54536 7.09722 4.87508 7.59361 5.25674 8.0725C5.63841 8.55139 6.05869 9.01333 6.51758 9.45833C6.94813 9.88889 7.39952 10.2883 7.87174 10.6567C8.34397 11.025 8.84397 11.3617 9.37175 11.6667L11.3301 9.70833C11.4551 9.58333 11.6184 9.48972 11.8201 9.4275C12.0217 9.36528 12.2195 9.34778 12.4134 9.375L15.2884 9.95833C15.4829 10.0139 15.6426 10.1147 15.7676 10.2608C15.8926 10.4069 15.9551 10.57 15.9551 10.75V14.125C15.9551 14.375 15.8717 14.5833 15.7051 14.75C15.5384 14.9167 15.3301 15 15.0801 15Z" fill="#427070"/>
</svg>
