<svg width="32" height="32" viewBox="0 0 32 32" fill="none" xmlns="http://www.w3.org/2000/svg">
    <path fill-rule="evenodd" clip-rule="evenodd" d="M2.83209 9.66309C1.828 9.66309 0.999023 10.4681 0.999023 11.4621V15.1976C0.999023 15.6763 1.19304 16.1349 1.53824 16.4713C1.88217 16.8089 2.34831 16.9954 2.83209 16.9954C3.83745 16.9954 4.66517 16.1916 4.66517 15.1976V11.4647C4.66517 10.9859 4.47115 10.5236 4.12721 10.1872C3.78064 9.84987 3.31572 9.66174 2.83209 9.66309ZM29.6655 13.997C29.5772 13.9973 29.4926 14.0326 29.4302 14.0952C29.3679 14.1578 29.3329 14.2425 29.3329 14.3308V16.3289C29.3327 16.3728 29.3412 16.4162 29.3578 16.4568C29.3744 16.4973 29.3989 16.5342 29.4298 16.5654C29.4607 16.5965 29.4974 16.6212 29.5378 16.6381C29.5783 16.6551 29.6216 16.6639 29.6655 16.664H30.6671C30.7109 16.6639 30.7543 16.6551 30.7947 16.6381C30.8352 16.6212 30.8719 16.5965 30.9028 16.5654C30.9336 16.5342 30.9581 16.4973 30.9747 16.4568C30.9913 16.4162 30.9998 16.3728 30.9997 16.3289V14.3283C30.9993 14.2402 30.9642 14.1558 30.9019 14.0935C30.8396 14.0312 30.7552 13.996 30.6671 13.9957L29.6655 13.997Z" fill="#4F697D"/>
    <path fill-rule="evenodd" clip-rule="evenodd" d="M5.38713 6.94141C5.01956 6.94207 4.66719 7.08821 4.40704 7.34789C4.14689 7.60756 4.00011 7.95966 3.99878 8.32723V18.3279C3.99862 18.3719 4.00717 18.4156 4.02395 18.4563C4.04073 18.497 4.06541 18.534 4.09656 18.5652C4.12772 18.5964 4.16473 18.621 4.20546 18.6378C4.24619 18.6546 4.28984 18.6631 4.3339 18.663H28.8C28.8554 18.6623 28.9096 18.6479 28.958 18.6211C29.0064 18.5943 29.0474 18.5559 29.0772 18.5093L29.9465 17.1764C29.9819 17.122 30.0007 17.0586 30.0007 16.9937V14.3291C29.9974 14.197 29.9636 14.0674 29.902 13.9505C29.8403 13.8336 29.7525 13.7325 29.6454 13.6551C29.4368 13.508 29.1899 13.4248 28.9348 13.4157C26.8687 13.291 21.3355 13.029 20.955 13.0101C20.9096 12.6699 20.5153 9.65889 20.2268 8.14078C20.1644 7.81916 19.9925 7.52913 19.7403 7.32008C19.488 7.11103 19.1711 6.99591 18.8435 6.99432H18.841L5.38713 6.94141Z" fill="#7A9659"/>
    <path d="M3.82349 14.7766H13.5066V15.7769C13.5066 16.6966 14.2562 17.4475 15.1759 17.4475H19.1822C20.1019 17.4475 20.8515 16.6966 20.8515 15.7769V13.4424C20.8515 13.4261 20.8515 13.4109 20.849 13.3946L20.1813 8.72056C20.1698 8.64098 20.1299 8.56823 20.069 8.51569C20.0081 8.46315 19.9304 8.43435 19.8499 8.43457H3.82475L3.82349 14.7766Z" fill="#53673C"/>
    <path fill-rule="evenodd" clip-rule="evenodd" d="M7.73538 15.6624C7.68916 15.6625 7.64346 15.6721 7.60117 15.6908C7.55888 15.7094 7.52093 15.7367 7.48971 15.7707L5.35679 18.104C5.31347 18.1518 5.28491 18.2111 5.27458 18.2747C5.26424 18.3384 5.27257 18.4037 5.29856 18.4627C5.32454 18.5218 5.36707 18.572 5.42101 18.6074C5.47494 18.6428 5.53796 18.6618 5.60246 18.6621H14.1366C14.2029 18.6616 14.2675 18.6415 14.3223 18.6043C14.377 18.567 14.4195 18.5143 14.4442 18.4528C14.4689 18.3913 14.4748 18.3239 14.4611 18.2591C14.4474 18.1943 14.4147 18.135 14.3672 18.0888L11.9684 15.7581C11.9062 15.697 11.8226 15.6626 11.7354 15.6624H7.73538ZM24.2696 15.6624C24.1936 15.6622 24.1198 15.688 24.0604 15.7355L21.1275 18.0687C21.0729 18.1118 21.0331 18.1709 21.0137 18.2377C20.9943 18.3045 20.9963 18.3757 21.0193 18.4413C21.0424 18.5069 21.0853 18.5637 21.1422 18.6038C21.1991 18.6438 21.2671 18.6651 21.3366 18.6646H28.7999C28.8553 18.6639 28.9095 18.6496 28.9579 18.6227C29.0063 18.5959 29.0473 18.5575 29.0771 18.5109L29.9464 17.178C29.9707 17.1404 29.9872 17.0983 29.9949 17.0542C30.0026 17.0101 30.0014 16.9649 29.9913 16.9213C29.9812 16.8777 29.9624 16.8366 29.9361 16.8004C29.9098 16.7642 29.8764 16.7336 29.8381 16.7106L28.1751 15.7115C28.1232 15.6793 28.0635 15.6618 28.0025 15.6611L24.2696 15.6624Z" fill="#A5BB8B"/>
    <path fill-rule="evenodd" clip-rule="evenodd" d="M3.66614 17.9961C3.57781 17.9961 3.49308 18.0311 3.43051 18.0934C3.36793 18.1558 3.33261 18.2404 3.33228 18.3287V19.9942C3.33211 20.0382 3.34062 20.0817 3.35733 20.1224C3.37403 20.163 3.3986 20.2 3.42962 20.2311C3.46063 20.2622 3.49749 20.2869 3.53808 20.3038C3.57867 20.3206 3.62219 20.3293 3.66614 20.3293H30.6696C30.7134 20.3292 30.7568 20.3204 30.7973 20.3034C30.8377 20.2865 30.8744 20.2618 30.9053 20.2306C30.9362 20.1995 30.9606 20.1626 30.9773 20.1221C30.9939 20.0815 31.0024 20.038 31.0022 19.9942V18.33C31.0019 18.2418 30.9667 18.1574 30.9044 18.0951C30.8421 18.0328 30.7577 17.9977 30.6696 17.9974L3.66614 17.9961Z" fill="#A5BB8B"/>
    <path fill-rule="evenodd" clip-rule="evenodd" d="M3.99878 13.3292H4.99783C5.51059 13.3292 5.99941 12.9815 5.99941 12.4599V10.5324C5.99941 10.0108 5.51059 9.66309 4.99783 9.66309H3.99878V13.3292ZM15.8715 9.66309C15.757 9.66325 15.6437 9.68596 15.538 9.72993C15.4323 9.7739 15.3363 9.83825 15.2554 9.91932C15.1746 10.0004 15.1105 10.0966 15.0669 10.2024C15.0232 10.3083 15.0008 10.4217 15.001 10.5362V12.4562C15.0006 12.6872 15.092 12.9088 15.255 13.0725C15.418 13.2362 15.6393 13.3286 15.8703 13.3292H19.3336C19.3827 13.3288 19.431 13.3177 19.4753 13.2964C19.5195 13.2752 19.5586 13.2445 19.5896 13.2065C19.6207 13.1685 19.6429 13.1241 19.6549 13.0765C19.6668 13.0289 19.6681 12.9793 19.6586 12.9311C19.6586 12.9311 19.3399 11.3286 19.1975 10.4039C19.1655 10.1983 19.0613 10.0108 18.9036 9.8751C18.746 9.73936 18.5451 9.6642 18.337 9.66309H15.8715Z" fill="#E2F0FA"/>
    <path d="M7.53254 9.66309C7.30274 9.66474 7.08285 9.75694 6.92058 9.91968C6.75832 10.0824 6.66676 10.3026 6.66577 10.5324V12.4637C6.66577 12.9387 7.05632 13.3292 7.53254 13.3292H12.131C12.6059 13.3292 13.0003 12.9387 13.0003 12.4637V10.5311C12.9986 10.3012 12.9065 10.0812 12.7437 9.91871C12.581 9.75624 12.3609 9.66441 12.131 9.66309H7.53254Z" fill="#E2F0FA"/>
    <path fill-rule="evenodd" clip-rule="evenodd" d="M26.1367 16.9297C27.2147 16.931 28.2482 17.36 29.0104 18.1224C29.7726 18.8848 30.2012 19.9184 30.2022 20.9965C30.2022 23.239 28.3792 25.0645 26.1367 25.0645C23.8942 25.0645 22.0699 23.2377 22.0699 20.9965C22.0716 19.9184 22.5006 18.885 23.2629 18.1227C24.0252 17.3604 25.0586 16.9314 26.1367 16.9297ZM9.86454 16.9297C10.9428 16.931 11.9766 17.3599 12.7392 18.1222C13.5017 18.8846 13.9309 19.9182 13.9326 20.9965C13.9312 22.075 13.5022 23.1089 12.7396 23.8715C11.977 24.6341 10.943 25.0632 9.86454 25.0645C8.7865 25.0628 7.75313 24.6336 6.99119 23.8709C6.22925 23.1083 5.80096 22.0745 5.80029 20.9965C5.80129 19.9186 6.22973 18.8852 6.99164 18.1228C7.75354 17.3604 8.78671 16.9314 9.86454 16.9297Z" fill="#4F697D"/>
    <path fill-rule="evenodd" clip-rule="evenodd" d="M9.86468 18.5283C11.2228 18.5283 12.334 19.637 12.334 20.9976C12.334 22.3545 11.2228 23.4619 9.86468 23.4619C9.21109 23.4609 8.58456 23.2008 8.12241 22.7386C7.66025 22.2765 7.40017 21.6499 7.39917 20.9964C7.39917 19.6382 8.50657 18.5283 9.86468 18.5283Z" fill="#E2F0FA"/>
    <path fill-rule="evenodd" clip-rule="evenodd" d="M9.86718 19.8623C10.4895 19.8623 11.001 20.3738 11.001 20.9962C10.9997 21.2964 10.8798 21.5839 10.6674 21.796C10.455 22.0082 10.1674 22.1278 9.86718 22.1288C9.56732 22.1274 9.28014 22.0076 9.06822 21.7955C8.85631 21.5833 8.73683 21.296 8.73584 20.9962C8.73584 20.3738 9.24482 19.8623 9.86718 19.8623Z" fill="#4F697D"/>
    <path fill-rule="evenodd" clip-rule="evenodd" d="M26.1343 18.5283C27.4937 18.5283 28.5998 19.637 28.5998 20.9976C28.5985 21.651 28.3382 22.2772 27.8761 22.7391C27.414 23.201 26.7877 23.4609 26.1343 23.4619C25.4805 23.4609 24.8537 23.2009 24.3911 22.7388C23.9286 22.2767 23.6679 21.6502 23.6663 20.9964C23.6663 19.6382 24.7762 18.5283 26.1356 18.5283H26.1343Z" fill="#E2F0FA"/>
    <path fill-rule="evenodd" clip-rule="evenodd" d="M26.1341 19.8623C26.7565 19.8623 27.2667 20.3738 27.2667 20.9962C27.2657 21.2962 27.1461 21.5837 26.9339 21.7959C26.7217 22.0081 26.4342 22.1278 26.1341 22.1288C25.8339 22.1278 25.5463 22.0082 25.3339 21.796C25.1215 21.5839 25.0016 21.2964 25.0002 20.9962C25.0002 20.3738 25.513 19.8623 26.1341 19.8623Z" fill="#4F697D"/>
    <path fill-rule="evenodd" clip-rule="evenodd" d="M5.38705 6.94183C5.01948 6.9425 4.66712 7.08863 4.40697 7.34831C4.14682 7.60799 4.00004 7.96009 3.99871 8.32766V10.0725C3.66829 9.80618 3.25651 9.66121 2.83209 9.66183C1.828 9.66183 0.999023 10.4669 0.999023 11.4609V15.1963C0.999023 15.6751 1.1943 16.1336 1.53824 16.47C1.86307 16.7885 2.29453 16.9752 2.74908 16.9938C3.20363 17.0124 3.64892 16.8617 3.99871 16.5708V17.9957H3.63209C3.46831 17.9957 3.33225 18.1569 3.33225 18.3283V19.9938C3.33225 20.179 3.48091 20.3302 3.66611 20.3289H5.85824C5.82056 20.5495 5.80117 20.7728 5.80028 20.9966C5.80162 22.0744 6.23016 23.1076 6.99199 23.8699C7.75383 24.6322 8.78681 25.0614 9.86453 25.0634C12.1071 25.0634 13.9326 23.2366 13.9326 20.9954C13.9326 20.7686 13.9086 20.5469 13.8734 20.3277H22.1291C22.091 20.5482 22.0712 20.7716 22.0699 20.9954C22.0699 23.2379 23.8954 25.0634 26.1367 25.0634C28.3779 25.0634 30.2022 23.2366 30.2022 20.9954C30.2022 20.7686 30.1782 20.5469 30.143 20.3277H30.6696C30.8535 20.3277 31.0022 20.1777 31.0022 19.9938V18.3308C31.0022 18.2426 30.9671 18.158 30.9048 18.0956C30.8424 18.0333 30.7578 17.9982 30.6696 17.9982H29.4123L29.9464 17.1793C29.9817 17.1254 30.0005 17.0623 30.0006 16.9979V16.6653H30.6683C30.851 16.664 30.9997 16.5141 30.9997 16.3302V14.3295C30.9997 14.2413 30.9646 14.1567 30.9022 14.0944C30.8399 14.032 30.7553 13.9969 30.6671 13.9969H29.9187C29.7171 13.5963 29.3341 13.4615 28.9348 13.4187C26.8686 13.294 21.3354 13.0307 20.9549 13.013C20.9096 12.6716 20.5152 9.66183 20.2267 8.14372C20.1008 7.48104 19.5162 6.94687 18.8434 6.94309C14.3584 6.92419 9.87335 6.95947 5.38705 6.94183ZM5.38454 7.60955H18.8397C19.2592 7.60955 19.5048 7.95852 19.583 8.32892H4.66517C4.66517 7.91695 5.04564 7.61711 5.38328 7.60829L5.38454 7.60955ZM4.66517 8.99537H13.6667V13.9969H4.66517V13.3292H4.99776C5.51178 13.3292 5.99934 12.9815 5.99934 12.4599V10.5324C5.99934 10.0108 5.51178 9.66309 4.99776 9.66309H4.66517V8.99537ZM14.3332 8.99537H19.6951C19.9798 10.705 20.3288 13.3255 20.3326 13.3544V13.9969H14.3332V8.99537ZM7.53257 9.66309C7.30276 9.66475 7.08287 9.75694 6.92061 9.91968C6.75834 10.0824 6.66678 10.3026 6.6658 10.5324V12.4637C6.6658 12.9387 7.05635 13.3292 7.53257 13.3292H12.131C12.606 13.3292 13.0003 12.9387 13.0003 12.4637V10.5324C12.9986 10.3023 12.9065 10.0822 12.7439 9.91952C12.5812 9.75686 12.361 9.66474 12.131 9.66309H7.53257ZM15.8715 9.66309C15.6405 9.66409 15.4192 9.75647 15.2561 9.92006C15.093 10.0837 15.0012 10.3051 15.0009 10.5362V12.4562C15.0006 12.6872 15.0919 12.9089 15.2549 13.0726C15.4179 13.2362 15.6392 13.3286 15.8702 13.3292H19.3335C19.3826 13.3289 19.431 13.3177 19.4752 13.2965C19.5195 13.2752 19.5585 13.2445 19.5895 13.2065C19.6206 13.1685 19.6429 13.1241 19.6548 13.0765C19.6667 13.0289 19.668 12.9793 19.6586 12.9311C19.6586 12.9311 19.3398 11.3286 19.1974 10.4039C19.1657 10.1982 19.0615 10.0106 18.9038 9.87481C18.7461 9.73902 18.5451 9.66395 18.337 9.66309H15.8715ZM2.83209 10.3308C3.14454 10.3308 3.44186 10.4518 3.65981 10.6647C3.87776 10.8788 3.99871 11.1661 3.99871 11.4647V15.1976C3.99707 15.3487 3.96552 15.4979 3.90588 15.6368C3.84624 15.7756 3.75968 15.9012 3.65121 16.0064C3.54274 16.1116 3.41451 16.1943 3.27392 16.2496C3.13333 16.305 2.98316 16.3319 2.83209 16.3289C2.52344 16.3293 2.22686 16.209 2.00564 15.9938C1.8986 15.8906 1.81334 15.7669 1.75492 15.6301C1.69649 15.4934 1.66608 15.3463 1.66548 15.1976V11.4621C1.66548 10.836 2.18076 10.3308 2.83209 10.3308ZM4.66517 10.3308H4.99776C5.22328 10.3308 5.33288 10.4618 5.33288 10.5324V12.4599C5.33288 12.5318 5.22328 12.6628 4.99776 12.6628H4.66517V10.3308ZM7.53257 10.3308H12.131C12.2482 10.3308 12.3326 10.4152 12.3326 10.5324V12.4637C12.3335 12.4903 12.3288 12.5168 12.319 12.5415C12.3092 12.5663 12.2943 12.5887 12.2754 12.6074C12.2564 12.6261 12.2338 12.6407 12.209 12.6502C12.1841 12.6597 12.1576 12.664 12.131 12.6628H7.53383C7.5073 12.664 7.4808 12.6597 7.45602 12.6502C7.43123 12.6406 7.40871 12.626 7.38987 12.6073C7.37103 12.5886 7.35629 12.5662 7.34659 12.5414C7.33689 12.5167 7.33243 12.4903 7.33351 12.4637V10.5324C7.33351 10.4152 7.41666 10.3308 7.53383 10.3308H7.53257ZM15.8715 10.3308H18.337C18.3864 10.3297 18.4345 10.3468 18.4721 10.3789C18.5097 10.4109 18.5343 10.4557 18.5411 10.5047C18.6658 11.3135 18.8611 12.2886 18.9341 12.6628H15.8715C15.8444 12.6632 15.8175 12.6582 15.7924 12.6481C15.7673 12.6379 15.7445 12.6227 15.7253 12.6036C15.6866 12.5643 15.6649 12.5113 15.6648 12.4562V10.5362C15.6655 10.4816 15.6875 10.4294 15.7261 10.3908C15.7647 10.3522 15.8169 10.3315 15.8715 10.3308ZM20.999 13.6782C21.5823 13.7059 26.8825 13.9604 28.8932 14.0826C29.183 14.1154 29.3341 14.2338 29.3341 14.4404V16.407L28.1751 15.7116C28.1233 15.6792 28.0636 15.6618 28.0025 15.6612H24.2696C24.194 15.6612 24.1197 15.6877 24.0604 15.7368L21.217 17.9969H14.2715L11.9685 15.7582C11.9063 15.697 11.8226 15.6626 11.7354 15.6625H7.7354C7.68905 15.6621 7.64314 15.6715 7.60062 15.6899C7.5581 15.7084 7.5199 15.7355 7.48847 15.7695L5.45509 17.9969H4.66391V14.6621H13.6655V15.6625C13.6655 16.5796 14.4138 17.3305 15.331 17.3305H19.3323C20.2494 17.3305 20.9978 16.5796 20.9978 15.6625L20.999 13.6782ZM14.3332 14.6634H20.3326V15.6625C20.3339 15.7942 20.309 15.9248 20.2593 16.0467C20.2096 16.1687 20.1361 16.2795 20.0431 16.3728C19.9501 16.466 19.8394 16.5398 19.7176 16.5898C19.5958 16.6398 19.4652 16.665 19.3335 16.664H15.3323C15.2006 16.665 15.07 16.6398 14.9482 16.5898C14.8263 16.5398 14.7157 16.466 14.6227 16.3728C14.5297 16.2795 14.4562 16.1687 14.4065 16.0467C14.3568 15.9248 14.3319 15.7942 14.3332 15.6625V14.6634ZM30.0006 14.6634H30.3319V15.9963H30.0006V14.6634ZM7.88154 16.3277H11.5993L13.3165 17.9957H12.6022C11.8559 17.3099 10.8793 16.9293 9.8658 16.9293C8.85227 16.9293 7.87569 17.3099 7.12942 17.9957H6.35839L7.88154 16.3277ZM24.3855 16.3277H27.9093L29.1981 17.1025L28.7118 17.8508C27.9581 17.2292 27.0049 16.9014 26.0283 16.928C25.0517 16.9546 24.1177 17.3339 23.399 17.9957H22.2878L24.3855 16.3277ZM9.86453 17.5963C11.7467 17.5963 13.2661 19.1144 13.2661 20.9979C13.2661 22.8788 11.7467 24.3969 9.86453 24.3969C9.41798 24.3974 8.97571 24.3098 8.56308 24.1391C8.15046 23.9683 7.77558 23.7179 7.45993 23.402C7.14428 23.0861 6.89407 22.711 6.72364 22.2983C6.55321 21.8855 6.46591 21.4432 6.46674 20.9966C6.46674 19.1144 7.98359 17.5963 9.86453 17.5963ZM26.1367 17.5963C28.0189 17.5963 29.5382 19.1144 29.5382 20.9979C29.5382 22.8788 28.0189 24.3969 26.1367 24.3969C24.2545 24.3969 22.7351 22.8788 22.7351 20.9966C22.7351 19.1144 24.2557 17.5963 26.1367 17.5963ZM9.86453 18.5286C9.22959 18.5573 8.63017 18.8297 8.19101 19.2892C7.75185 19.7487 7.50677 20.3598 7.50677 20.9954C7.50677 21.631 7.75185 22.2421 8.19101 22.7015C8.63017 23.161 9.22959 23.4334 9.86453 23.4621C11.2239 23.4621 12.3326 22.3547 12.3326 20.9966C12.3326 19.6385 11.2239 18.5286 9.86453 18.5286ZM26.1341 18.5286C24.776 18.5286 23.6661 19.6373 23.6661 20.9979C23.6661 22.3585 24.776 23.4621 26.1354 23.4621C27.4935 23.4621 28.5997 22.3547 28.5997 20.9966C28.5997 19.6385 27.4935 18.5286 26.1341 18.5286ZM3.99871 18.6647H6.53855C6.32438 18.9695 6.15304 19.3047 6.02831 19.6625H3.99871V18.6647ZM13.1905 18.6647H22.8107C22.5965 18.9695 22.4239 19.3047 22.2992 19.6625H13.7033C13.5794 19.3077 13.4068 18.9719 13.1905 18.6647ZM29.4614 18.6647H30.3357V19.6625H29.9729C29.8469 19.3047 29.6756 18.9695 29.4614 18.6647ZM9.86453 19.1951C10.8636 19.1951 11.6661 19.9988 11.6661 20.9966C11.6661 21.9944 10.8636 22.7957 9.86453 22.7957C9.62815 22.7964 9.39397 22.7503 9.17547 22.6601C8.95697 22.5699 8.75846 22.4374 8.59137 22.2702C8.42428 22.103 8.29191 21.9044 8.20187 21.6858C8.11183 21.4672 8.06591 21.233 8.06674 20.9966C8.06674 19.9988 8.86674 19.1951 9.86453 19.1951ZM26.1341 19.1951C27.1332 19.1951 27.9332 19.9988 27.9332 20.9966C27.9332 21.9944 27.1332 22.7957 26.1341 22.7957C25.1363 22.7957 24.3326 21.9944 24.3326 20.9966C24.3326 19.9988 25.1363 19.1951 26.1341 19.1951ZM9.86705 19.8628C9.56708 19.8644 9.2799 19.9845 9.06802 20.1969C8.85614 20.4092 8.73671 20.6967 8.73572 20.9966C8.73572 21.619 9.24469 22.1292 9.86705 22.1292C10.4894 22.1292 11.0009 21.619 11.0009 20.9966C11.0009 20.3743 10.4894 19.8628 9.86705 19.8628ZM26.1341 19.8628C25.513 19.8628 25.0003 20.3743 25.0003 20.9966C25.0003 21.619 25.513 22.1292 26.1341 22.1292C26.434 22.1279 26.7212 22.0081 26.9331 21.796C27.145 21.5838 27.2645 21.2965 27.2655 20.9966C27.2655 20.3743 26.7565 19.8628 26.1341 19.8628ZM9.86705 20.5305C10.1291 20.5305 10.3357 20.7346 10.3357 20.9966C10.3362 21.0583 10.3244 21.1194 10.301 21.1764C10.2777 21.2334 10.2431 21.2852 10.1995 21.3287C10.1559 21.3722 10.104 21.4066 10.0469 21.4298C9.98982 21.4531 9.92868 21.4647 9.86705 21.464C9.80576 21.4645 9.74498 21.4528 9.68826 21.4296C9.63155 21.4063 9.58004 21.372 9.53676 21.3286C9.49347 21.2852 9.45928 21.2336 9.43617 21.1768C9.41306 21.12 9.4015 21.0592 9.40217 20.9979C9.40217 20.7346 9.60501 20.5305 9.86705 20.5305ZM26.1341 20.5305C26.3962 20.5305 26.6015 20.7346 26.6015 20.9966C26.602 21.058 26.5903 21.1189 26.5671 21.1758C26.5439 21.2327 26.5096 21.2843 26.4662 21.3278C26.4228 21.3713 26.3713 21.4057 26.3145 21.4291C26.2577 21.4525 26.1968 21.4644 26.1354 21.464C26.0739 21.4647 26.0128 21.4531 25.9558 21.43C25.8988 21.4068 25.847 21.3725 25.8034 21.3292C25.7598 21.2858 25.7252 21.2341 25.7018 21.1773C25.6783 21.1204 25.6664 21.0594 25.6667 20.9979C25.6667 20.7346 25.8734 20.5305 26.1341 20.5305Z" fill="black"/>
</svg>
