<svg width="50" height="40" viewBox="0 0 50 40" fill="none" xmlns="http://www.w3.org/2000/svg">
    <g clip-path="url(#clip0_498_16749)">
        <path d="M6.3041 14.0452L3.68408 17.2077H1.01797C0.093164 17.2077 -0.65918 17.8095 -0.65918 18.5494C-0.65918 19.29 0.093164 19.8919 1.01797 19.8919H1.44531L0.180371 21.3877C0.0922164 21.4916 0.0501969 21.6162 0.0610352 21.7416L0.878516 31.1511V32.6846C0.878516 33.8473 2.06113 34.7934 3.51455 34.7934H6.93193C8.38535 34.7934 9.56797 33.8473 9.56797 32.6846V31.6976H17.9305V28.2149H13.7286L12.4628 25.7947H17.9305V21.1405H2.08623L3.34805 19.6479C3.3501 19.6455 3.35303 19.643 3.35508 19.6398L7.47471 14.6655C7.89902 14.1527 8.55703 13.8702 9.32637 13.8702H17.9307V12.7468H9.32627C8.08848 12.7469 6.98721 13.2203 6.3041 14.0452ZM2.78135 24.8093V23.3809C2.78135 23.21 2.87861 23.0479 3.04619 22.9412C3.12879 22.8885 3.2252 22.8515 3.32821 22.8329C3.43121 22.8143 3.53815 22.8145 3.64102 22.8337L8.51084 23.73C8.66728 23.7587 8.80674 23.8293 8.90601 23.9302C9.00529 24.0311 9.05841 24.1561 9.05654 24.2845L9.02441 26.2201C9.02308 26.3098 8.99488 26.3979 8.94217 26.4771C8.88946 26.5562 8.81378 26.6241 8.72148 26.6751C8.60423 26.7401 8.46492 26.7748 8.32227 26.7746C8.2408 26.7749 8.15992 26.7635 8.0835 26.7409L3.24375 25.3381C3.10815 25.2986 2.99104 25.2266 2.90832 25.132C2.82559 25.0374 2.78127 24.9248 2.78135 24.8093ZM40.6179 28.1066C40.6219 28.1082 40.6269 28.1098 40.631 28.1114C40.6359 28.113 40.641 28.1138 40.646 28.1154L41.9038 28.515L40.0942 29.4354L39.5666 27.7727L40.6179 28.1066ZM47.0756 16.6331L48.3244 17.0295L45.6593 22.4035C45.6562 22.4084 45.6543 22.4131 45.6513 22.418L43.0474 27.6684L41.8016 27.2735L47.0756 16.6331ZM45.7706 16.2191L40.4965 26.8588L39.4593 26.5298L44.7344 15.8902L45.7706 16.2191ZM49.2432 15.1783L48.843 15.9848L45.252 14.8461L45.6521 14.0388C45.6832 14.0437 45.7214 14.0516 45.7635 14.0653L49.1357 15.1334C49.179 15.1478 49.215 15.163 49.2432 15.1783ZM43.8176 28.8729L40.03 30.7996C39.9365 30.8476 39.8299 30.877 39.7193 30.8854C39.6087 30.8937 39.4972 30.8808 39.394 30.8477C39.2909 30.815 39.1989 30.7632 39.1257 30.6965C39.0525 30.6298 39 30.5502 38.9728 30.4641L38.3519 28.5102H31.9021C31.514 28.5102 31.2 28.259 31.2 27.9484C31.2 27.6379 31.514 27.3867 31.9021 27.3867H37.9947L37.8663 26.9839C37.8298 26.8691 37.8396 26.7481 37.8944 26.638L41.2968 19.7755H31.9021C31.5139 19.7755 31.1999 19.5243 31.1999 19.2138C31.1999 18.9032 31.5139 18.652 31.9021 18.652H41.8534L43.676 14.976C43.68 14.9688 43.682 14.9608 43.686 14.9535C43.69 14.9455 43.694 14.9383 43.698 14.931L44.4253 13.4657C44.4253 13.4649 44.4253 13.4641 44.4263 13.4641C44.5296 13.257 44.7372 13.0909 45.011 12.9978C45.1895 12.936 45.3912 12.9071 45.6008 12.9095V6.30078H19.3349V33.6691H45.6011V25.566L44.0935 28.6065C44.0386 28.7162 43.9421 28.8094 43.8176 28.8729ZM31.9022 9.83805H42.1465C42.2387 9.838 42.33 9.85249 42.4153 9.8807C42.5005 9.90891 42.5779 9.95028 42.6431 10.0025C42.7083 10.0546 42.7601 10.1166 42.7953 10.1847C42.8306 10.2529 42.8487 10.326 42.8486 10.3998C42.8486 10.5487 42.7746 10.6916 42.643 10.7969C42.5113 10.9023 42.3327 10.9615 42.1465 10.9615H31.9022C31.716 10.9615 31.5375 10.9023 31.4058 10.7969C31.2741 10.6916 31.2001 10.5487 31.2001 10.3998C31.2 10.326 31.2181 10.2529 31.2534 10.1847C31.2886 10.1166 31.3404 10.0546 31.4056 10.0024C31.4708 9.95026 31.5482 9.90889 31.6335 9.88068C31.7187 9.85247 31.81 9.83799 31.9022 9.83805ZM31.9022 11.4052H36.8925C37.0767 11.4077 37.2523 11.468 37.3815 11.573C37.5106 11.6781 37.583 11.8196 37.583 11.967C37.583 12.1143 37.5106 12.2558 37.3815 12.3609C37.2523 12.466 37.0767 12.5262 36.8925 12.5287H31.9022C31.81 12.5287 31.7187 12.5142 31.6335 12.486C31.5483 12.4578 31.4708 12.4164 31.4056 12.3643C31.3404 12.3121 31.2887 12.2501 31.2534 12.182C31.2182 12.1138 31.2 12.0407 31.2001 11.967C31.2 11.8932 31.2181 11.8201 31.2534 11.7519C31.2886 11.6837 31.3404 11.6218 31.4056 11.5696C31.4708 11.5174 31.5482 11.4761 31.6335 11.4479C31.7187 11.4197 31.81 11.4052 31.9022 11.4052ZM31.9022 20.2193H36.8925C37.0767 20.2218 37.2523 20.282 37.3815 20.3871C37.5106 20.4922 37.583 20.6336 37.583 20.781C37.583 20.9284 37.5106 21.0699 37.3815 21.1749C37.2523 21.28 37.0767 21.3403 36.8925 21.3427H31.9022C31.5141 21.3427 31.2001 21.0916 31.2001 20.781C31.2001 20.4705 31.5141 20.2193 31.9022 20.2193ZM22.2929 19.0405C22.2275 18.9884 22.1757 18.9264 22.1403 18.8582C22.105 18.7899 22.0868 18.7168 22.0868 18.6429C22.0868 18.5691 22.105 18.4959 22.1403 18.4277C22.1757 18.3595 22.2275 18.2975 22.2929 18.2453C22.5667 18.0263 23.012 18.0263 23.2859 18.2453L24.4815 19.2018L25.6762 18.2453C25.95 18.0263 26.3953 18.0263 26.6692 18.2453C26.7346 18.2975 26.7864 18.3595 26.8218 18.4277C26.8571 18.4959 26.8753 18.5691 26.8753 18.6429C26.8753 18.7168 26.8571 18.7899 26.8218 18.8582C26.7864 18.9264 26.7346 18.9884 26.6692 19.0405L25.4746 19.9963L26.6692 20.9527C26.944 21.1718 26.944 21.5273 26.6692 21.7472C26.5328 21.8571 26.3522 21.9117 26.1728 21.9117C25.9933 21.9117 25.8137 21.8571 25.6763 21.7472L24.4816 20.7907L23.286 21.7472C23.1486 21.8571 22.969 21.9117 22.7896 21.9117C22.6101 21.9117 22.4305 21.8571 22.2931 21.7472C22.0183 21.5273 22.0183 21.1718 22.2931 20.9527L23.4877 19.9963L22.2929 19.0405ZM27.1025 27.573L24.31 30.2572C24.2442 30.3206 24.1617 30.3717 24.0684 30.4068C23.9752 30.4419 23.8734 30.4601 23.7703 30.4602H23.7683C23.6648 30.4599 23.5627 30.4413 23.4693 30.4058C23.3758 30.3703 23.2933 30.3187 23.2276 30.2548L21.8564 28.9195C21.7384 28.8041 21.6823 28.6561 21.7005 28.5077C21.7187 28.3594 21.8098 28.2229 21.9537 28.1282C22.0978 28.0337 22.2829 27.9889 22.4684 28.0035C22.6538 28.018 22.8244 28.0909 22.9428 28.206L23.7733 29.0157L26.0222 26.8547C26.0811 26.7979 26.1534 26.751 26.235 26.7166C26.3166 26.6822 26.4059 26.661 26.4978 26.6542C26.5896 26.6474 26.6823 26.6552 26.7704 26.677C26.8585 26.6989 26.9403 26.7345 27.0112 26.7816C27.0822 26.8288 27.1409 26.8867 27.1839 26.952C27.2269 27.0172 27.2534 27.0887 27.2619 27.1622C27.2703 27.2357 27.2606 27.3098 27.2333 27.3802C27.206 27.4507 27.1615 27.5162 27.1025 27.573ZM27.4888 10.2015L24.6992 12.8833C24.6333 12.9466 24.5508 12.9976 24.4576 13.0325C24.3643 13.0675 24.2626 13.0855 24.1596 13.0855H24.1575C24.0541 13.0854 23.952 13.067 23.8586 13.0316C23.7651 12.9962 23.6826 12.9447 23.6169 12.8809L22.2467 11.5455C21.9999 11.3056 22.044 10.9517 22.3439 10.7543C22.6429 10.5577 23.0862 10.5922 23.3319 10.8321L24.1635 11.6418L26.4094 9.48242C26.6571 9.24406 27.1005 9.21203 27.3984 9.41023C27.6964 9.60844 27.7375 9.9632 27.4888 10.2015ZM36.8925 30.0758H31.9022C31.5141 30.0758 31.2001 29.8238 31.2001 29.5133C31.2001 29.3643 31.2741 29.2214 31.4058 29.1161C31.5375 29.0108 31.716 28.9516 31.9022 28.9516H36.8925C37.0786 28.9517 37.2571 29.011 37.3887 29.1163C37.5204 29.2216 37.5944 29.3644 37.5946 29.5133C37.5946 29.8238 37.2796 30.0758 36.8925 30.0758Z" fill="#559090"/>
    </g>
    <defs>
        <clipPath id="clip0_498_16749">
            <rect width="50" height="40" fill="white"/>
        </clipPath>
    </defs>
</svg>
