<svg width="124" height="124" viewBox="0 0 124 124" fill="none" xmlns="http://www.w3.org/2000/svg">
    <path d="M48.9781 6.74924C55.3273 -2.24974 68.6727 -2.24975 75.0219 6.74924L75.4298 7.32744C78.9766 12.3545 85.1003 14.8911 91.163 13.8443L91.8603 13.724C102.713 11.8503 112.15 21.2869 110.276 32.1397L110.156 32.837C109.109 38.8997 111.645 45.0234 116.673 48.5702L117.251 48.9781C126.25 55.3273 126.25 68.6727 117.251 75.0219L116.673 75.4298C111.645 78.9766 109.109 85.1003 110.156 91.163L110.276 91.8603C112.15 102.713 102.713 112.15 91.8603 110.276L91.163 110.156C85.1003 109.109 78.9766 111.645 75.4298 116.673L75.0219 117.251C68.6727 126.25 55.3273 126.25 48.9781 117.251L48.5702 116.673C45.0234 111.645 38.8997 109.109 32.837 110.156L32.1397 110.276C21.2869 112.15 11.8503 102.713 13.724 91.8603L13.8443 91.163C14.8911 85.1003 12.3545 78.9766 7.32744 75.4298L6.74924 75.0219C-2.24975 68.6727 -2.24975 55.3273 6.74924 48.9781L7.32744 48.5702C12.3545 45.0234 14.8911 38.8997 13.8443 32.837L13.724 32.1397C11.8503 21.2869 21.2869 11.8503 32.1397 13.724L32.837 13.8443C38.8997 14.8911 45.0234 12.3545 48.5702 7.32745L48.9781 6.74924Z" fill="#E6EBE9"/>
    <path d="M84.4734 41.4736C85.9137 40.0334 88.2488 40.0335 89.6892 41.4736C91.1296 42.9141 91.1296 45.25 89.6892 46.6904L53.8562 82.5234C53.2087 83.1743 52.3426 83.5546 51.4324 83.5996L51.2498 83.6045H51.2341C50.2526 83.5996 49.3135 83.2064 48.6208 82.5039H48.6199L34.2869 67.9482V67.9473C32.856 66.4956 32.8773 64.1614 34.3259 62.7324L34.3269 62.7314C35.7758 61.3071 38.1145 61.3193 39.5427 62.7715L51.2654 74.6807L84.4734 41.4736Z" fill="#335B4C" stroke="#335B4C" stroke-width="2"/>
</svg>
