<svg width="50" height="50" viewBox="0 0 50 50" fill="none" xmlns="http://www.w3.org/2000/svg">
    <path fill-rule="evenodd" clip-rule="evenodd" d="M36.6321 30.369H30.3576C29.4579 30.369 29.4579 28.9965 30.3576 28.9965H36.6321V25.0518H28.0392C27.128 25.0518 27.128 23.6908 28.0392 23.6908H36.6321V19.4002C36.6321 18.3275 35.767 17.4624 34.6944 17.4624H6.1707C5.10957 17.4624 4.23299 18.3275 4.23299 19.4002V23.6908H12.8374C13.737 23.6908 13.737 25.0518 12.8374 25.0518H4.23299V28.9965H10.519C11.4187 28.9965 11.4187 30.369 10.519 30.369H4.23299V38.5005C4.23299 39.5616 5.10957 40.4382 6.1707 40.4382H12.1223V35.1556C12.1223 33.5178 13.4602 32.1799 15.098 32.1799H17.5779V31.8223C16.0554 30.865 15.0404 29.1695 15.0404 27.2433L15.0288 20.519C15.0288 19.504 15.8478 18.685 16.8627 18.685H24.0023C25.0058 18.685 25.8247 19.504 25.8247 20.519L25.8362 27.2433C25.8362 29.1695 24.8212 30.865 23.2987 31.8223V32.1799H25.767C27.4048 32.1799 28.7428 33.5178 28.7428 35.1556V40.4382H34.6944C35.767 40.4382 36.6321 39.5616 36.6321 38.5005V30.369ZM34.6944 44.6712H6.1707C2.76817 44.6712 0 41.8915 0 38.5005V19.4002C0 15.9976 2.76817 13.2295 6.1707 13.2295H8.8812C9.15802 13.1026 9.44637 13.0103 9.73472 12.9296L37.2895 5.54779C40.5767 4.65967 43.9677 6.62046 44.8443 9.90765L49.7809 28.3506C50.669 31.6378 48.7082 35.0288 45.421 35.9053L40.8651 37.1395V38.5005C40.8651 41.8915 38.0969 44.6712 34.6944 44.6712ZM40.8651 34.1752V35.7208L45.075 34.5905C47.624 33.91 49.158 31.2687 48.466 28.7081L43.5294 10.2652C42.8489 7.70465 40.1961 6.1937 37.6355 6.8742L13.91 13.2295H19.7001L38.0277 8.31596C39.7924 7.84306 41.6148 8.89266 42.0877 10.6574L47.0242 29.1003C47.4971 30.8534 46.4475 32.6758 44.6828 33.1487L40.8651 34.1752ZM6.1707 14.5905C3.52941 14.5905 1.37255 16.7473 1.37255 19.4002V38.5005C1.37255 41.1418 3.52941 43.2987 6.1707 43.2987H34.6944C37.3472 43.2987 39.504 41.1418 39.504 38.5005V19.4002C39.504 16.7473 37.3472 14.5905 34.6944 14.5905H6.1707ZM38.0046 29.677V38.5005C38.0046 40.3229 36.5167 41.7992 34.6944 41.7992H6.1707C4.34833 41.7992 2.87197 40.3229 2.87197 38.5005V19.4002C2.87197 17.5778 4.34833 16.0899 6.1707 16.0899H34.6944C36.5167 16.0899 38.0046 17.5778 38.0046 19.4002V29.677ZM24.9827 13.2295H34.6944C38.0969 13.2295 40.8651 15.9976 40.8651 19.4002V32.7566L44.3253 31.8338C45.3633 31.557 45.9746 30.4844 45.6978 29.4463L40.7612 11.0149C40.4844 9.97686 39.4118 9.36555 38.3852 9.64237L24.9827 13.2295ZM18.9389 34.083C18.9965 36.0207 21.9262 35.9861 21.9262 34.0484V32.4336C20.9573 32.7104 19.9077 32.7104 18.9389 32.4336V34.083ZM13.4948 40.4382H15.3403V38.4544C15.3403 37.5547 16.7128 37.5547 16.7128 38.4544V40.4382H24.1638V38.4544C24.1638 37.5547 25.5248 37.5547 25.5248 38.4544V40.4382H27.3818V35.1556C27.3818 34.2675 26.6551 33.5409 25.767 33.5409H23.2987C23.2987 34.5674 23.2411 35.3056 22.4106 36.113C20.6344 37.8315 17.5779 36.5743 17.5779 34.0484V33.5409H15.1096C14.2215 33.5409 13.4948 34.2675 13.4948 35.1556V40.4382ZM20.4383 31.2802C22.6067 31.2802 24.4637 29.5155 24.4637 27.2433V25.5017C23.3449 25.5017 22.8258 24.8327 22.8258 23.7485H18.0392C18.0392 24.8211 17.5317 25.5017 16.4014 25.5017V27.2433C16.4014 29.4578 18.2468 31.2802 20.4383 31.2802ZM23.5294 22.3759C24.6713 22.399 23.9216 24.1406 24.3368 24.1406H24.4637V20.519C24.4637 20.2652 24.2561 20.0576 24.0023 20.0576H16.8743C16.609 20.0576 16.4014 20.2652 16.4014 20.519V24.1406C16.7589 24.1406 16.6782 24.1752 16.6782 23.0564C16.6782 22.6874 16.9781 22.3759 17.3587 22.3759H23.5294Z" fill="#EFF5F5"/>
    <path fill-rule="evenodd" clip-rule="evenodd" d="M30.3575 28.9969H36.632V25.0523H28.0391C27.128 25.0523 27.128 23.6913 28.0391 23.6913H36.632V19.4006C36.632 18.3279 35.7669 17.4629 34.6943 17.4629H6.17063C5.1095 17.4629 4.23291 18.3279 4.23291 19.4006V23.6913H12.8373C13.7369 23.6913 13.7369 25.0523 12.8373 25.0523H4.23291V28.9969H10.519C11.4186 28.9969 11.4186 30.3695 10.519 30.3695H4.23291V38.5009C4.23291 39.5621 5.1095 40.4387 6.17063 40.4387H12.1222V35.1561C12.1222 33.5183 13.4601 32.1803 15.098 32.1803H17.5778V31.8228C16.0553 30.8654 15.0403 29.1699 15.0403 27.2437L15.0288 20.5194C15.0288 19.5044 15.8477 18.6855 16.8627 18.6855H24.0022C25.0057 18.6855 25.8246 19.5044 25.8246 20.5194L25.8361 27.2437C25.8361 29.1699 24.8211 30.8654 23.2987 31.8228V32.1803H25.7669C27.4048 32.1803 28.7427 33.5183 28.7427 35.1561V40.4387H34.6943C35.7669 40.4387 36.632 39.5621 36.632 38.5009V30.3695H30.3575C29.4578 30.3695 29.4578 28.9969 30.3575 28.9969Z" fill="#5D9E9E"/>
    <path fill-rule="evenodd" clip-rule="evenodd" d="M20.4383 31.2798C22.6067 31.2798 24.4637 29.5151 24.4637 27.2429V25.5012C23.3449 25.5012 22.8258 24.8322 22.8258 23.748H18.0392C18.0392 24.8207 17.5317 25.5012 16.4014 25.5012V27.2429C16.4014 29.4574 18.2468 31.2798 20.4383 31.2798Z" fill="#5D9E9E"/>
    <path fill-rule="evenodd" clip-rule="evenodd" d="M17.3587 22.375H23.5294C24.6713 22.398 23.9216 24.1397 24.3368 24.1397H24.4637V20.518C24.4637 20.2643 24.256 20.0566 24.0023 20.0566H16.8743C16.609 20.0566 16.4014 20.2643 16.4014 20.518V24.1397C16.7589 24.1397 16.6782 24.1743 16.6782 23.0555C16.6782 22.6864 16.9781 22.375 17.3587 22.375ZM21.9262 32.4326C20.9573 32.7095 19.9077 32.7095 18.9389 32.4326V34.082C18.9965 36.0197 21.9262 35.9851 21.9262 34.0474V32.4326Z" fill="#5D9E9E"/>
    <path fill-rule="evenodd" clip-rule="evenodd" d="M23.2988 33.541C23.2988 34.5675 23.2411 35.3057 22.4107 36.1131C20.6344 37.8317 17.5779 36.5745 17.5779 34.0485V33.541H15.1096C14.2215 33.541 13.4949 34.2677 13.4949 35.1558V40.4384H15.3403V38.4545C15.3403 37.5549 16.7129 37.5549 16.7129 38.4545V40.4384H24.1638V38.4545C24.1638 37.5549 25.5249 37.5549 25.5249 38.4545V40.4384H27.3818V35.1558C27.3818 34.2677 26.6552 33.541 25.7671 33.541H23.2988Z" fill="#5D9E9E"/>
    <path fill-rule="evenodd" clip-rule="evenodd" d="M38.0046 19.3995V38.4999C38.0046 40.3223 36.5167 41.7986 34.6944 41.7986H6.17071C4.34834 41.7986 2.87198 40.3223 2.87198 38.4999V19.3995C2.87198 17.5772 4.34834 16.0893 6.17071 16.0893H34.6944C36.5167 16.0893 38.0046 17.5772 38.0046 19.3995ZM6.17071 43.298H34.6944C37.3472 43.298 39.504 41.1412 39.504 38.4999V19.3995C39.504 16.7467 37.3472 14.5898 34.6944 14.5898H6.17071C3.52942 14.5898 1.37256 16.7467 1.37256 19.3995V38.4999C1.37256 41.1412 3.52942 43.298 6.17071 43.298Z" fill="#5D9E9E"/>
    <path fill-rule="evenodd" clip-rule="evenodd" d="M40.865 19.4005V32.7569L44.3252 31.8342C45.3633 31.5574 45.9746 30.4847 45.6978 29.4467L40.7612 11.0153C40.4844 9.97723 39.4117 9.36593 38.3852 9.64274L24.9827 13.2298H34.6943C38.0969 13.2298 40.865 15.998 40.865 19.4005Z" fill="#5D9E9E"/>
    <path fill-rule="evenodd" clip-rule="evenodd" d="M42.0878 10.6571L47.0243 29.1C47.4972 30.8532 46.4476 32.6756 44.6829 33.1485L40.8652 34.175V35.7206L45.0751 34.5902C47.6241 33.9097 49.1581 31.2684 48.4661 28.7079L43.5295 10.265C42.849 7.70443 40.1962 6.19347 37.6356 6.87398L13.9102 13.2292H19.7002L38.0278 8.31573C39.7925 7.84284 41.6149 8.89244 42.0878 10.6571Z" fill="#5D9E9E"/>
</svg>
