<svg width="50" height="30" viewBox="0 0 50 30" fill="none" xmlns="http://www.w3.org/2000/svg">
    <path d="M0 0.909107V29.0909C0 29.593 0.450391 30 1.00605 30H48.9939C49.5496 30 50 29.593 50 29.0909V0.909107C50 0.406989 49.5496 0 48.9939 0H1.00605C0.450391 0 0 0.406989 0 0.909107Z" fill="#B4D2D2"/>
    <path d="M48.9939 0H46.4038C46.9594 0 47.4099 0.406989 47.4099 0.909107V26.683C47.4099 27.2306 46.9187 27.6745 46.3126 27.6745H1.00605C0.450391 27.6745 0 27.2676 0 26.7654V29.0909C0 29.593 0.450391 30 1.00605 30H48.9939C49.5496 30 50 29.593 50 29.0909V0.909107C50 0.406989 49.5496 0 48.9939 0Z" fill="#B4D2D2"/>
    <path d="M16.5807 26.5279H4.50986C4.42981 26.5279 4.35303 26.4992 4.29642 26.448C4.23981 26.3969 4.20801 26.3275 4.20801 26.2551V21.6097C4.20801 20.8922 4.85166 20.3105 5.6457 20.3105H15.4447C16.2388 20.3105 16.8824 20.8922 16.8824 21.6097V26.2551C16.8824 26.2909 16.8746 26.3264 16.8595 26.3595C16.8443 26.3926 16.8221 26.4227 16.7941 26.448C16.7661 26.4733 16.7328 26.4934 16.6962 26.5071C16.6595 26.5208 16.6203 26.5279 16.5807 26.5279Z" fill="#77D1B3"/>
    <path d="M15.4445 20.3105H13.1284C13.9225 20.3105 14.5661 20.8922 14.5661 21.6097V26.2551C14.5661 26.3275 14.5343 26.3969 14.4777 26.448C14.4211 26.4992 14.3443 26.5279 14.2643 26.5279H16.5804C16.6604 26.5279 16.7372 26.4992 16.7938 26.448C16.8504 26.3969 16.8822 26.3275 16.8822 26.2551V21.6097C16.8822 20.8922 16.2386 20.3105 15.4445 20.3105Z" fill="#67B59F"/>
    <path d="M16.5568 4.79298C15.6785 3.99903 14.3889 3.66317 13.1465 3.66802C11.4865 3.67455 9.66904 4.29854 8.63701 5.51491C8.37744 5.82086 7.97715 6.00221 7.55059 6.00221H6.93594C5.5459 6.00221 4.41895 7.02047 4.41895 8.27665V13.8882H16.8236V8.59575C16.8236 8.45773 16.8748 8.32413 16.966 8.21338C17.817 7.18046 17.5492 5.68999 16.5568 4.79298Z" fill="#766D78"/>
    <path d="M12.0798 20.9767L10.8554 21.7263C10.7638 21.7824 10.6557 21.8124 10.5451 21.8124C10.4344 21.8124 10.3264 21.7824 10.2348 21.7263L9.01045 20.9768C8.93563 20.931 8.87437 20.8693 8.83203 20.7971C8.78969 20.725 8.76756 20.6446 8.76758 20.5629V15.4238H12.3228V20.5629C12.3227 20.6446 12.3005 20.7249 12.2582 20.7971C12.2158 20.8692 12.1546 20.9309 12.0798 20.9767Z" fill="#EBAE9D"/>
    <path d="M16.2399 14.9663H4.85039C4.22353 14.9663 3.71533 14.5071 3.71533 13.9406V13.3929C3.71533 12.8264 4.22353 12.3672 4.85039 12.3672H16.2399C16.8668 12.3672 17.375 12.8264 17.375 13.3929V13.9406C17.3751 14.5071 16.8669 14.9663 16.2399 14.9663Z" fill="#FFCDBE"/>
    <path d="M14.3652 9.98873V14.8754C14.3652 16.704 12.7248 18.1863 10.7012 18.1863H10.3893C8.36519 18.1863 6.72534 16.7036 6.72534 14.8754V11.3473C6.72534 10.3109 7.45376 9.42731 8.4728 9.0918C10.0226 9.56515 12.3661 9.92625 13.991 9.69796C14.188 9.67025 14.3652 9.80853 14.3652 9.98873Z" fill="#FFCDBE"/>
    <path d="M24.2213 3.56783V6.30442C24.2213 6.36412 24.2343 6.42323 24.2596 6.47839C24.2848 6.53354 24.3219 6.58365 24.3686 6.62586C24.4153 6.66808 24.4708 6.70156 24.5318 6.7244C24.5928 6.74724 24.6583 6.75899 24.7243 6.75898H45.3208C45.3869 6.75899 45.4523 6.74724 45.5133 6.7244C45.5744 6.70156 45.6298 6.66808 45.6765 6.62586C45.7232 6.58365 45.7603 6.53354 45.7856 6.47839C45.8108 6.42323 45.8238 6.36412 45.8238 6.30442V3.56783C45.8238 3.50814 45.8108 3.44903 45.7856 3.39387C45.7603 3.33872 45.7232 3.2886 45.6765 3.24639C45.6298 3.20418 45.5744 3.1707 45.5133 3.14786C45.4523 3.12502 45.3869 3.11327 45.3208 3.11328H24.7243C24.6583 3.11327 24.5928 3.12502 24.5318 3.14786C24.4708 3.1707 24.4153 3.20418 24.3686 3.24639C24.3219 3.2886 24.2848 3.33872 24.2596 3.39387C24.2343 3.44903 24.2213 3.50814 24.2213 3.56783ZM35.665 11.9411H24.2213C24.0212 11.9411 23.8293 11.8693 23.6878 11.7414C23.5463 11.6136 23.4668 11.4401 23.4668 11.2593C23.4668 11.0785 23.5463 10.9051 23.6878 10.7772C23.8293 10.6494 24.0212 10.5775 24.2213 10.5775H35.665C36.0818 10.5775 36.4195 10.8828 36.4195 11.2593C36.4195 11.6359 36.0818 11.9411 35.665 11.9411ZM35.665 15.4596H24.2213C24.0212 15.4596 23.8293 15.3878 23.6878 15.26C23.5463 15.1321 23.4668 14.9587 23.4668 14.7779C23.4668 14.597 23.5463 14.4236 23.6878 14.2958C23.8293 14.1679 24.0212 14.0961 24.2213 14.0961H35.665C35.7641 14.0961 35.8622 14.1137 35.9538 14.1479C36.0453 14.1822 36.1285 14.2324 36.1986 14.2957C36.2686 14.3591 36.3242 14.4342 36.3621 14.5169C36.4 14.5997 36.4195 14.6883 36.4195 14.7779C36.4195 14.8674 36.4 14.9561 36.3621 15.0388C36.3242 15.1215 36.2686 15.1967 36.1986 15.26C36.1285 15.3233 36.0453 15.3735 35.9538 15.4078C35.8622 15.442 35.7641 15.4597 35.665 15.4596Z" fill="#427070"/>
    <path d="M41.0685 27.2085C40.9694 27.2085 40.8713 27.1909 40.7797 27.1566C40.6882 27.1224 40.605 27.0722 40.5349 27.0089C40.4649 26.9455 40.4093 26.8704 40.3714 26.7877C40.3335 26.7049 40.314 26.6163 40.314 26.5267V23.6212C40.314 23.4404 40.3935 23.267 40.5349 23.1391C40.6764 23.0113 40.8684 22.9395 41.0685 22.9395C41.2686 22.9395 41.4605 23.0113 41.602 23.1391C41.7435 23.267 41.8229 23.4404 41.8229 23.6212V26.5267C41.823 26.6163 41.8035 26.7049 41.7655 26.7877C41.7276 26.8704 41.6721 26.9455 41.602 27.0089C41.5319 27.0722 41.4487 27.1224 41.3572 27.1566C41.2657 27.1909 41.1675 27.2085 41.0685 27.2085Z" fill="#766D78"/>
    <path d="M41.0687 23.1506C40.96 23.1507 40.8525 23.1294 40.7538 23.0883L36.3373 21.2547C36.159 21.1772 36.0215 21.0396 35.9544 20.8714C35.8873 20.7032 35.896 20.518 35.9786 20.3555C36.0611 20.1931 36.211 20.0664 36.3959 20.0029C36.5808 19.9393 36.7859 19.9439 36.9671 20.0156L41.0687 21.7184L45.1702 20.0156C45.5488 19.8582 45.9968 20.0085 46.1707 20.3505C46.2121 20.4319 46.2353 20.5198 46.2391 20.6093C46.2428 20.6988 46.2271 20.788 46.1926 20.872C46.1582 20.9559 46.1058 21.033 46.0385 21.0986C45.9711 21.1643 45.8901 21.2173 45.8 21.2547L41.3836 23.0883C41.2849 23.1294 41.1774 23.1506 41.0687 23.1506Z" fill="#766D78"/>
    <path d="M41.0685 27.2096C38.0303 27.2096 35.5586 24.9761 35.5586 22.2308C35.5586 19.4854 38.0303 17.252 41.0684 17.252C44.1065 17.252 46.5783 19.4854 46.5783 22.2308C46.5783 24.9761 44.1066 27.2096 41.0685 27.2096ZM41.0684 18.6156C38.8623 18.6156 37.0677 20.2374 37.0677 22.2308C37.0677 24.2242 38.8624 25.8459 41.0685 25.8459C43.2745 25.8459 45.0692 24.2242 45.0692 22.2308C45.0692 20.2374 43.2745 18.6156 41.0684 18.6156Z" fill="#8C818F"/>
    <path d="M41.0682 21.2031C40.2178 21.2031 39.5283 21.8261 39.5283 22.5946C39.5283 23.3631 40.2178 23.986 41.0682 23.986C41.9186 23.986 42.6081 23.363 42.6081 22.5946C42.608 21.8261 41.9186 21.2031 41.0682 21.2031Z" fill="#9EC8FC"/>
    <path d="M41.0684 24.6662C39.8032 24.6662 38.7739 23.7361 38.7739 22.5929C38.7739 21.4496 39.8032 20.5195 41.0684 20.5195C42.3335 20.5195 43.3628 21.4496 43.3628 22.5929C43.3628 23.7361 42.3335 24.6662 41.0684 24.6662ZM41.0684 21.8832C40.6353 21.8832 40.283 22.2016 40.283 22.5929C40.283 22.9841 40.6354 23.3025 41.0684 23.3025C41.5015 23.3025 41.8537 22.9841 41.8537 22.5929C41.8537 22.2016 41.5015 21.8832 41.0684 21.8832Z" fill="#655E67"/>
</svg>
