<svg width="16" height="16" viewBox="0 0 16 16" fill="none" xmlns="http://www.w3.org/2000/svg">
    <path d="M8.5 7C8.5 7.09889 8.47068 7.19556 8.41574 7.27779C8.36079 7.36001 8.2827 7.4241 8.19134 7.46194C8.09998 7.49978 7.99945 7.50969 7.90245 7.49039C7.80546 7.4711 7.71637 7.42348 7.64645 7.35355C7.57652 7.28363 7.5289 7.19454 7.50961 7.09755C7.49031 7.00055 7.50022 6.90002 7.53806 6.80866C7.5759 6.7173 7.63999 6.63921 7.72221 6.58427C7.80444 6.52932 7.90111 6.5 8 6.5C8.13261 6.5 8.25979 6.55268 8.35355 6.64645C8.44732 6.74021 8.5 6.86739 8.5 7ZM10 7C10 7.601 9.095 11 8 11C6.905 11 6 7.601 6 7C6 6.46957 6.21071 5.96086 6.58579 5.58579C6.96086 5.21071 7.46957 5 8 5C8.53043 5 9.03914 5.21071 9.41421 5.58579C9.78929 5.96086 10 6.46957 10 7ZM9 7C9 6.73478 8.89464 6.48043 8.70711 6.29289C8.51957 6.10536 8.26522 6 8 6C7.73478 6 7.48043 6.10536 7.29289 6.29289C7.10536 6.48043 7 6.73478 7 7C7.15909 8.0026 7.49786 8.96825 8 9.8505C8.50214 8.96825 8.84091 8.0026 9 7ZM15 7V9C15 9.13261 14.9473 9.25979 14.8536 9.35355C14.7598 9.44732 14.6326 9.5 14.5 9.5H13.81C13.5395 10.5366 12.9975 11.4824 12.2399 12.2399C11.4824 12.9975 10.5366 13.5395 9.5 13.81V14.5C9.5 14.6326 9.44732 14.7598 9.35355 14.8536C9.25979 14.9473 9.13261 15 9 15H7C6.86739 15 6.74021 14.9473 6.64645 14.8536C6.55268 14.7598 6.5 14.6326 6.5 14.5V13.81C5.46338 13.5395 4.51761 12.9975 3.76005 12.2399C3.0025 11.4824 2.46055 10.5366 2.19 9.5H1.5C1.36739 9.5 1.24021 9.44732 1.14645 9.35355C1.05268 9.25979 1 9.13261 1 9V7C1 6.86739 1.05268 6.74021 1.14645 6.64645C1.24021 6.55268 1.36739 6.5 1.5 6.5H2.19C2.46055 5.46338 3.0025 4.51761 3.76005 3.76005C4.51761 3.0025 5.46338 2.46055 6.5 2.19V1.5C6.5 1.36739 6.55268 1.24021 6.64645 1.14645C6.74021 1.05268 6.86739 1 7 1H9C9.13261 1 9.25979 1.05268 9.35355 1.14645C9.44732 1.24021 9.5 1.36739 9.5 1.5V2.19C10.5366 2.46055 11.4824 3.0025 12.2399 3.76005C12.9975 4.51761 13.5395 5.46338 13.81 6.5H14.5C14.6326 6.5 14.7598 6.55268 14.8536 6.64645C14.9473 6.74021 15 6.86739 15 7ZM7.5 3H8.5V2H7.5V3ZM2 8.5H3V7.5H2V8.5ZM8.5 13H7.5V14H8.5V13ZM12.768 9.5H12.5C12.3674 9.5 12.2402 9.44732 12.1464 9.35355C12.0527 9.25979 12 9.13261 12 9V7C12 6.86739 12.0527 6.74021 12.1464 6.64645C12.2402 6.55268 12.3674 6.5 12.5 6.5H12.768C12.5246 5.7335 12.1007 5.03663 11.532 4.46795C10.9634 3.89928 10.2665 3.47542 9.5 3.232V3.5C9.5 3.63261 9.44732 3.75979 9.35355 3.85355C9.25979 3.94732 9.13261 4 9 4H7C6.86739 4 6.74021 3.94732 6.64645 3.85355C6.55268 3.75979 6.5 3.63261 6.5 3.5V3.232C5.7335 3.47542 5.03663 3.89928 4.46795 4.46795C3.89928 5.03663 3.47542 5.7335 3.232 6.5H3.5C3.63261 6.5 3.75979 6.55268 3.85355 6.64645C3.94732 6.74021 4 6.86739 4 7V9C4 9.13261 3.94732 9.25979 3.85355 9.35355C3.75979 9.44732 3.63261 9.5 3.5 9.5H3.232C3.47542 10.2665 3.89928 10.9634 4.46795 11.532C5.03663 12.1007 5.7335 12.5246 6.5 12.768V12.5C6.5 12.3674 6.55268 12.2402 6.64645 12.1464C6.74021 12.0527 6.86739 12 7 12H9C9.13261 12 9.25979 12.0527 9.35355 12.1464C9.44732 12.2402 9.5 12.3674 9.5 12.5V12.768C10.2665 12.5246 10.9634 12.1007 11.532 11.532C12.1007 10.9634 12.5246 10.2665 12.768 9.5ZM14 7.5H13V8.5H14V7.5Z" fill="url(#paint0_linear_928_16886)"/>
    <defs>
        <linearGradient id="paint0_linear_928_16886" x1="8.02029" y1="-2.82308" x2="8.02029" y2="13.9769" gradientUnits="userSpaceOnUse">
            <stop stop-color="#488686"/>
            <stop offset="1" stop-color="#2B5151"/>
        </linearGradient>
    </defs>
</svg>
