<svg width="26" height="25" viewBox="0 0 26 25" fill="none" xmlns="http://www.w3.org/2000/svg">
    <path fill-rule="evenodd" clip-rule="evenodd" d="M13.0003 5.65332L19.3337 10.4533V18.8533H6.66699V10.4533L13.0003 5.65332ZM14.9003 15.2533V11.6533H11.1003V15.2533H14.9003Z" fill="url(#paint0_linear_1350_1853)"/>
    <path d="M17.7503 9.25332V5.95332H15.8503V7.81332L17.7503 9.25332Z" fill="url(#paint1_linear_1350_1853)"/>
    <path d="M13.0003 5.65332L19.3337 10.4533V18.8533H6.66699V10.4533L13.0003 5.65332ZM13.0003 5.65332L4.29199 12.2533M13.0003 5.65332L21.7087 12.2533M14.9003 11.6533V15.2533H11.1003V11.6533H14.9003ZM17.7503 5.95332V9.25332L15.8503 7.81332V5.95332H17.7503Z" stroke="url(#paint2_linear_1350_1853)" stroke-linecap="round" stroke-linejoin="round"/>
    <defs>
        <linearGradient id="paint0_linear_1350_1853" x1="13.0256" y1="2.0487" x2="13.0256" y2="17.8887" gradientUnits="userSpaceOnUse">
            <stop stop-color="#488686"/>
            <stop offset="1" stop-color="#2B5151"/>
        </linearGradient>
        <linearGradient id="paint1_linear_1350_1853" x1="13.0256" y1="2.0487" x2="13.0256" y2="17.8887" gradientUnits="userSpaceOnUse">
            <stop stop-color="#488686"/>
            <stop offset="1" stop-color="#2B5151"/>
        </linearGradient>
        <linearGradient id="paint2_linear_1350_1853" x1="13.0256" y1="2.0487" x2="13.0256" y2="17.8887" gradientUnits="userSpaceOnUse">
            <stop stop-color="#488686"/>
            <stop offset="1" stop-color="#2B5151"/>
        </linearGradient>
    </defs>
</svg>
