<svg width="18" height="20" viewBox="0 0 18 20" fill="none" xmlns="http://www.w3.org/2000/svg">
    <path fill-rule="evenodd" clip-rule="evenodd" d="M2.99998 8.80039V6.40039C2.99998 3.08668 5.68627 0.400391 8.99998 0.400391C12.3137 0.400391 15 3.08668 15 6.40039V8.80039C16.3255 8.80039 17.4 9.87491 17.4 11.2004V17.2004C17.4 18.5259 16.3255 19.6004 15 19.6004H2.99998C1.67449 19.6004 0.599976 18.5259 0.599976 17.2004V11.2004C0.599976 9.87491 1.67449 8.80039 2.99998 8.80039ZM12.6 6.40039V8.80039H5.39998V6.40039C5.39998 4.41217 7.01175 2.80039 8.99998 2.80039C10.9882 2.80039 12.6 4.41217 12.6 6.40039Z" fill="#427070"/>
</svg>
