<svg width="48" height="40" viewBox="0 0 48 40" fill="none" xmlns="http://www.w3.org/2000/svg">
    <path d="M44.2857 11.9227V36.8749C44.2857 38.6004 42.9247 39.9988 41.2455 39.9988H3.04017C1.36097 39.9988 0 38.6004 0 36.8749V11.9227C0 10.1973 1.36097 8.79883 3.04017 8.79883H41.2454C42.9247 8.79873 44.2857 10.1973 44.2857 11.9227Z" fill="#B5ADB6"/>
    <path d="M16.5619 27.5109H7.54541C5.87852 27.5109 4.52734 26.4298 4.52734 25.0964V17.8832C4.52734 16.5497 5.87861 15.4688 7.54541 15.4688H16.5619C18.2288 15.4688 19.58 16.5498 19.58 17.8832V25.0964C19.58 26.4298 18.2288 27.5109 16.5619 27.5109Z" fill="white"/>
    <path d="M39.4367 16.0705H24.1449C23.9448 16.0705 23.7529 16.0069 23.6114 15.8937C23.4699 15.7805 23.3904 15.627 23.3904 15.4669C23.3904 15.3068 23.4699 15.1533 23.6114 15.0401C23.7529 14.9269 23.9448 14.8633 24.1449 14.8633H39.4367C39.6368 14.8633 39.8287 14.9269 39.9702 15.0401C40.1117 15.1533 40.1912 15.3068 40.1912 15.4669C40.1912 15.627 40.1117 15.7805 39.9702 15.8937C39.8287 16.0069 39.6368 16.0705 39.4367 16.0705ZM39.4367 28.1127H24.1449C23.9448 28.1127 23.7529 28.0491 23.6114 27.9359C23.4699 27.8227 23.3904 27.6691 23.3904 27.5091C23.3904 27.349 23.4699 27.1955 23.6114 27.0823C23.7529 26.9691 23.9448 26.9055 24.1449 26.9055H39.4367C39.6368 26.9055 39.8287 26.9691 39.9702 27.0823C40.1117 27.1955 40.1912 27.349 40.1912 27.5091C40.1912 27.6691 40.1117 27.8227 39.9702 27.9359C39.8287 28.0491 39.6368 28.1127 39.4367 28.1127ZM39.4367 30.5271H4.5272C4.32709 30.5271 4.13519 30.4635 3.99369 30.3503C3.8522 30.2371 3.77271 30.0836 3.77271 29.9235C3.77271 29.7634 3.8522 29.6099 3.99369 29.4967C4.13519 29.3835 4.32709 29.3199 4.5272 29.3199H39.4367C39.6368 29.3199 39.8287 29.3835 39.9702 29.4967C40.1117 29.6099 40.1912 29.7634 40.1912 29.9235C40.1912 30.0836 40.1117 30.2371 39.9702 30.3503C39.8287 30.4635 39.6368 30.5271 39.4367 30.5271ZM39.4367 32.9416H4.5272C4.32709 32.9416 4.13519 32.878 3.99369 32.7649C3.8522 32.6517 3.77271 32.4981 3.77271 32.338C3.77271 32.178 3.8522 32.0244 3.99369 31.9112C4.13519 31.798 4.32709 31.7345 4.5272 31.7345H39.4367C39.6368 31.7345 39.8287 31.798 39.9702 31.9112C40.1117 32.0244 40.1912 32.178 40.1912 32.338C40.1912 32.4981 40.1117 32.6517 39.9702 32.7649C39.8287 32.878 39.6368 32.9416 39.4367 32.9416ZM39.4367 25.6981H24.1449C24.0458 25.6981 23.9477 25.6825 23.8561 25.6522C23.7646 25.6218 23.6814 25.5774 23.6114 25.5213C23.5413 25.4653 23.4857 25.3987 23.4478 25.3255C23.4099 25.2523 23.3904 25.1738 23.3904 25.0945C23.3904 25.0153 23.4099 24.9368 23.4478 24.8635C23.4857 24.7903 23.5413 24.7238 23.6114 24.6677C23.6814 24.6117 23.7646 24.5672 23.8561 24.5369C23.9477 24.5066 24.0458 24.4909 24.1449 24.4909H39.4367C39.5358 24.4909 39.6339 24.5066 39.7254 24.5369C39.8169 24.5672 39.9001 24.6117 39.9702 24.6677C40.0402 24.7238 40.0958 24.7903 40.1337 24.8635C40.1716 24.9368 40.1912 25.0153 40.1912 25.0945C40.1912 25.1738 40.1716 25.2523 40.1337 25.3255C40.0958 25.3987 40.0402 25.4653 39.9702 25.5213C39.9001 25.5774 39.8169 25.6218 39.7254 25.6522C39.6339 25.6825 39.5358 25.6981 39.4367 25.6981ZM33.4004 18.4849H24.1449C23.9448 18.4849 23.7529 18.4213 23.6114 18.3081C23.4699 18.1949 23.3904 18.0414 23.3904 17.8813C23.3904 17.7212 23.4699 17.5677 23.6114 17.4545C23.7529 17.3413 23.9448 17.2777 24.1449 17.2777H33.4004C33.6005 17.2777 33.7925 17.3413 33.9339 17.4545C34.0754 17.5677 34.1549 17.7212 34.1549 17.8813C34.1549 18.0414 34.0754 18.1949 33.9339 18.3081C33.7925 18.4213 33.6005 18.4849 33.4004 18.4849Z" fill="#E2DEE2"/>
    <path d="M12.0535 23.7141C14.0663 23.7141 15.698 22.4087 15.698 20.7984C15.698 19.1882 14.0663 17.8828 12.0535 17.8828C10.0406 17.8828 8.40894 19.1882 8.40894 20.7984C8.40894 22.4087 10.0406 23.7141 12.0535 23.7141Z" fill="#D78878"/>
    <path d="M7.54521 27.5094H16.5617C16.8488 27.5094 17.1262 27.4766 17.3893 27.4167C17.0196 25.3234 14.7722 23.7129 12.0535 23.7129C9.33486 23.7129 7.0874 25.3234 6.71777 27.4167C6.98689 27.4781 7.26537 27.5093 7.54521 27.5094Z" fill="#FD9468"/>
    <path d="M43.9639 14.2602V22.2272C42.6561 22.5748 41.2576 22.7632 39.806 22.7632C32.5213 22.7632 26.5947 18.022 26.5947 12.1942C26.5947 12.0775 26.5968 11.9616 26.6018 11.8457H40.9458C42.6128 11.8456 43.9639 12.9266 43.9639 14.2602Z" fill="#A79BA7"/>
    <path d="M33.4003 17.2777H28.2265C28.5154 17.6972 28.8395 18.1006 29.1966 18.485H33.4003C33.599 18.4832 33.7887 18.4188 33.9284 18.3058C34.068 18.1928 34.1463 18.0403 34.1463 17.8814C34.1463 17.7225 34.068 17.5699 33.9284 17.4569C33.7887 17.3439 33.599 17.2795 33.4003 17.2777ZM27.515 16.0705H39.4366C39.6367 16.0705 39.8286 16.0069 39.9701 15.8937C40.1116 15.7805 40.1911 15.627 40.1911 15.4669C40.1911 15.3068 40.1116 15.1533 39.9701 15.0401C39.8286 14.9269 39.6367 14.8633 39.4366 14.8633H27.0217C27.1555 15.2733 27.3202 15.6764 27.515 16.0705Z" fill="#918291"/>
    <rect x="33.5715" width="14.2857" height="14.2857" rx="7.14286" fill="#A17E3E"/>
    <path d="M39.3545 10.476C39.1653 10.4763 38.978 10.4408 38.8032 10.3714C38.6284 10.302 38.4696 10.2002 38.3359 10.0718L36.6115 8.41689C36.4935 8.30117 36.4278 8.14544 36.4287 7.98351C36.4296 7.82159 36.4971 7.66654 36.6164 7.55204C36.7357 7.43754 36.8972 7.37283 37.066 7.37196C37.2347 7.37109 37.397 7.43413 37.5175 7.5474L39.2419 9.20228C39.3041 9.2618 39.405 9.2618 39.4671 9.20228L43.9113 4.93717C44.0319 4.8239 44.1942 4.76086 44.3629 4.76173C44.5316 4.7626 44.6932 4.82731 44.8125 4.94181C44.9318 5.05631 44.9992 5.21136 45.0001 5.37328C45.001 5.53521 44.9353 5.69094 44.8173 5.80666L40.3731 10.0718C40.2394 10.2002 40.0806 10.302 39.9058 10.3714C39.731 10.4408 39.5437 10.4763 39.3545 10.476Z" fill="white"/>
</svg>
