<svg width="12" height="12" viewBox="0 0 12 12" fill="none" xmlns="http://www.w3.org/2000/svg">
<path d="M7.4934 2.10755C8.07472 2.1464 8.57748 1.70667 8.61634 1.12535C8.6552 0.54403 8.21546 0.0412488 7.63414 0.00238943C7.05282 -0.0364699 6.55007 0.403264 6.51121 0.984585C6.47232 1.56591 6.91208 2.06866 7.4934 2.10755ZM4.23409 6.56489C4.17387 6.53974 4.11711 6.50701 4.06518 6.46748L3.38052 7.95215L2.86787 7.71574C2.66835 7.62372 2.43203 7.71089 2.34003 7.91041L0.986847 10.8448C0.894854 11.0443 0.981995 11.2806 1.18152 11.3726L1.35596 11.4531C1.32588 11.481 1.30155 11.5146 1.28436 11.5519C1.21133 11.7103 1.28052 11.8979 1.43889 11.9709C1.59728 12.044 1.78487 11.9748 1.8579 11.8164C1.8751 11.7791 1.88484 11.7388 1.88657 11.6978L2.06101 11.7782C2.26053 11.8702 2.49685 11.7831 2.58885 11.5836L3.94203 8.64916C4.02444 8.47045 3.9628 8.26254 3.80572 8.15494L4.51175 6.6239C4.41632 6.62176 4.32214 6.60174 4.23409 6.56489Z" fill="#00321F"/>
<path d="M10.686 4.52859L9.25622 4.16875L8.61052 3.42497L8.62357 3.22975C8.64982 2.83706 8.35277 2.49743 7.96008 2.47118L6.69209 2.38638C6.31378 2.36109 5.98484 2.63592 5.93775 3.00719L6.22744 2.92397L5.05734 3.54911C4.95958 3.60135 4.88283 3.68572 4.84008 3.78799L4.08523 5.5934C3.98269 5.83868 4.09838 6.12061 4.34365 6.22317C4.58735 6.32507 4.8702 6.21157 4.97342 5.96475L5.66215 4.31744L6.68112 3.77304L5.93353 4.40479L5.82567 4.66277L5.68959 6.69804L5.69644 6.69848C5.69707 6.72178 5.76525 8.08406 5.79849 8.75252L4.67316 11.1795C4.53895 11.4689 4.66479 11.8123 4.9542 11.9465C5.24356 12.0806 5.58696 11.9548 5.72116 11.6654L6.90647 9.10912C6.94587 9.02418 6.96401 8.93093 6.95934 8.83741L6.85659 6.77606L7.11699 6.79347L7.7561 8.69409L7.99868 11.4727C8.02643 11.7908 8.30686 12.0257 8.62432 11.9979C8.94213 11.9702 9.17724 11.69 9.14951 11.3722L8.90095 8.52503C8.89697 8.47946 8.88759 8.43452 8.87302 8.39116L8.36379 6.87686L8.37968 6.87792L8.51939 4.78847L8.62852 4.91418C8.6931 4.98859 8.77897 5.04137 8.87452 5.0654L10.4511 5.4622C10.7083 5.52703 10.9703 5.37112 11.0353 5.11291C11.1002 4.85505 10.9438 4.59349 10.686 4.52859Z" fill="#00321F"/>
</svg>
