<svg width="24" height="25" viewBox="0 0 24 25" fill="none" xmlns="http://www.w3.org/2000/svg">
    <path d="M18 21.2532H6.00005C5.33731 21.2532 4.80005 20.7159 4.80005 20.0532C4.80005 18.0683 6.03149 16.2916 7.89014 15.595L8.25916 15.4567C10.6712 14.5527 13.3289 14.5527 15.7409 15.4567L16.11 15.595C17.9686 16.2916 19.2 18.0683 19.2 20.0532C19.2 20.7159 18.6628 21.2532 18 21.2532Z" fill="#FDFCF5" fill-opacity="0.25"/>
    <path d="M10.1705 11.9134C11.3189 12.5033 12.6812 12.5033 13.8296 11.9134C14.8984 11.3644 15.6641 10.3644 15.9155 9.1895L15.9826 8.87592C16.2397 7.67443 15.9651 6.42045 15.2294 5.43638L15.1216 5.29227C14.3858 4.30806 13.2289 3.72852 12 3.72852C10.7712 3.72852 9.61428 4.30806 8.87846 5.29227L8.77072 5.43638C8.035 6.42045 7.76038 7.67443 8.01748 8.87592L8.08457 9.1895C8.33598 10.3644 9.10172 11.3644 10.1705 11.9134Z" fill="#FDFCF5" fill-opacity="0.25"/>
    <path d="M18 21.2532H6.00005C5.33731 21.2532 4.80005 20.7159 4.80005 20.0532C4.80005 18.0683 6.03149 16.2916 7.89014 15.595L8.25916 15.4567C10.6712 14.5527 13.3289 14.5527 15.7409 15.4567L16.11 15.595C17.9686 16.2916 19.2 18.0683 19.2 20.0532C19.2 20.7159 18.6628 21.2532 18 21.2532Z" stroke="black" stroke-linecap="round" stroke-linejoin="round"/>
    <path d="M10.1705 11.9134C11.3189 12.5033 12.6812 12.5033 13.8296 11.9134C14.8984 11.3644 15.6641 10.3644 15.9155 9.1895L15.9826 8.87592C16.2397 7.67443 15.9651 6.42045 15.2294 5.43638L15.1216 5.29227C14.3858 4.30806 13.2289 3.72852 12 3.72852C10.7712 3.72852 9.61428 4.30806 8.87846 5.29227L8.77072 5.43638C8.035 6.42045 7.76038 7.67443 8.01748 8.87592L8.08457 9.1895C8.33598 10.3644 9.10172 11.3644 10.1705 11.9134Z" stroke="black" stroke-linecap="round" stroke-linejoin="round"/>
</svg>
