<svg width="24" height="24" viewBox="0 0 24 24" fill="none" xmlns="http://www.w3.org/2000/svg">
    <path fill-rule="evenodd" clip-rule="evenodd" d="M9.60002 4.80039C6.94906 4.80039 4.80002 6.94942 4.80002 9.60039C4.80002 12.2514 6.94906 14.4004 9.60002 14.4004C12.251 14.4004 14.4 12.2514 14.4 9.60039C14.4 6.94942 12.251 4.80039 9.60002 4.80039ZM2.40002 9.60039C2.40002 5.62394 5.62357 2.40039 9.60002 2.40039C13.5765 2.40039 16.8 5.62394 16.8 9.60039C16.8 11.1554 16.3071 12.5953 15.4689 13.7722L21.2486 19.5519C21.7172 20.0205 21.7172 20.7803 21.2486 21.2489C20.7799 21.7175 20.0201 21.7175 19.5515 21.2489L13.7719 15.4693C12.5949 16.3074 11.155 16.8004 9.60002 16.8004C5.62357 16.8004 2.40002 13.5768 2.40002 9.60039Z" fill="#A7F1E9"/>
</svg>
