<svg width="393" height="397" viewBox="0 0 393 397" fill="none" xmlns="http://www.w3.org/2000/svg">
    <g clip-path="url(#clip0_884_11302)">
        <rect width="397" height="397" transform="translate(-2)" fill="black" fill-opacity="0.15"/>
        <path d="M192.234 42.6465H201.539L210.456 43.4219L220.924 45.3604L230.229 48.0742L239.921 51.9512L247.287 55.8281L255.041 60.8682L260.081 64.7451L265.509 69.3975L269.773 73.6621V74.4375H270.549L277.527 82.9668L281.404 88.3945L285.281 94.9854L288.383 101.188L290.709 106.616L293.423 114.758L295.749 124.838L296.912 134.918V150.426L296.137 157.404L294.586 165.546L291.872 175.238L287.995 184.931L283.343 193.848L279.466 199.663L275.589 204.703L271.324 209.355L268.61 212.457L263.958 217.109L260.856 219.823L254.266 224.863L246.899 229.516L237.982 234.168L227.902 238.045L218.985 240.371L210.068 241.922L206.579 242.31H187.97L178.665 241.146L168.585 238.82L158.505 235.331L152.302 232.617L143.772 227.965L137.957 224.088L131.366 219.048L126.714 214.783L121.286 209.355L117.797 205.091L113.92 200.051L109.655 193.46L104.228 182.992L101.126 174.851L98.4121 165.546L96.8613 157.017L96.0859 150.038V134.918L97.249 124.838L99.1875 115.921L103.064 104.29L107.717 94.5977L112.369 86.8438L119.348 77.5391H120.123L120.898 75.9883L128.652 68.2344L132.917 64.7451L139.896 59.7051L146.874 55.4404L156.179 50.7881L167.034 46.9111L177.89 44.1973L186.031 43.0342L192.234 42.6465ZM190.684 50.4004L180.991 51.5635L170.523 53.8896L161.606 56.9912L153.853 60.4805L148.812 63.1943L140.671 68.6221L134.468 73.6621L131.366 76.376L129.428 78.3145L124.775 83.3545L119.735 89.9453L115.471 96.9238L111.206 105.065L108.88 110.881L106.554 118.247L105.003 124.838L103.84 133.367L103.452 138.02V146.937L104.615 158.18L106.554 166.709L108.88 174.075L111.206 179.891L115.471 188.032L119.348 194.235L124 200.438L127.489 204.315L128.652 205.866H129.428V206.642L132.529 209.355L136.406 212.845L139.508 215.171L142.609 219.048L144.16 219.823L144.548 219.436L145.711 213.232L147.649 208.58L149.976 205.091L153.465 201.989L159.28 198.5L167.422 194.623L180.216 189.583L191.071 185.318L197.274 182.217L200.376 179.891L201.927 177.177V173.688L199.988 170.974L195.336 168.26L187.582 165.546L171.299 160.894L165.096 158.18L161.606 155.466L159.668 151.589V148.875L160.831 145.773L163.157 143.06L167.422 140.346L173.625 137.632L184.868 134.143L192.622 131.816L194.948 130.266L195.336 129.103L194.173 126.776L188.745 119.41L184.48 113.595L179.828 106.229L177.114 100.413L175.951 96.1484V89.1699L176.727 86.0684L178.665 81.416L181.379 77.9268L185.644 74.8252L190.296 72.8867L194.173 72.1113H198.05L203.478 73.2744L206.967 74.8252L210.456 77.1514L213.17 79.8652L215.884 84.5176L217.435 90.7207V94.9854L215.884 101.188L212.782 107.392L209.293 112.819L205.416 118.247L202.702 122.124L202.314 124.062L203.865 127.552L203.478 130.266L200.376 132.979L190.684 137.632L184.48 140.733L181.379 143.447L179.828 145.773L180.216 148.487L183.317 150.426L194.948 153.527L210.456 157.404L220.924 160.894L227.127 163.995L231.004 166.709L233.33 168.647L235.656 172.137L236.819 175.238L237.207 176.789V179.891L236.044 183.768L233.718 187.645L230.229 191.134L223.638 195.786L216.659 200.438L212.007 203.928L208.905 207.029L206.967 210.519L206.579 212.069V215.946L208.13 219.823L211.231 223.312L215.108 225.639L221.312 227.577H230.616L235.269 226.414L241.472 223.312L245.736 220.986L250.389 217.885L255.816 213.62L260.856 209.355L265.896 204.315L269.386 200.051L273.263 195.011L277.527 188.032L281.792 179.891L285.669 169.423L287.995 159.343L289.158 150.813L289.546 141.121L288.771 130.266L287.22 121.736L284.894 113.595L282.567 107.392L277.915 97.6992L273.65 90.7207L270.161 86.0684L265.896 81.0283L260.081 74.8252L254.653 70.1729L248.062 65.5205L242.247 62.0312L233.718 57.7666L224.413 54.2773L215.108 51.9512L207.354 50.7881L202.702 50.4004H190.684Z" fill="#EFF5F5"/>
        <path d="M87.9453 246.574H97.25L103.453 247.35L108.105 248.9L112.758 251.614L116.247 255.104L118.573 258.98L119.736 263.633V269.836L118.186 274.876L115.084 279.141L112.37 281.854L108.105 284.568L105.004 286.119H103.841L106.167 290.384L110.819 298.138L115.472 305.504L119.736 311.707L122.838 314.421L126.327 315.972L129.041 316.359L129.429 316.747V320.624H111.595L107.718 319.073L104.616 315.972L101.515 310.932L96.0869 301.239L90.6592 291.935L88.7207 288.445V287.67L86.7822 288.058H82.5176L82.9053 313.258L84.0684 315.196L86.0068 315.972L91.0469 316.359L91.4346 316.747V320.236L91.0469 320.624H58.4805V316.747L58.8682 316.359L64.6836 315.584L66.2344 314.809L67.0098 313.258L67.3975 310.156V259.756L66.6221 255.104L65.459 253.165L62.3574 251.614L58.8682 250.839L58.4805 250.451V246.962L87.9453 246.574Z" fill="#EFF5F5"/>
        <path d="M262.021 266.734H264.347L265.122 267.51V275.651H265.897L266.673 274.101L269.387 271.387L273.264 269.061L277.916 267.122L279.854 266.734H286.833L290.71 267.897L293.812 270.224L296.525 273.325L297.688 274.876L302.341 271.387L308.156 268.285L314.359 266.734H320.95L324.827 267.897L328.704 270.611L331.03 274.488L332.193 278.365L332.581 281.467L332.969 313.646L334.132 315.584L334.907 315.972L338.396 316.359L339.172 316.747V320.624H312.421L312.033 320.236V317.135L312.809 316.359L317.073 315.584L318.236 314.421L318.624 313.258V283.793L317.849 280.304L316.298 277.978L313.972 276.039L312.033 275.264H307.381L303.504 276.814L299.239 280.691V313.258L300.402 315.584L305.055 316.359L305.83 316.747V320.624H278.691V316.747L283.344 315.584L284.507 314.809L285.282 311.319V283.793L284.507 280.304L282.956 277.59L281.018 276.039L278.304 275.264H274.814L270.938 276.427L267.448 279.141L265.51 281.467V310.544L266.285 314.809L267.836 315.972L271.325 316.359L272.101 316.747L272.488 319.461L272.101 320.624H244.962L244.574 320.236V316.747L249.614 315.584L250.777 314.809L251.165 313.646V278.365L250.002 275.651L247.288 274.488L244.574 273.713V270.611L244.962 270.224L254.267 268.673L262.021 266.734Z" fill="#EFF5F5"/>
        <path d="M151.527 266.734H160.444L166.26 268.285L171.688 270.999L175.564 274.101L178.278 277.202L180.604 281.079L182.543 286.119L183.318 289.996V298.913L181.768 305.116L179.054 310.544L175.952 314.421L172.851 317.135L168.198 319.849L163.934 321.399L160.057 322.175H151.14L145.712 321.012L141.06 319.073L136.02 315.584L132.918 312.095L130.592 308.218L128.653 303.565L127.878 300.852L127.49 297.75V290.771L128.653 285.344L130.592 280.691L132.918 277.202L135.632 274.101L141.06 270.224L146.1 267.897L151.527 266.734Z" fill="#EFF5F5"/>
        <path d="M212.008 266.734H215.885L221.312 267.51L225.577 269.061L228.679 271.387L231.005 274.876L232.168 277.978L232.556 280.304L232.943 311.707L233.719 313.646L234.494 314.033H238.759L241.085 313.646L241.86 315.196L241.473 317.135L239.146 319.073L234.494 321.012L227.516 321.787L223.251 321.012L220.925 319.461L219.374 316.359V315.196L216.272 317.91L212.008 320.624L205.805 322.175H200.377L195.725 321.012L191.848 318.686L189.521 315.972L187.971 311.707V305.892L189.134 302.402L190.685 300.076L193.398 297.362L198.051 294.648L205.805 291.547L213.171 289.221L218.986 288.058L218.599 278.753L217.436 275.651L215.885 273.713L212.008 272.162H208.131L205.029 273.325L203.479 276.039L201.928 282.242L200.377 283.793L197.275 284.956H191.848L190.297 283.793V279.916L191.848 276.039L194.562 272.938L199.602 269.836L204.642 267.897L212.008 266.734Z" fill="#EFF5F5"/>
        <path d="M154.241 271.387H157.343L160.057 272.162L163.546 274.876L165.484 277.59L167.423 283.405L168.198 287.282L168.586 297.75L167.811 304.341L166.26 309.381L164.321 313.258L161.607 315.972L157.73 317.522H154.241L150.752 316.359L147.65 313.646L145.324 309.769L143.773 305.116L142.998 300.464V289.221L144.549 281.467L147.263 276.039L149.589 273.325L152.69 271.774L154.241 271.387Z" fill="url(#paint0_linear_884_11302)" fill-opacity="0.8"/>
        <path d="M84.4561 250.839H91.8223L96.8623 252.39L100.352 255.104L102.29 257.43L103.841 260.919L104.229 262.857V269.448L103.065 273.713L100.739 277.59L97.25 280.691L92.9854 282.63L89.1084 283.405H82.5176V251.227L84.4561 250.839Z" fill="#56595C"/>
        <path d="M260.469 266.347H264.733L265.896 267.897L266.284 271.774H268.61L269.386 270.224L272.1 268.673L275.977 266.734L277.915 266.347H289.158L293.035 267.897L296.524 272.162L297.688 272.938L299.238 272.55L300.401 272.162V271.387L302.728 270.224L306.992 267.897L310.481 266.734L312.808 266.347H322.112L325.602 267.51L328.703 269.448L331.417 272.938L332.968 277.978L333.355 282.242L333.743 314.033L336.069 315.584L339.171 315.972L339.559 316.359L339.946 319.849L339.559 321.399L312.42 321.787L311.257 320.624V317.91L312.42 315.972L315.134 315.584L317.072 314.033H317.848L318.235 308.993V285.344L317.46 282.63L317.072 279.528H316.297L314.358 277.202L312.808 276.427L308.155 276.039L303.891 277.59L302.34 277.978L301.564 279.528H300.789L300.014 281.854L299.626 285.731V311.319L300.789 314.809L301.952 315.196V315.972H305.829L306.604 316.747L307.38 320.236L305.441 321.399L281.017 321.787L278.303 321.012L277.527 319.461L278.303 316.359L282.955 314.421L284.118 313.258L284.894 309.769V286.119L282.955 278.365L281.404 277.59L279.466 276.427L277.915 276.039H274.038L270.161 277.978L267.835 279.916L266.284 282.242V309.769L266.672 313.258L268.223 315.196L272.487 316.359L273.263 318.298V320.624L271.324 322.175L270.549 321.787H244.573L243.798 320.624V316.359L247.675 315.584L250.001 314.033L250.776 311.707V281.079L250.001 277.59L249.226 276.039L246.124 275.264L244.186 274.488L243.41 273.325V270.611L244.573 269.448L254.266 267.897L260.469 266.347ZM262.02 266.734L252.327 269.061L244.961 270.224L244.573 270.611V273.713L249.613 275.264L250.776 276.814L251.164 278.365V313.646L250.389 315.196L248.45 315.972L244.573 316.747V320.236L244.961 320.624H272.1L272.487 317.91L272.1 316.747L271.324 316.359L267.835 315.972L266.284 314.809L265.509 310.544V281.467L268.61 277.978L272.1 276.039L274.813 275.264H278.303L281.792 276.427L284.118 279.141L284.894 281.079L285.281 283.793V311.319L284.506 314.809L282.18 315.972L278.69 316.747V320.624H305.829V316.747L305.054 316.359L300.401 315.584L299.238 313.258V280.691L301.952 277.978L305.054 276.039L307.38 275.264H312.032L315.134 276.814L317.46 279.528L318.235 281.467L318.623 283.793V313.258L317.46 315.196L315.521 315.972L312.808 316.359L312.032 317.135V320.236L312.42 320.624H339.171V316.747L338.396 316.359L334.906 315.972L333.355 314.809L332.968 313.646L332.58 281.467L331.417 275.264L329.091 270.999L325.602 268.285L322.888 267.122L320.949 266.734H314.358L308.155 268.285L302.34 271.387L297.688 274.876L294.586 270.999L291.484 268.285L288.771 267.122L286.832 266.734H279.854L274.813 268.285L270.549 270.611L266.672 274.101L265.896 275.651H265.121V267.51L264.346 266.734H262.02Z" fill="#F7FEFD"/>
        <path d="M193.399 70.9482H197.664L204.255 72.1113L206.969 73.2744L210.846 75.9883L213.947 78.7021L214.723 80.6406L215.498 81.0283L217.049 83.7422L218.212 87.2314L218.6 90.333V95.7607L216.661 103.127L213.947 107.779L210.846 113.207L208.52 115.921L206.193 119.022L203.479 123.287L203.867 124.838L205.03 126.389L204.643 131.041L201.541 133.367L201.153 134.143L193.399 137.632L187.584 140.346L185.258 141.896H184.095V142.672L182.544 143.06L181.769 144.998L181.381 145.386V147.712L184.482 149.65L187.972 150.426L193.787 151.977L202.316 154.303L207.356 155.466L209.683 156.241L213.172 157.017L221.701 159.73L223.252 160.118V160.894L224.803 161.281L229.843 163.995L232.557 166.321L234.107 167.872V168.647L235.271 169.035L237.984 174.463L238.372 176.789V180.666L236.434 186.094L234.883 188.42L231.394 191.134L229.067 193.848L226.741 195.011L222.864 197.725L220.15 199.275L216.273 201.989L212.009 205.091L210.846 207.029L209.295 208.192L207.744 211.294V216.722L209.683 219.823L212.396 222.149V222.925L213.947 223.7L215.886 224.863L219.375 225.639L221.313 226.414L227.517 226.802L233.72 225.639L239.535 223.312L242.637 221.374H243.412V220.599L246.901 219.048L249.228 217.497L251.166 215.559L253.104 214.396H253.88L254.655 212.845L256.594 212.069L256.981 210.906L258.532 210.131L261.246 207.029L264.348 204.315L267.837 200.438L269.388 198.5L270.163 198.888L267.062 202.765L262.797 207.417L259.308 210.906L253.88 215.171L248.84 219.048L243.024 222.537L236.821 225.639L232.944 227.189L230.618 227.577H221.313L215.11 225.639L210.846 222.925L208.132 219.823L206.581 215.946V212.069L208.132 208.192L211.621 204.315L215.498 201.214L227.517 193.072L231.394 189.971L234.107 187.257L236.821 181.829L237.209 179.891V176.789L236.046 172.912L234.107 169.811L232.169 167.484L226.741 163.607L220.926 160.894L210.458 157.404L184.482 150.813L180.605 148.875L179.83 147.712L180.218 144.998L182.932 141.896L186.421 139.57L198.052 134.143L201.929 131.816L203.867 129.49L203.479 126.776L202.316 123.287L204.255 119.798L207.744 115.146L211.621 109.33L215.11 103.127L217.049 97.3115L217.437 94.9854V90.7207L215.886 84.5176L213.172 79.8652L209.683 76.376L205.806 74.0498L200.766 72.499L198.052 72.1113H194.175L187.972 73.6621L184.482 75.6006L181.381 77.9268L178.279 82.1914L176.341 86.8437L175.953 89.1699V96.1484L177.504 101.188L180.605 107.392L184.482 113.595L188.747 119.41L194.175 126.776L195.338 129.49L193.399 131.429L186.421 133.755L174.79 137.244L168.975 139.57L164.71 141.896L162.384 143.835L160.058 147.324L159.67 148.875V151.589L161.608 155.466L165.098 158.18L171.301 160.894V161.281L168.587 160.894L163.935 158.955L161.221 157.017L159.282 154.303L158.895 153.14V148.487L160.058 144.998L161.996 143.06L163.935 140.733L170.138 137.632L174.015 136.081L178.279 134.53L184.87 132.979L190.298 131.429L193.399 130.266V127.939L190.686 123.675L188.747 122.124L187.584 119.798L183.707 114.37V113.595L182.156 112.819L179.83 108.167L177.504 104.29L175.953 101.188L174.402 95.373L174.79 89.1699L176.341 82.9668L178.279 80.2529L179.442 78.3145L181.381 76.376H182.156L182.544 75.2129L185.258 73.6621L187.584 72.1113L190.298 71.3359L193.399 70.9482Z" fill="#F7FEFD"/>
        <path d="M246.514 55.4404L248.84 55.8281L252.329 58.1543L256.206 60.4805L256.981 60.8682V61.6436H257.757L258.92 62.8066L263.96 66.6836L272.489 75.2129L275.203 78.7021L277.529 81.416V82.1914L278.692 82.5791L282.182 88.0068V88.7822H282.957L284.508 91.1084L287.222 96.5361L289.936 102.352L291.099 103.902L292.262 108.167L293.812 113.595L294.588 115.146L296.526 125.613L297.302 127.552L297.689 134.918V150.426L297.302 157.017L296.526 158.955L295.363 165.546L294.588 169.035L291.874 177.177L291.099 181.054L289.936 182.992H289.16L288.385 186.094L285.671 191.521L284.508 194.235L282.182 196.949L279.08 201.214L277.917 203.152L275.979 205.479L273.265 208.58L271.326 210.519L269.775 212.845L266.674 215.559L266.286 216.334L264.348 217.497L262.409 219.436L259.308 222.149H258.532V222.925L256.206 223.7V224.476L250.391 228.353L246.126 230.679L242.249 233.005L236.046 235.719L229.455 238.433L225.966 239.596L218.212 241.534L208.132 242.697L205.418 243.473H192.624L187.196 243.085L185.646 242.697L178.279 241.922L170.525 240.371L165.485 238.82L153.854 234.168L146.876 230.679V229.903L144.55 229.128L142.224 227.965L137.184 224.476L134.082 222.149L132.919 221.762L130.98 219.823L129.042 218.272L127.879 217.109V216.334L126.328 215.946L124.39 214.008V213.232L122.839 212.457V211.294H122.063L119.35 208.192L117.023 205.479V204.703H116.248L115.473 203.152L114.697 202.765V201.989H113.922L112.759 200.051L109.657 195.011L109.27 192.685L110.82 194.623L114.697 200.438L118.574 205.479L123.227 210.906L129.817 217.497L136.408 222.537L141.448 226.026L147.264 229.516L153.467 232.617L161.608 236.106L170.138 238.82L178.667 240.759L187.972 241.922H206.581L217.049 240.371L225.19 238.433L232.169 236.106L240.311 232.617L247.677 228.74L255.818 223.312L261.246 219.048L267.449 213.232L270.551 210.131L273.265 207.029L277.142 202.377L279.855 198.5L283.732 192.297L287.997 184.155L291.486 175.238L294.588 164.383L296.139 155.078L296.526 150.426V134.918L295.363 124.838L293.037 114.758L289.936 105.453L285.671 96.1484L281.794 89.5576L277.917 84.1299L274.04 79.0898L270.551 75.2129V74.4375H269.775L267.062 71.3359L264.348 68.6221L260.083 65.1328L256.206 62.0312L250.391 58.1543L246.514 55.8281V55.4404Z" fill="#F7FEFD"/>
        <path d="M194.95 82.9668H198.439L201.929 84.5176L204.643 86.8438L206.193 89.9453L206.581 93.0469L205.418 96.9238L203.867 99.25L199.99 101.576L198.439 101.964H194.95L191.073 100.413L189.135 98.4746L187.584 96.5361L186.809 93.8223V90.7207L187.972 87.6191L189.522 85.6807L192.236 83.7422L194.95 82.9668Z" fill="#666A6B"/>
        <path d="M218.211 292.322H218.986V309.769L214.722 313.258L212.783 314.033H207.355L205.029 312.87L203.866 311.707L203.091 309.769L202.703 305.892L203.479 302.402L205.417 299.301L207.355 297.362L211.232 294.648L218.211 292.322Z" fill="#9C9394"/>
        <path d="M58.8672 245.799H96.4736L105.003 246.574L105.778 247.35L109.655 248.513L113.92 251.614L115.858 253.553L118.185 256.267L119.735 259.756L120.898 264.796L120.511 271.387L117.409 277.59L113.145 282.242L107.329 286.119H106.166L105.778 287.67L106.941 289.996L109.655 294.261L111.206 296.587L112.369 298.913L113.92 301.239V302.015H114.695L116.246 305.504L120.123 310.544L122.449 313.258L127.877 315.584L130.203 315.972L130.591 320.236L129.04 321.787H118.96L109.268 321.012L105.778 318.686L104.615 317.522L103.064 314.809L102.289 313.258L101.126 312.87L99.5752 308.993L97.6367 306.279L96.0859 302.79L93.7598 299.301L90.6582 293.098L91.0459 291.935L94.1475 297.362L99.1875 306.279L103.452 313.646L106.166 317.135L108.492 319.073L111.594 320.236L129.428 320.624L129.04 316.747L125.163 315.972L121.674 314.033L118.96 311.319L115.083 305.504L110.431 298.138L104.228 287.67L103.84 286.119L110.043 283.018L113.532 280.304L116.634 276.814L118.572 272.938L119.348 269.836V263.633L118.185 258.98L115.471 254.716L112.757 252.002L107.329 248.9L101.126 247.35L97.249 246.962H58.4795L58.8672 250.451L63.5195 251.614L66.2334 253.553L67.3965 256.654L67.7842 259.756V310.156L67.0088 314.033L65.458 315.584L63.1318 315.972L63.5195 314.809L65.8457 314.421L66.2334 311.707L66.6211 299.688L67.0088 293.485L66.6211 291.935L67.0088 281.467L66.6211 279.141V268.285L66.2334 256.267L65.458 254.328L62.7441 252.39L58.8672 252.002L57.3164 250.451V246.962L58.8672 245.799Z" fill="#F7FEFD"/>
        <path d="M208.907 266.347H220.538L224.803 267.51L228.68 270.224L231.006 272.938L232.944 277.978L233.332 281.854L233.72 311.707L235.271 313.258L237.209 313.646L240.698 312.482L242.637 314.421L243.024 317.135L239.923 319.461L237.984 320.624L233.72 322.175L226.354 322.562L221.701 321.399L220.15 319.849V319.073H219.375L218.212 317.91L212.784 321.012L209.295 322.175L207.356 322.562H198.827L194.562 321.399L190.298 318.298L190.686 317.135L194.175 319.849L198.052 321.399L200.378 321.787H205.806L212.009 320.236L216.273 317.522L218.6 315.196H219.375L220.926 318.686L222.477 320.236L224.415 321.012L227.904 321.399L234.495 320.624L239.147 318.686L241.474 316.747L241.086 314.033L238.76 314.421H234.495L232.944 313.258L232.557 311.707L232.169 280.304L231.006 275.651L228.68 271.774L225.578 269.448L221.313 267.897L215.886 267.122H212.009L204.643 268.285L199.603 270.224L195.726 272.55L193.399 274.488L191.073 278.365L190.686 279.916V283.793L191.849 284.568H197.276L201.153 283.018L202.316 279.916L203.479 275.264L205.03 272.938L208.132 271.774H212.009L215.11 272.938L213.56 273.325L211.621 272.938H207.744L205.806 273.325L205.418 274.488H204.643L204.255 277.59L203.479 278.365L202.704 283.018L201.153 284.568L196.501 285.731H191.073L189.91 284.568V278.753L191.849 274.876L195.338 270.999L201.929 267.897L208.907 266.347Z" fill="#F7FEFD"/>
        <path d="M148.426 266.347H161.995L167.423 267.51L171.688 269.836L173.626 270.999L178.278 275.651L180.992 279.916L182.931 284.181L183.706 287.67L184.094 293.873V298.138L183.318 302.79L181.768 307.83L179.829 311.319L177.115 314.809L171.688 319.073L166.647 321.399L162.383 322.562L159.281 322.95H153.078L145.712 321.787L140.672 319.849L137.57 318.298L135.244 315.584L134.081 314.809V314.033H133.306L130.592 310.156L129.041 307.055L126.715 300.076V289.221L128.653 282.63L129.429 282.242L129.816 280.691L132.143 276.427L133.693 274.876H134.469V274.101L137.183 271.774L138.733 270.224L145.712 267.122L148.426 266.347ZM151.527 266.734L145.324 268.285L139.121 271.387L134.469 275.264L130.979 279.916L129.041 284.181L127.878 288.058L127.49 290.771V297.75L128.266 302.402L130.204 307.442L132.143 310.932L135.632 315.196L139.896 318.298L144.549 320.624L148.813 321.787L151.14 322.175H160.057L166.26 320.624L171.688 317.91L175.564 314.809L178.278 311.707L180.604 307.83L182.543 302.79L183.318 298.913V289.996L181.768 283.793L179.054 278.365L176.34 274.876L172.851 271.774L167.423 268.673L162.383 267.122L160.444 266.734H151.527Z" fill="#F7FEFD"/>
        <path d="M145.712 55.4404L146.1 56.2158L138.733 60.8682L132.53 65.5205L127.103 70.1729L120.512 76.7637L120.124 77.5391H119.349L118.573 79.0898L113.533 85.6807L108.493 93.8223L104.229 102.352L100.739 112.044L98.4131 120.961L96.8623 130.266L96.4746 134.918V150.038L97.6377 159.73L99.5762 168.647L103.065 179.115L102.678 180.278L101.902 179.891L98.4131 169.423L97.6377 165.158L96.4746 159.343L95.6992 156.629L95.3115 148.875L94.9238 148.1V136.856L95.3115 136.081L95.6992 127.552L96.8623 124.062L98.0254 117.859L98.8008 114.37L100.739 108.167L101.902 104.29L103.453 101.576L104.229 99.6377L106.555 94.9854L108.881 90.7207L111.595 86.8438L114.309 82.5791L117.798 78.3145L120.899 74.4375L123.613 72.1113L125.164 70.1729H125.939L126.715 68.6221L129.041 67.0713L132.918 63.582L137.57 60.0928L141.447 57.7666H142.223V56.9912L144.161 55.8281L145.712 55.4404Z" fill="#F7FEFD"/>
        <path d="M127.103 81.0283L127.49 82.1914L124.001 86.0684L122.45 88.0068L119.736 92.2715L117.798 95.7607H117.022L116.635 97.3115L115.472 98.8623L114.309 101.576L111.982 106.229L110.044 111.656L107.718 117.859L106.942 122.124L106.167 125.226L105.392 129.878L105.004 135.693V151.977L106.555 161.669L108.105 167.872L109.656 173.3L111.595 177.177L113.533 182.217L114.696 183.38L116.247 187.257L119.349 192.297L120.512 193.46L121.287 195.786L122.45 196.174L124.001 198.5L125.939 201.214L127.878 202.765L128.653 205.091L125.939 202.765L122.062 198.112L116.635 189.971L113.146 183.768L110.044 177.177L107.718 170.586L105.392 162.057L104.229 155.078L103.453 146.937V138.02L104.616 127.164L106.167 119.798L108.493 112.044L110.432 107.004L114.309 98.8623L118.186 92.2715L122.062 86.8438L126.327 81.8037L127.103 81.0283Z" fill="#F7FEFD"/>
        <path d="M171.299 161.281L175.176 162.057L190.296 166.321L196.111 168.647L199.988 170.974L201.927 173.688V177.177L199.601 180.666L196.111 182.992L189.133 186.094L171.299 193.072L162.382 196.949L156.566 200.051L152.689 202.765L149.588 205.479L147.262 209.355L145.711 213.232L144.548 219.436H143.385L141.446 217.497L139.12 214.783L133.692 210.519L130.203 207.029L129.428 206.642V205.866H128.652V205.091H129.815L134.468 209.743V210.519L136.406 211.294L141.059 214.783L142.222 216.722L143.385 217.109L144.548 212.457L145.711 208.968L146.874 207.417H147.649L148.425 205.479L150.751 202.377L157.342 198.5L158.893 197.725L160.056 196.562L168.585 192.685L172.462 191.521L173.237 190.746L177.114 189.583L181.767 187.645L185.256 186.481L189.133 184.543L192.622 183.38L194.173 182.217L196.887 181.441L199.601 179.503L200.764 176.789V174.463H199.988L199.213 172.137L196.499 170.198L192.622 168.647L189.521 167.484L183.705 165.546L179.828 164.771L172.074 162.444L171.299 161.281Z" fill="#F7FDFC"/>
        <path d="M270.938 87.6191L272.489 89.1699L276.366 94.9854L281.794 105.453L284.896 113.595L287.222 121.736L288.772 130.266L289.548 141.121L289.16 150.813L287.997 159.343L285.671 169.423L281.794 179.891L276.754 189.583L272.877 195.398L270.938 198.112L270.551 196.949L272.877 193.072H273.652L274.428 191.134L276.754 187.645L278.692 183.38L280.631 179.503L281.794 176.014L283.345 173.3L285.671 163.995L286.834 158.955L287.609 155.078L287.997 148.875V138.407L287.609 129.878L285.671 120.961L285.283 118.247L284.12 115.533L282.569 110.493L279.08 102.352L277.529 99.25L275.203 96.1484L272.489 90.7207L270.938 88.7822V87.6191Z" fill="#F7FEFD"/>
        <path d="M154.241 271.387H157.343L160.057 272.162L163.546 274.876L165.484 277.59L167.423 283.405L168.198 287.282L168.586 297.75L167.811 304.341L166.26 309.381L164.321 313.258L161.607 315.972L157.73 317.522H154.241L150.752 316.359L147.65 313.646L145.324 309.769L143.773 305.116L142.998 300.464V289.221L144.549 281.467L147.263 276.039L149.589 273.325L152.69 271.774L154.241 271.387ZM153.854 272.162L151.14 273.325V274.101H150.364V274.876L148.813 275.651L146.875 277.978L145.324 282.242L144.549 287.282L143.386 290.771V299.301L146.1 309.769L149.201 314.033L151.915 315.972L153.466 316.747H158.118L160.057 315.972L161.22 314.809L162.771 314.033L164.321 311.319V310.544H165.097L166.26 307.442L167.423 300.852V289.608L167.035 285.344L166.26 282.63L165.872 279.528L163.546 276.427L160.057 272.938L157.73 272.162H153.854Z" fill="#F7FEFD"/>
        <path d="M187.971 41.8711H206.58L208.519 42.6465L213.946 43.0342L219.374 44.1973L227.903 46.1357L230.617 47.2988L234.882 49.2373L239.922 51.1758L246.125 54.2773L246.513 55.4404L244.187 54.665L237.983 51.5635L229.066 48.0742L219.374 45.3604L210.457 43.8096L201.54 43.0342H192.235L182.543 43.8096L172.851 45.748L163.546 48.4619L155.404 51.5635L147.65 55.4404H146.875V54.665L151.915 51.9512H153.078V51.1758L155.792 50.0127L159.669 48.8496L166.647 46.1357L174.401 43.8096L179.829 43.0342L185.645 42.6465L187.971 41.8711Z" fill="#F7FEFD"/>
        <path d="M84.4561 250.839H91.8223L96.8623 252.39L100.352 255.104L102.29 257.43L103.841 260.919L104.229 262.857V269.448L103.065 273.713L100.739 277.59L97.25 280.691L92.9854 282.63L89.1084 283.405H82.5176V251.227L84.4561 250.839ZM84.4561 251.614L83.293 252.39V282.242L83.6807 282.63H89.8838L93.7607 281.467L97.25 279.528V278.753L98.8008 278.365L101.515 274.876L101.902 272.938L103.065 272.55L103.453 266.347L103.841 264.796L103.065 260.531L102.29 259.756L101.127 257.042L99.1885 254.716L97.25 253.94L96.4746 253.165L93.7607 252.002L91.4346 251.614H84.4561Z" fill="#F7FEFD"/>
        <path d="M186.42 50.7881H190.685L190.297 51.5635L183.706 52.3389L175.564 53.8896L171.688 54.665L168.198 55.8281L165.484 56.2158V56.9912L161.607 58.542L158.118 59.7051L150.752 63.582L148.426 65.1328L144.161 67.459L143.386 67.8467L142.998 69.0098L139.896 70.5605L136.02 74.0498L134.469 74.8252L131.755 77.9268L128.266 81.0283L127.49 80.6406L130.204 77.5391L133.306 74.8252L137.57 70.9482L143.386 66.6836L150.752 62.0312L158.894 58.1543L167.035 55.0527L175.177 52.7266L183.318 51.1758L186.42 50.7881Z" fill="#F7FEFD"/>
        <path d="M194.95 82.9668H198.439L201.929 84.5176L204.643 86.8438L206.193 89.9453L206.581 93.0469L205.418 96.9238L203.867 99.25L199.99 101.576L198.439 101.964H194.95L191.073 100.413L189.135 98.4746L187.584 96.5361L186.809 93.8223V90.7207L187.972 87.6191L189.522 85.6807L192.236 83.7422L194.95 82.9668ZM194.95 83.7422L190.298 86.4561L188.359 89.1699L187.972 89.9453V94.9854L190.298 99.25L193.012 100.025L195.338 101.188L199.215 100.801L202.704 99.25L203.479 98.8623V97.3115H204.255L205.418 94.5977V90.7207L203.867 88.0068L202.316 85.6807L198.439 83.7422H194.95Z" fill="#F7FEFD"/>
        <path d="M215.109 273.325L216.66 274.101L218.211 276.039L218.986 278.753V288.058L210.845 290.384L201.54 293.485L195.337 296.587L192.235 298.913L189.909 301.627L188.746 303.953L188.358 305.892V311.707L189.909 315.972V317.135L188.746 316.359L187.195 312.095V306.279L188.358 301.627L190.297 298.913L192.235 297.362H193.011L193.398 296.199L199.214 293.098L206.192 290.771L206.968 289.996L211.62 288.833L215.109 288.058L217.823 287.282L218.211 285.731V279.528L216.66 275.651L215.109 274.101V273.325Z" fill="#F7FEFD"/>
        <path d="M218.211 292.322H218.986V309.769L214.722 313.258L212.783 314.033H207.355L205.029 312.87L203.866 311.707L203.091 309.769L202.703 305.892L203.479 302.402L205.417 299.301L207.355 297.362L211.232 294.648L218.211 292.322ZM217.436 293.485L215.109 294.261L210.845 295.812V296.587L208.906 296.975L206.968 298.525L205.805 300.076V300.852H205.029L203.866 304.729V308.993L205.417 312.095L207.355 313.258L211.62 313.646L215.497 311.707L216.66 310.544L218.599 309.381V297.75L218.211 294.261L217.436 293.485Z" fill="#F7FEFD"/>
        <path d="M202.703 50.7881H207.355L216.66 52.3389L225.577 54.665L235.27 58.542L243.799 62.8066L251.94 68.2344L250.777 68.6221L248.451 67.459V66.6836L246.513 65.9082L243.023 64.3574V63.582L241.473 63.1943V62.4189L239.922 62.0312L233.719 58.9297L224.414 55.4404L212.783 52.7266L209.294 52.3389L208.519 51.9512L203.091 51.5635L202.703 50.7881Z" fill="#F7FEFD"/>
        <path d="M58.0918 316.359L58.8672 316.747L58.4795 320.624L91.0459 320.236V316.359L92.209 316.747L92.5967 317.522V319.849L91.0459 321.787H58.8672L57.7041 321.012L57.3164 318.686L58.0918 316.359Z" fill="#F7FEFD"/>
        <path d="M86.7822 287.67H88.7207L90.6592 291.159L90.2715 291.935L87.5576 288.833L83.6807 289.608V312.87L85.2314 314.421L88.7207 315.584L91.0469 315.972V316.359H86.0068L84.0684 315.584L82.9053 314.421L82.5176 313.258V288.058L86.7822 287.67Z" fill="#F7FEFD"/>
        <path d="M252.328 69.0098L253.879 69.7852L258.144 73.2744L262.796 77.5391L267.061 82.1914L270.938 86.8438L270.55 87.6191L268.611 86.0684L266.673 83.7422V82.9668H265.897V82.1914H265.122L263.959 80.2529L260.857 77.5391L258.144 74.4375L256.98 74.0498V73.2744H256.205V72.499L254.654 71.7236L252.328 69.7852V69.0098Z" fill="#F7FEFD"/>
        <path d="M103.066 180.278L103.842 181.054L108.106 189.971L109.27 191.909V192.685L107.719 191.909L105.393 187.257L103.454 182.992L103.066 180.278Z" fill="#F7FEFD"/>
        <path d="M199.99 194.429C183.736 206.619 172.784 209.963 165.291 224.088C165.291 224.088 173.82 228.934 180.799 222.925C183.63 212.252 199.408 201.39 204.836 196.949C211.233 191.715 212.202 190.358 216.467 184.155C219.375 177.952 219.568 172.331 209.682 164.577C202.572 159 185.451 158.18 185.451 158.18C198.245 159.343 206.581 166.709 206.581 166.709C206.581 166.709 217.436 174.075 212.59 181.441C208.678 187.387 207.744 188.614 199.99 194.429Z" fill="#7D7875"/>
    </g>
    <defs>
        <linearGradient id="paint0_linear_884_11302" x1="168.586" y1="294.455" x2="151" y2="294.455" gradientUnits="userSpaceOnUse">
            <stop stop-color="#F5D5BE"/>
            <stop offset="1" stop-color="#4D413A"/>
        </linearGradient>
        <clipPath id="clip0_884_11302">
            <rect width="397" height="397" fill="white" transform="translate(-2)"/>
        </clipPath>
    </defs>
</svg>
