<svg width="393" height="393" viewBox="0 0 393 393" fill="none" xmlns="http://www.w3.org/2000/svg">
    <g clip-path="url(#clip0_1783_10554)">
        <path d="M73.6875 85.9688H236.798L245.625 86.7363L255.22 88.6553L264.431 91.7256L273.258 95.9473L280.55 100.937L284.771 104.391L290.528 109.764L294.75 114.753L298.204 119.742L301.274 124.731L305.112 132.791L307.415 139.699L309.334 147.375L310.102 153.516V168.1L308.566 176.927L306.647 183.451L303.193 191.511L299.355 198.419L294.75 204.56L289.377 210.316L285.155 214.154L282.469 216.073H281.701L283.62 221.062L288.609 231.425L293.599 242.171L300.123 255.604L306.647 269.42L314.323 285.155L318.545 293.982L323.15 303.961L324.686 306.647V307.415H280.166L277.479 306.647L274.409 303.961L270.955 297.82L265.582 286.69L261.36 277.863L251.766 258.29L247.544 249.463L244.09 242.171L241.02 236.03L239.484 233.344L233.344 232.96L184.986 233.344L181.148 240.636L176.927 249.463L172.705 257.906L167.716 268.652L163.11 277.863L158.889 286.69L154.283 296.285L151.213 302.042L149.678 303.961L146.607 306.264L143.153 307.415H73.6875V85.9688Z" fill="#5D9E9E"/>
        <path d="M117.056 127.418H237.565L245.625 129.337L251.766 132.407L256.755 136.245L259.825 139.315L263.279 144.305L265.582 149.294L267.117 155.818V164.262L265.582 170.402L262.512 176.543L259.441 180.381L255.604 184.219L250.23 187.673L244.474 189.976L238.717 191.127L235.646 191.511L163.878 191.895L160.808 192.662L158.889 193.813L156.202 198.035L151.597 207.63L146.607 218.376L141.618 228.738L136.629 239.484L129.721 254.068L123.58 267.117L121.661 270.571L121.277 270.955H117.439L117.056 270.571V127.418Z" fill="#080D11"/>
        <path d="M212.619 267.885L218.76 268.269L223.365 269.42L227.203 270.955L231.809 274.409L234.495 277.096L237.565 282.469L239.101 286.69L239.868 290.528V295.901L238.717 301.658L235.646 308.95L231.425 315.858L227.587 321.231L223.365 326.604L219.527 330.826L216.841 333.896L214.538 336.199L213.003 335.432L211.468 334.28V333.513H210.7L208.014 330.442L204.56 326.604L200.338 321.231L195.349 313.939L193.046 310.102L190.359 303.961L188.824 298.588L188.44 296.285V291.296L189.592 285.923L191.127 282.085L193.813 277.479L198.035 273.258L203.408 270.188L208.014 268.652L212.619 267.885Z" fill="#5D9E9E"/>
    </g>
    <defs>
        <clipPath id="clip0_1783_10554">
            <rect width="393" height="393" fill="white"/>
        </clipPath>
    </defs>
</svg>
