<svg width="20" height="19" viewBox="0 0 20 19" fill="none" xmlns="http://www.w3.org/2000/svg">
    <path d="M9 18.5V16.5H17V9.4C17 7.45 16.321 5.796 14.963 4.438C13.605 3.08 11.9507 2.40067 10 2.4C8.04933 2.39933 6.39533 3.07867 5.038 4.438C3.68067 5.79733 3.00133 7.45133 3 9.4V15.5H2C1.45 15.5 0.979333 15.3043 0.588 14.913C0.196667 14.5217 0.000666667 14.0507 0 13.5V11.5C0 11.15 0.0876667 10.821 0.263 10.513C0.438333 10.205 0.684 9.959 1 9.775L1.075 8.45C1.20833 7.31667 1.53767 6.26667 2.063 5.3C2.58833 4.33333 3.24667 3.49167 4.038 2.775C4.82933 2.05833 5.73733 1.5 6.762 1.1C7.78667 0.7 8.866 0.5 10 0.5C11.134 0.5 12.209 0.7 13.225 1.1C14.241 1.5 15.1493 2.05433 15.95 2.763C16.7507 3.47167 17.409 4.309 17.925 5.275C18.441 6.241 18.7743 7.291 18.925 8.425L19 9.725C19.3167 9.875 19.5627 10.1 19.738 10.4C19.9133 10.7 20.0007 11.0167 20 11.35V13.65C20 13.9833 19.9127 14.3 19.738 14.6C19.5633 14.9 19.3173 15.125 19 15.275V16.5C19 17.05 18.8043 17.521 18.413 17.913C18.0217 18.305 17.5507 18.5007 17 18.5H9ZM7 11.5C6.71667 11.5 6.47933 11.404 6.288 11.212C6.09667 11.02 6.00067 10.7827 6 10.5C5.99933 10.2173 6.09533 9.98 6.288 9.788C6.48067 9.596 6.718 9.5 7 9.5C7.282 9.5 7.51967 9.596 7.713 9.788C7.90633 9.98 8.002 10.2173 8 10.5C7.998 10.7827 7.902 11.0203 7.712 11.213C7.522 11.4057 7.28467 11.5013 7 11.5ZM13 11.5C12.7167 11.5 12.4793 11.404 12.288 11.212C12.0967 11.02 12.0007 10.7827 12 10.5C11.9993 10.2173 12.0953 9.98 12.288 9.788C12.4807 9.596 12.718 9.5 13 9.5C13.282 9.5 13.5197 9.596 13.713 9.788C13.9063 9.98 14.002 10.2173 14 10.5C13.998 10.7827 13.902 11.0203 13.712 11.213C13.522 11.4057 13.2847 11.5013 13 11.5ZM4.025 9.95C3.90833 8.18333 4.44167 6.66667 5.625 5.4C6.80833 4.13333 8.28333 3.5 10.05 3.5C11.5333 3.5 12.8377 3.97067 13.963 4.912C15.0883 5.85333 15.7673 7.058 16 8.526C14.4833 8.50867 13.0877 8.1 11.813 7.3C10.5383 6.5 9.559 5.41667 8.875 4.05C8.60833 5.38333 8.046 6.571 7.188 7.613C6.33 8.655 5.27567 9.434 4.025 9.95Z" fill="url(#paint0_linear_928_16879)"/>
    <defs>
        <linearGradient id="paint0_linear_928_16879" x1="10.029" y1="-4.41539" x2="10.029" y2="17.1846" gradientUnits="userSpaceOnUse">
            <stop stop-color="#488686"/>
            <stop offset="1" stop-color="#2B5151"/>
        </linearGradient>
    </defs>
</svg>
