<svg width="61" height="60" viewBox="0 0 61 60" fill="none" xmlns="http://www.w3.org/2000/svg">
    <g clip-path="url(#clip0_119_6549)">
        <path d="M30.5 60C47.0685 60 60.5 46.5685 60.5 30C60.5 13.4315 47.0685 0 30.5 0C13.9315 0 0.5 13.4315 0.5 30C0.5 46.5685 13.9315 60 30.5 60Z" fill="url(#paint0_linear_119_6549)"/>
        <path d="M43.5757 29.0446L39.1019 24.5708C39.0087 24.4776 38.9155 24.431 38.7757 24.431H34.3485C34.1155 24.431 33.8825 24.664 33.8825 24.897V34.6835H16.966C16.733 34.6835 16.5 34.9165 16.5 35.1495V39.2971C16.5 39.5767 16.733 39.7631 16.966 39.7631H19.5291C19.5291 39.6233 19.4825 39.4369 19.4825 39.2971C19.4825 37.2932 21.1136 35.6621 23.1175 35.6621C25.1214 35.6621 26.7524 37.2932 26.7524 39.2971C26.7524 39.4369 26.7524 39.6233 26.7058 39.7631H33.6029C33.6029 39.6233 33.5563 39.4369 33.5563 39.2971C33.5563 37.2932 35.1874 35.6621 37.1913 35.6621C39.1951 35.6621 40.8262 37.2932 40.8262 39.2971C40.8262 39.4369 40.8262 39.6233 40.7796 39.7631H43.3427C43.6223 39.7631 43.8087 39.5767 43.8087 39.2971V29.4174C43.7155 29.2776 43.6689 29.1378 43.5757 29.0446ZM41.5252 31.9805H36.1194V26.6679H37.5641L41.5718 30.6757V31.9805H41.5252Z" fill="white"/>
        <path d="M37.1451 36.5942C35.6539 36.5942 34.4422 37.8058 34.4422 39.2971C34.4422 40.7883 35.6539 42 37.1451 42C38.6364 42 39.848 40.7883 39.848 39.2971C39.8014 37.8058 38.6364 36.5942 37.1451 36.5942ZM23.0713 36.5942C21.5801 36.5942 20.3684 37.8058 20.3684 39.2971C20.3684 40.7883 21.5801 42 23.0713 42C24.5626 42 25.7742 40.7883 25.7742 39.2971C25.7742 37.8058 24.5626 36.5942 23.0713 36.5942ZM18.8772 29.7903C19.7626 29.7903 20.5082 29.0447 20.5082 28.1592C20.5082 27.4136 19.9956 26.8078 19.3432 26.5748V21.7282L25.0752 32.4H24.4228C23.4908 32.4 22.7451 32.9592 22.3723 33.7049H32.9975V33.0058C32.5781 32.633 32.0655 32.4 31.4597 32.4H30.7141L20.9276 18.6058C20.648 18.233 20.2286 18 19.7626 18C19.25 18 18.784 18.2796 18.5043 18.699C18.2713 19.0718 18.2247 19.5845 18.4111 20.0039V26.9942C18.4111 27.2738 18.5975 27.4602 18.8772 27.4602C19.25 27.4602 19.5762 27.7864 19.5762 28.1592C19.5762 28.532 19.25 28.8583 18.8772 28.8583C18.5043 28.8583 18.1781 28.532 18.1781 28.1592C18.1781 27.8796 17.9917 27.6932 17.7121 27.6932C17.4325 27.6932 17.2461 27.8796 17.2461 28.1592C17.2461 29.0447 17.9917 29.7903 18.8772 29.7903ZM19.7626 18.8388C20.0422 18.8388 20.2752 19.0718 20.2752 19.3515C20.2752 19.6311 20.0422 19.8641 19.7626 19.8641C19.483 19.8641 19.25 19.6311 19.25 19.3515C19.25 19.0718 19.4364 18.8388 19.7626 18.8388Z" fill="white"/>
    </g>
    <defs>
        <linearGradient id="paint0_linear_119_6549" x1="30.5" y1="0" x2="30.5" y2="60" gradientUnits="userSpaceOnUse">
            <stop stop-color="#345756"/>
            <stop offset="1" stop-color="#71BDBB"/>
        </linearGradient>
        <clipPath id="clip0_119_6549">
            <rect width="60" height="60" fill="white" transform="translate(0.5)"/>
        </clipPath>
    </defs>
</svg>
