<svg width="60" height="60" viewBox="0 0 60 60" fill="none" xmlns="http://www.w3.org/2000/svg">
    <path d="M30 60C46.5685 60 60 46.5685 60 30C60 13.4315 46.5685 0 30 0C13.4315 0 0 13.4315 0 30C0 46.5685 13.4315 60 30 60Z" fill="url(#paint0_linear_119_6519)"/>
    <path d="M42.7554 37.5275C42.8307 37.8328 42.833 38.1515 42.7623 38.4578C42.6916 38.7641 42.5497 39.0495 42.3483 39.2909C40.8587 41.0778 38.9945 42.5154 36.8878 43.5019C34.781 44.4884 32.4831 44.9998 30.1568 44.9998C27.8305 44.9998 25.5326 44.4884 23.4259 43.5019C21.3191 42.5154 19.4549 41.0778 17.9653 39.2909C17.7639 39.0495 17.6221 38.7641 17.5514 38.4578C17.4806 38.1515 17.483 37.8328 17.5582 37.5275C18.2496 34.7221 19.8571 32.2275 22.1263 30.4389C22.4647 30.1735 22.8809 30.0265 23.3109 30.0203C23.741 30.0142 24.1612 30.1492 24.5071 30.4048C26.015 31.5262 27.9918 32.2055 30.1536 32.2055C32.3154 32.2055 34.2915 31.5262 35.8002 30.4048C36.1461 30.1492 36.5663 30.0142 36.9964 30.0203C37.4264 30.0265 37.8426 30.1735 38.181 30.4389C40.4525 32.2266 42.0624 34.7212 42.7554 37.5275Z" fill="white"/>
    <path d="M30.1558 29.5849C34.1833 29.5849 37.4483 26.3199 37.4483 22.2923C37.4483 18.2648 34.1833 14.9998 30.1558 14.9998C26.1282 14.9998 22.8633 18.2648 22.8633 22.2923C22.8633 26.3199 26.1282 29.5849 30.1558 29.5849Z" fill="white"/>
    <defs>
        <linearGradient id="paint0_linear_119_6519" x1="30" y1="0" x2="30" y2="60" gradientUnits="userSpaceOnUse">
            <stop stop-color="#345756"/>
            <stop offset="1" stop-color="#71BDBB"/>
        </linearGradient>
    </defs>
</svg>
