<svg width="24" height="25" viewBox="0 0 24 25" fill="none" xmlns="http://www.w3.org/2000/svg">
    <path d="M3.43782 8.26871C3.39699 8.31767 3.36013 8.36981 3.32758 8.42463H5.43838C5.85894 8.42463 6.26278 8.59735 6.57542 8.91079C6.93838 9.27471 7.14574 9.79679 7.14438 10.3432L7.13974 13.6155H8.04278V7.83887H4.32558C3.99446 7.83887 3.67086 7.99551 3.43782 8.26871ZM6.95558 13.9829H5.65822C4.78302 13.9829 4.06294 14.7582 3.98654 15.7437H4.26654C4.5107 14.9916 5.21734 14.4459 6.04974 14.4459C6.88214 14.4459 7.58878 14.9916 7.83294 15.7437H8.04286V13.9829H6.95582H6.95558Z" fill="#333333"/>
    <path d="M6.04973 14.8139C5.21837 14.8139 4.54205 15.4903 4.54205 16.3217C4.54205 17.1531 5.21845 17.8294 6.04973 17.8294C6.88101 17.8294 7.55741 17.1531 7.55741 16.3217C7.55741 15.4903 6.88101 14.8139 6.04973 14.8139ZM6.04973 17.3957C5.45045 17.3957 4.96285 16.9081 4.96285 16.3088C4.96285 15.7095 5.45045 15.2219 6.04973 15.2219C6.64901 15.2219 7.13661 15.7095 7.13661 16.3088C7.13661 16.9081 6.64901 17.3957 6.04973 17.3957ZM10.8634 11.8935C11.1566 11.9237 11.4457 11.8404 11.6757 11.6549C11.7891 11.564 11.8833 11.4516 11.953 11.324C12.0226 11.1965 12.0663 11.0564 12.0814 10.9119C12.0973 10.7675 12.0845 10.6213 12.0435 10.4819C12.0026 10.3425 11.9344 10.2126 11.8429 10.0998C11.7521 9.98638 11.6397 9.89212 11.5121 9.82246C11.3846 9.7528 11.2446 9.70912 11.1001 9.69395C11.0708 9.69099 11.0417 9.68883 11.0126 9.68803C10.7495 9.67988 10.4923 9.76662 10.2878 9.93243C10.1744 10.0233 10.0801 10.1357 10.0105 10.2633C9.94083 10.3908 9.89718 10.5309 9.88205 10.6755C9.86611 10.8199 9.87897 10.966 9.91989 11.1055C9.96081 11.2449 10.029 11.3748 10.1205 11.4877C10.2113 11.6011 10.3238 11.6953 10.4513 11.765C10.5788 11.8346 10.7189 11.8783 10.8634 11.8935ZM11.0109 10.683C10.9754 10.6792 10.9411 10.6684 10.9099 10.6514C10.8786 10.6343 10.851 10.6113 10.8286 10.5835C10.8063 10.5558 10.7896 10.5239 10.7796 10.4898C10.7695 10.4556 10.7663 10.4198 10.7701 10.3843C10.7861 10.2355 10.9202 10.1222 11.0689 10.1438C11.4188 10.1814 11.6729 10.4967 11.6353 10.8465C11.5993 11.1799 11.3117 11.4261 10.9822 11.4163C10.9656 11.4159 10.9489 11.4148 10.9324 11.4129C10.7834 11.397 10.6757 11.2632 10.6917 11.1143C10.7077 10.9653 10.8413 10.8535 10.9904 10.8737C11.0432 10.8806 11.0902 10.8411 11.0958 10.7887C11.0985 10.7634 11.0911 10.7381 11.0752 10.7183C11.0592 10.6985 11.0361 10.6858 11.0109 10.683ZM15.1117 15.5893C14.715 15.5893 14.3922 15.9121 14.3922 16.3088C14.3922 16.7055 14.715 17.0283 15.1117 17.0283C15.5085 17.0283 15.8313 16.7055 15.8313 16.3088C15.8313 15.9121 15.5085 15.5893 15.1117 15.5893Z" fill="#333333"/>
    <path d="M15.1118 14.8132C14.2804 14.8132 13.6041 15.4895 13.6041 16.321C13.6041 17.1523 14.2805 17.8286 15.1118 17.8286C15.943 17.8286 16.6194 17.1523 16.6194 16.321C16.6194 15.4895 15.943 14.8132 15.1118 14.8132ZM15.1118 17.395C14.5125 17.395 14.0249 16.9074 14.0249 16.3081C14.0249 15.7088 14.5125 15.2212 15.1118 15.2212C15.711 15.2212 16.1986 15.7088 16.1986 16.3081C16.1986 16.9074 15.711 17.395 15.1118 17.395ZM5.65823 13.6154H6.77239L6.77703 10.3424C6.77815 9.89257 6.60999 9.46553 6.31535 9.17025C6.07207 8.92625 5.76063 8.79193 5.43839 8.79193H3.16871C3.15743 8.82953 3.14527 8.86633 3.13615 8.90569C3.08135 9.14025 2.98775 9.49761 2.88855 9.87585C2.67655 10.685 2.38623 11.7929 2.38623 12.0677V15.7423L3.61791 15.7341C3.70095 14.5502 4.58431 13.6154 5.65823 13.6154ZM6.08791 12.4504H5.47343C5.42565 12.449 5.38031 12.429 5.34701 12.3947C5.31372 12.3604 5.29509 12.3145 5.29509 12.2667C5.29509 12.2189 5.31372 12.173 5.34701 12.1387C5.38031 12.1044 5.42565 12.0845 5.47343 12.083H6.08791C6.13569 12.0845 6.18103 12.1044 6.21433 12.1387C6.24763 12.173 6.26625 12.2189 6.26625 12.2667C6.26625 12.3145 6.24763 12.3604 6.21433 12.3947C6.18103 12.429 6.13569 12.449 6.08791 12.4504ZM3.22959 12.434C3.17526 12.4527 3.11674 12.4555 3.06086 12.4422C3.00499 12.4288 2.95407 12.3998 2.91407 12.3586C2.87322 12.3172 2.84499 12.2651 2.83266 12.2084C2.82034 12.1516 2.82443 12.0925 2.84447 12.0379C2.97887 11.6661 3.23447 10.947 3.40471 10.4672C3.53223 10.1077 3.87183 9.86609 4.24967 9.86609H6.08791C6.13662 9.86611 6.18333 9.88547 6.21777 9.91991C6.25221 9.95435 6.27157 10.0011 6.27159 10.0498V10.8239C6.27159 11.1695 6.05383 11.4756 5.72983 11.5855L3.22959 12.434ZM4.82591 6.79297H4.53295C4.50391 7.02025 4.46967 7.28777 4.44575 7.47129H4.93191L4.82591 6.79297Z" fill="#333333"/>
    <path d="M2.20255 16.1108C2.17842 16.1109 2.15451 16.1061 2.13221 16.0969C2.1099 16.0877 2.08964 16.0742 2.07257 16.0571C2.05551 16.04 2.04198 16.0197 2.03277 15.9974C2.02355 15.9751 2.01883 15.9512 2.01887 15.9271V15.2877H1.70791C1.70999 15.2878 1.70415 15.2948 1.70639 15.3066L1.86855 16.164C1.88159 16.2328 1.93503 16.2826 1.99575 16.2826H3.61159V16.1013L2.20383 16.1108L2.20255 16.1108ZM5.90423 10.8239V10.2334H4.24975C4.02711 10.2334 3.82671 10.3767 3.75103 10.59C3.57901 11.0753 3.40618 11.5602 3.23255 12.0448L5.61199 11.2374C5.78679 11.1782 5.90423 11.012 5.90423 10.8239ZM6.04975 15.5884C5.65303 15.5884 5.33023 15.9112 5.33023 16.308C5.33023 16.7047 5.65303 17.0275 6.04975 17.0275C6.44647 17.0275 6.76927 16.7047 6.76927 16.308C6.76927 15.9112 6.44647 15.5884 6.04975 15.5884ZM12.2279 12.9137H12.2217C11.7807 12.9137 11.3896 12.5645 11.2222 12.415C11.2032 12.3981 11.1881 12.3845 11.177 12.3754C11.0206 12.2476 10.7937 12.183 10.5026 12.183H8.41031V13.6161L19.9111 13.666C19.9299 13.6661 19.9486 13.6692 19.9665 13.6749L22.1582 14.3788V13.585L19.8838 12.9138H12.2279V12.9137Z" fill="#333333"/>
    <path d="M8.41022 13.9837V15.7436H13.3285C13.5727 14.9915 14.2793 14.4459 15.1117 14.4459C15.9441 14.4459 16.6508 14.9915 16.8949 15.7436H18.2624L18.7475 15.1125C18.7647 15.0902 18.7867 15.0721 18.812 15.0597C18.8372 15.0472 18.865 15.0408 18.8932 15.0407H18.8937L20.0874 15.0442L20.4249 14.2081L19.8811 14.0335L8.41022 13.9837ZM20.1518 12.6119C20.4489 12.6425 20.7409 12.558 20.9736 12.3705C21.0883 12.2785 21.1837 12.1648 21.2542 12.0357C21.3246 11.9066 21.3688 11.7649 21.3841 11.6187C21.4003 11.4726 21.3872 11.3247 21.3458 11.1837C21.3044 11.0426 21.2354 10.9112 21.1429 10.7971C21.0509 10.6823 20.9371 10.5869 20.8081 10.5164C20.6791 10.446 20.5373 10.4018 20.3911 10.3864C20.3617 10.3833 20.3322 10.3813 20.3027 10.3804C20.0365 10.3722 19.7763 10.4599 19.5694 10.6277C19.4547 10.7196 19.3593 10.8334 19.2888 10.9625C19.2184 11.0915 19.1742 11.2333 19.1589 11.3795C19.1269 11.6767 19.2126 11.9686 19.4001 12.2013C19.5877 12.434 19.8546 12.5798 20.1518 12.6119ZM20.3596 10.8415C20.7137 10.8795 20.9708 11.1986 20.9329 11.5524C20.9248 11.6246 20.8886 11.6906 20.832 11.7361C20.7754 11.7815 20.703 11.8027 20.6309 11.795C20.5587 11.7873 20.4925 11.7513 20.4468 11.6949C20.4011 11.6384 20.3796 11.5662 20.387 11.494C20.3897 11.4684 20.3822 11.4428 20.3661 11.4228C20.35 11.4028 20.3266 11.3899 20.301 11.3871C20.2755 11.3846 20.2501 11.3922 20.2302 11.4083C20.2102 11.4244 20.1974 11.4476 20.1945 11.4731C20.1782 11.6236 20.0425 11.7349 19.8922 11.7165C19.8564 11.7126 19.8217 11.7018 19.79 11.6845C19.7584 11.6672 19.7305 11.6439 19.7079 11.6159C19.6853 11.5878 19.6684 11.5556 19.6582 11.521C19.6481 11.4864 19.6448 11.4502 19.6487 11.4143C19.6869 11.0607 20.0073 10.8008 20.3596 10.8415Z" fill="#333333"/>
    <path d="M20.5695 8.45413L20.5208 8.51989C20.4353 8.63521 20.3234 8.72827 20.1944 8.79122C20.0654 8.85417 19.9231 8.88516 19.7796 8.88157L17.1079 8.81413H17.1076L12.9268 8.70861L12.9255 8.70853C12.8617 8.70717 12.8004 8.68348 12.7523 8.6416C12.7042 8.59972 12.6723 8.5423 12.6622 8.47933C12.6509 8.41627 12.6622 8.35126 12.6941 8.2957C12.726 8.24013 12.7764 8.19757 12.8365 8.17549L15.2788 7.25461C15.9372 6.9954 16.6511 6.9093 17.3523 7.00453L17.4503 7.02413C17.452 7.02445 17.4537 7.02429 17.4555 7.02469C17.4568 7.02501 17.458 7.02565 17.4594 7.02597L20.0938 7.55301C20.0984 7.55389 20.103 7.55493 20.1076 7.55629C20.3867 7.63485 20.611 7.77765 20.7556 7.96597C20.76 7.97125 20.7641 7.97661 20.7678 7.98221C20.7981 8.02365 20.8247 8.06709 20.8472 8.11245C20.9687 8.35725 20.9708 8.64405 20.8535 8.94157L20.7954 9.09237L22.0688 9.22933L21.7259 8.15117C21.6641 7.95798 21.5484 7.78645 21.3925 7.65669C21.2366 7.52693 21.0469 7.44434 20.8457 7.41861C20.8411 7.41798 20.8365 7.41724 20.832 7.41637L17.6164 6.76109C16.747 6.58365 15.5381 6.69421 14.8045 7.01773C14.6853 7.06229 12.2822 7.94749 10.7924 8.02397L10.7798 8.06557C10.7266 8.24204 10.6183 8.39683 10.4707 8.50721C10.3231 8.6176 10.144 8.67778 9.95972 8.67893L9.32828 8.68461C9.26991 8.80493 9.23262 8.93439 9.21804 9.06733L9.20228 9.21405C9.17396 9.47741 9.37924 9.82773 9.55444 10.0658C9.64897 9.92024 9.76185 9.78744 9.89028 9.67069C10.1573 9.43021 10.6136 9.16021 11.268 9.24269C11.7072 9.29765 12.0748 9.53189 12.3309 9.92029C12.4838 10.152 12.579 10.415 12.6158 10.6033L18.6329 11.2602C18.7618 10.7371 19.1792 10.0104 20.0816 9.92357L20.344 9.24205C20.3442 9.23749 20.3436 9.23309 20.3441 9.22853C20.3483 9.18981 20.3644 9.15501 20.3882 9.12741L20.5112 8.80813C20.5615 8.68045 20.5809 8.56205 20.5695 8.45413ZM16.7096 9.45781H16.7086L15.9865 9.43253C15.9387 9.42972 15.8939 9.40835 15.8616 9.37298C15.8293 9.33761 15.8121 9.29103 15.8136 9.24316C15.8152 9.19529 15.8354 9.14992 15.8699 9.1167C15.9044 9.08349 15.9505 9.06505 15.9984 9.06533H15.9993L16.7214 9.09061C16.7692 9.09342 16.814 9.11479 16.8463 9.15016C16.8786 9.18553 16.8958 9.23211 16.8943 9.27997C16.8927 9.32784 16.8726 9.37321 16.8381 9.40643C16.8036 9.43965 16.7575 9.45808 16.7096 9.45781ZM10.4019 8.02525C10.1102 8.01829 9.82663 8.12169 9.60788 8.31477L9.95612 8.31165C10.0499 8.31101 10.1416 8.28375 10.2205 8.23305C10.2994 8.18235 10.3623 8.11029 10.4019 8.02525Z" fill="#333333"/>
    <path d="M17.559 7.42052L17.3389 8.45284L19.789 8.51468C19.8736 8.51679 19.9573 8.49853 20.0333 8.46145C20.1093 8.42437 20.1753 8.36956 20.2256 8.30164L20.3771 8.097C20.2853 8.01732 20.163 7.95468 20.0146 7.91212L17.559 7.42052ZM13.4066 8.35348L16.9652 8.44332L17.197 7.35668C17.1011 7.34587 17.0049 7.33883 16.9085 7.33556C16.3967 7.3208 15.8873 7.40996 15.411 7.59764L13.4066 8.35348ZM22.1903 9.61236L20.6586 9.44756L20.4746 9.92556C20.903 9.96996 21.3038 10.1853 21.5753 10.5186C21.7214 10.698 21.8218 10.9024 21.8722 11.1176C22.1014 10.7821 22.3811 10.249 22.2683 9.85764L22.1903 9.61236Z" fill="#333333"/>
</svg>
