<svg width="16" height="17" viewBox="0 0 16 17" fill="none" xmlns="http://www.w3.org/2000/svg">
<path d="M14.5 8.5C14.5 9.055 13.82 9.5 13.68 10.025C13.54 10.55 13.9 11.29 13.63 11.75C13.36 12.21 12.54 12.275 12.16 12.66C11.78 13.045 11.72 13.86 11.25 14.13C10.78 14.4 10.05 14.04 9.525 14.18C9 14.32 8.555 15 8 15C7.445 15 7 14.32 6.5 14.18C6 14.04 5.235 14.4 4.775 14.13C4.315 13.86 4.25 13.04 3.865 12.66C3.48 12.28 2.665 12.22 2.395 11.75C2.125 11.28 2.485 10.55 2.345 10.025C2.205 9.5 1.5 9.055 1.5 8.5C1.5 7.945 2.18 7.5 2.32 7C2.46 6.5 2.1 5.735 2.37 5.275C2.64 4.815 3.46 4.725 3.84 4.34C4.22 3.955 4.28 3.14 4.75 2.87C5.22 2.6 5.95 2.96 6.475 2.82C7 2.68 7.445 2 8 2C8.555 2 9 2.68 9.525 2.82C10.05 2.96 10.79 2.6 11.25 2.87C11.71 3.14 11.775 3.96 12.16 4.34C12.545 4.72 13.36 4.78 13.63 5.25C13.9 5.72 13.54 6.45 13.68 6.975C13.82 7.5 14.5 7.945 14.5 8.5Z" fill="#427070"/>
<path d="M8 12.75C10.3472 12.75 12.25 10.8472 12.25 8.5C12.25 6.15279 10.3472 4.25 8 4.25C5.65279 4.25 3.75 6.15279 3.75 8.5C3.75 10.8472 5.65279 12.75 8 12.75Z" fill="#5D9E9E"/>
<path d="M7.56506 9.68459C7.51579 9.68482 7.46697 9.67521 7.42146 9.65632C7.37596 9.63743 7.33468 9.60964 7.30006 9.57459L6.13506 8.42959C6.06484 8.35927 6.02539 8.26396 6.02539 8.16459C6.02539 8.06521 6.06484 7.9699 6.13506 7.89959C6.20537 7.82936 6.30069 7.78992 6.40006 7.78992C6.49944 7.78992 6.59475 7.82936 6.66506 7.89959L7.56506 8.78959L9.33506 7.04459C9.40601 6.9743 9.50197 6.93508 9.60183 6.93555C9.70169 6.93602 9.79728 6.97614 9.86756 7.04709C9.93784 7.11803 9.97706 7.21399 9.97659 7.31385C9.97613 7.41372 9.93601 7.5093 9.86506 7.57959L7.82506 9.57959C7.7913 9.61406 7.75078 9.64119 7.70604 9.65926C7.66129 9.67733 7.6133 9.68595 7.56506 9.68459Z" fill="#EDEBEA"/>
</svg>
