<svg width="24" height="24" viewBox="0 0 24 24" fill="none" xmlns="http://www.w3.org/2000/svg">
    <path fill-rule="evenodd" clip-rule="evenodd" d="M3.59998 6.5998V17.3998C3.59998 18.3939 4.40586 19.1998 5.39998 19.1998H18.6C19.5941 19.1998 20.4 18.3939 20.4 17.3998V8.9998C20.4 8.00569 19.5941 7.1998 18.6 7.1998H6.74998C6.4186 7.1998 6.14998 6.93118 6.14998 6.5998C6.14998 6.26843 6.4186 5.9998 6.74998 5.9998H17.8976C17.6504 5.30069 16.9837 4.7998 16.2 4.7998H5.39998C4.40586 4.7998 3.59998 5.60569 3.59998 6.5998ZM15.6 12.8998C15.6 12.2371 16.1372 11.6998 16.8 11.6998C17.4627 11.6998 18 12.2371 18 12.8998C18 13.5625 17.4627 14.0998 16.8 14.0998C16.1372 14.0998 15.6 13.5625 15.6 12.8998Z" fill="white"/>
</svg>
